<svg width="53" height="53" viewBox="0 0 53 53" fill="none" xmlns="http://www.w3.org/2000/svg">
<path d="M48.6583 0.353516H3.67317C2.69829 0.355517 1.76403 0.744201 1.07539 1.43426C0.386751 2.12431 -2.05525e-06 3.05937 0 4.03425V49.0119C-2.05525e-06 49.9867 0.386751 50.9218 1.07539 51.6119C1.76403 52.3019 2.69829 52.6906 3.67317 52.6926H48.6583C49.6345 52.6926 50.5707 52.3048 51.261 51.6145C51.9513 50.9243 52.3391 49.9881 52.3391 49.0119V4.03425C52.3391 3.05806 51.9513 2.12185 51.261 1.43158C50.5707 0.741308 49.6345 0.353516 48.6583 0.353516ZM51.1222 48.8078C51.1222 49.1588 51.0529 49.5063 50.9184 49.8305C50.7838 50.1547 50.5867 50.4492 50.3381 50.697C50.0896 50.9448 49.7945 51.1412 49.47 51.2748C49.1454 51.4085 48.7977 51.4768 48.4467 51.4758H3.85456C3.14627 51.4758 2.46688 51.1949 1.96534 50.6948C1.46379 50.1947 1.181 49.5161 1.179 48.8078V4.21564C1.179 3.50604 1.4609 2.8255 1.96266 2.32374C2.46442 1.82198 3.14496 1.54008 3.85456 1.54008H48.4467C48.7983 1.53908 49.1467 1.60766 49.4717 1.74176C49.7968 1.87587 50.0922 2.07288 50.3408 2.32153C50.5895 2.57017 50.7865 2.86556 50.9206 3.19062C51.0547 3.51568 51.1232 3.864 51.1222 4.21564V48.8078Z" fill="black"/>
<path d="M46.8594 15.5222H6.0311C5.6763 15.5222 5.38867 15.8098 5.38867 16.1646V16.5652C5.38867 16.92 5.6763 17.2076 6.0311 17.2076H46.8594C47.2142 17.2076 47.5018 16.92 47.5018 16.5652V16.1646C47.5018 15.8098 47.2142 15.5222 46.8594 15.5222Z" fill="black"/>
<path d="M46.8596 21.7578H26.3094C25.9546 21.7578 25.667 22.0454 25.667 22.4002V22.8008C25.667 23.1556 25.9546 23.4432 26.3094 23.4432H46.8596C47.2144 23.4432 47.502 23.1556 47.502 22.8008V22.4002C47.502 22.0454 47.2144 21.7578 46.8596 21.7578Z" fill="black"/>
<path d="M21.132 21.7578H6.0311C5.6763 21.7578 5.38867 22.0454 5.38867 22.4002V22.8008C5.38867 23.1556 5.6763 23.4432 6.0311 23.4432H21.132C21.4868 23.4432 21.7744 23.1556 21.7744 22.8008V22.4002C21.7744 22.0454 21.4868 21.7578 21.132 21.7578Z" fill="black"/>
<path d="M21.132 44.3784H6.0311C5.6763 44.3784 5.38867 44.666 5.38867 45.0208V45.4214C5.38867 45.7762 5.6763 46.0638 6.0311 46.0638H21.132C21.4868 46.0638 21.7744 45.7762 21.7744 45.4214V45.0208C21.7744 44.666 21.4868 44.3784 21.132 44.3784Z" fill="black"/>
<path d="M46.8596 27.4111H26.3094C25.9546 27.4111 25.667 27.6988 25.667 28.0536V28.4541C25.667 28.8089 25.9546 29.0966 26.3094 29.0966H46.8596C47.2144 29.0966 47.502 28.8089 47.502 28.4541V28.0536C47.502 27.6988 47.2144 27.4111 46.8596 27.4111Z" fill="black"/>
<path d="M46.8596 33.0649H26.3094C25.9546 33.0649 25.667 33.3526 25.667 33.7074V34.1079C25.667 34.4627 25.9546 34.7504 26.3094 34.7504H46.8596C47.2144 34.7504 47.502 34.4627 47.502 34.1079V33.7074C47.502 33.3526 47.2144 33.0649 46.8596 33.0649Z" fill="black"/>
<path d="M46.8596 38.7251H26.3094C25.9546 38.7251 25.667 39.0127 25.667 39.3675V39.7681C25.667 40.1229 25.9546 40.4105 26.3094 40.4105H46.8596C47.2144 40.4105 47.502 40.1229 47.502 39.7681V39.3675C47.502 39.0127 47.2144 38.7251 46.8596 38.7251Z" fill="black"/>
<path d="M46.8596 44.3784H26.3094C25.9546 44.3784 25.667 44.666 25.667 45.0208V45.4214C25.667 45.7762 25.9546 46.0638 26.3094 46.0638H46.8596C47.2144 46.0638 47.502 45.7762 47.502 45.4214V45.0208C47.502 44.666 47.2144 44.3784 46.8596 44.3784Z" fill="black"/>
<path d="M11.4202 11.9474H10.1731V5.59863H11.6317L15.4561 10.3753V5.59863H16.7108V11.9474H15.2445L11.4202 7.17075V11.9474Z" fill="black"/>
<path d="M18.3433 5.59863H23.7851V6.71729H19.5903V8.16837H23.3693V9.27937H19.5903V10.791H23.8606V11.9096H18.3433V5.59863Z" fill="black"/>
<path d="M30.2017 7.10267L28.4104 11.9474H26.982L24.5029 5.59863H25.818L27.7075 10.4963L29.529 5.59863H30.9348L32.7563 10.4963L34.6534 5.59863H35.923L33.4365 11.9474H32.0156L30.2017 7.10267Z" fill="black"/>
<path d="M41.4782 7.0349C40.7623 6.71913 39.9928 6.54221 39.2108 6.51344C38.4021 6.51344 37.8125 6.70987 37.8125 7.19358C37.8125 7.80578 38.7951 7.94943 39.8079 8.18372C40.8206 8.41802 42.0753 8.89413 42.0753 10.1261C42.0753 11.358 40.7677 12.1668 39.2183 12.1668C38.2718 12.1498 37.3377 11.9495 36.4673 11.5773L36.7771 10.4587C37.5267 10.8092 38.3386 11.0071 39.1654 11.0407C40.08 11.0407 40.8282 10.829 40.8282 10.1639C40.8282 9.63485 40.0724 9.46106 39.1503 9.25699C37.9486 8.96979 36.558 8.58433 36.558 7.26924C36.558 6.10531 37.6463 5.40234 39.1654 5.40234C40.0753 5.42213 40.9762 5.58802 41.8334 5.89363L41.4782 7.0349Z" fill="black"/>
<path d="M21.7744 45.0134V22.7401C21.7744 22.3853 21.4868 22.0977 21.132 22.0977H20.7314C20.3766 22.0977 20.089 22.3853 20.089 22.7401V45.0134C20.089 45.3682 20.3766 45.6558 20.7314 45.6558H21.132C21.4868 45.6558 21.7744 45.3682 21.7744 45.0134Z" fill="black"/>
<path d="M7.08179 45.0211L7.08179 22.7476C7.08179 22.3928 6.79418 22.1052 6.43938 22.1052H6.03878C5.68398 22.1052 5.39637 22.3928 5.39637 22.7476L5.39637 45.0211C5.39637 45.3759 5.68398 45.6635 6.03878 45.6635H6.43938C6.79418 45.6635 7.08179 45.3759 7.08179 45.0211Z" fill="black"/>
</svg>
