<svg width="66" height="63" viewBox="0 0 66 63" fill="none" xmlns="http://www.w3.org/2000/svg">
<path d="M48.5797 35.7679L61.6284 30.2285C64.5861 28.9685 65.0862 29.2942 65.108 32.5309C65.108 40.7857 65.108 49.0404 65.108 57.2734C65.108 60.4884 64.5861 60.7925 61.5849 59.4457L48.9928 54.0802C48.7955 54.6558 48.6358 55.2437 48.5144 55.8399C47.8837 60.9448 45.9699 62.7041 40.9027 62.7041H8.28105C2.95285 62.7041 0.86499 60.532 0.86499 55.2968C0.86499 48.1717 0.86499 41.0536 0.86499 33.943C0.86499 29.1639 3.03997 26.9048 7.86797 26.9048H40.7288C46.1658 26.9048 48.2534 28.9252 48.4709 34.3776C48.4709 34.8121 48.5145 35.1379 48.5797 35.7679ZM24.6572 60.1845H41.3593C44.6867 60.1845 45.7089 59.0983 45.7089 55.8399C45.7089 48.5989 45.7089 41.2998 45.7089 33.943C45.7089 30.7932 44.6435 29.5984 41.577 29.5984C30.1957 29.5984 18.8069 29.5984 7.41109 29.5984C4.38815 29.5984 3.25741 30.7063 3.21392 33.7041C3.12693 41.1768 3.12693 48.6423 3.21392 56.1005C3.21392 59.2286 4.45354 60.2277 7.56347 60.2494L24.6572 60.1845ZM62.346 32.6397C57.9964 34.5296 53.8644 36.1805 49.8628 38.0487C49.4886 38.2879 49.172 38.6066 48.9352 38.9821C48.6984 39.3575 48.5472 39.7805 48.4927 40.2209C48.3404 43.4142 48.4927 46.6293 48.4927 49.8443C48.4927 50.3657 48.7537 51.191 49.1017 51.3431C53.4512 53.2981 57.8007 55.1229 62.3895 57.0997L62.346 32.6397Z" fill="#FF5500"/>
<path d="M32.8998 0.81543C35.7611 0.849728 38.4933 2.00936 40.5044 4.04258C42.5155 6.07579 43.6433 8.8187 43.6431 11.6769C43.5186 14.4423 42.331 17.0533 40.3278 18.9662C38.3247 20.8791 35.6603 21.9465 32.8889 21.9465C30.1176 21.9465 27.453 20.8791 25.4498 18.9662C23.4466 17.0533 22.2591 14.4423 22.1345 11.6769C22.1344 8.81498 23.2651 6.06871 25.2809 4.03489C27.2967 2.00106 30.0348 0.844049 32.8998 0.81543ZM32.7474 19.671C33.8311 19.7 34.9097 19.5126 35.9201 19.1203C36.9305 18.7279 37.8524 18.1385 38.632 17.3861C39.4116 16.6336 40.0333 15.7335 40.4606 14.7383C40.8878 13.7431 41.112 12.673 41.1203 11.5902C41.1203 9.41242 40.2544 7.32361 38.7127 5.7837C37.171 4.24379 35.0801 3.37885 32.8998 3.37885C30.7196 3.37885 28.6286 4.24379 27.087 5.7837C25.5453 7.32361 24.6791 9.41242 24.6791 11.5902C24.6791 13.7296 25.5285 15.7816 27.041 17.2964C28.5535 18.8113 30.6056 19.6653 32.7474 19.671Z" fill="#FF5500"/>
<path d="M9.17285 5.52979C11.3626 5.55696 13.4569 6.42899 15.0176 7.96354C16.5782 9.49809 17.4841 11.5763 17.5457 13.7629C17.5348 15.9955 16.6509 18.1355 15.0826 19.7263C13.5143 21.3172 11.3858 22.2328 9.15108 22.2781C6.96366 22.2392 4.87635 21.3554 3.32734 19.8122C1.77833 18.269 0.888196 16.1866 0.84355 14.0018C0.826266 12.8973 1.0287 11.8001 1.43928 10.7744C1.84985 9.74865 2.46033 8.8148 3.23522 8.02665C4.01012 7.23849 4.93388 6.61179 5.95316 6.18317C6.97245 5.75455 8.06693 5.53253 9.17285 5.52979ZM9.17285 8.11469C8.02875 8.12331 6.91293 8.47073 5.96643 9.1128C5.01994 9.75486 4.28524 10.6627 3.85537 11.7218C3.42551 12.7809 3.31975 13.9436 3.5514 15.0627C3.78305 16.1819 4.34165 17.2073 5.15673 18.0093C5.97182 18.8113 7.0068 19.354 8.13059 19.5685C9.25439 19.7831 10.4166 19.6598 11.4703 19.2145C12.524 18.7693 13.4219 18.0221 14.0504 17.0672C14.6789 16.1122 15.0097 14.9924 15.0011 13.8496C14.9983 13.0918 14.8458 12.3421 14.5522 11.6433C14.2586 10.9446 13.8296 10.3107 13.2901 9.77785C12.7506 9.24503 12.1112 8.8238 11.4084 8.53843C10.7056 8.25306 9.95327 8.10896 9.19462 8.11469H9.17285Z" fill="#FF5500"/>
<path d="M16.4802 44.8912V36.3322C16.4441 35.3734 16.7527 34.4334 17.3501 33.6821C17.9608 32.9432 18.818 32.4495 19.7641 32.2918C20.2668 32.2034 20.7821 32.2177 21.2792 32.3334C21.7763 32.4491 22.2447 32.664 22.6565 32.9653C26.6146 35.9196 30.5946 38.8521 34.5309 41.8282C34.9989 42.1953 35.3781 42.6631 35.6401 43.1967C35.908 43.7286 36.0422 44.3177 36.0314 44.9129C36.0289 45.508 35.8881 46.0945 35.6202 46.626C35.3522 47.1575 34.9645 47.6196 34.4874 47.9759L22.8089 56.6651C22.2333 57.1375 21.5282 57.4252 20.7862 57.4906C20.0359 57.5824 19.2757 57.438 18.6114 57.0777C17.9346 56.7555 17.3675 56.2418 16.9803 55.6005C16.5797 54.9494 16.3899 54.1909 16.4366 53.4282C16.4801 50.6476 16.4802 47.7803 16.4802 44.8912ZM18.4593 44.8912V53.5804C18.4361 53.9603 18.527 54.3385 18.7203 54.6665C18.9112 54.9986 19.1997 55.2639 19.5467 55.4268C19.8865 55.6078 20.2727 55.6834 20.6559 55.6439C21.0306 55.5836 21.3829 55.4264 21.6779 55.1878L25.6359 52.2336L33.1826 46.5856C33.4654 46.4087 33.6975 46.1616 33.8566 45.8686C34.0115 45.5814 34.0936 45.2609 34.0958 44.9347C34.0871 44.6094 34.0054 44.29 33.8566 44.0005C33.6969 43.7136 33.4645 43.474 33.1826 43.3055L31.6383 42.1541L21.6779 34.703C21.4614 34.5226 21.2096 34.3896 20.9386 34.3121C20.6596 34.2473 20.3694 34.2473 20.0904 34.3121C19.6158 34.409 19.1871 34.6612 18.8724 35.0289C18.5744 35.4197 18.4348 35.9083 18.4811 36.3975C18.4811 39.2649 18.4811 42.1106 18.4811 45.0866L18.4593 44.8912Z" fill="#FF5500"/>
</svg>
