<svg width="60" height="66" viewBox="0 0 60 66" fill="none" xmlns="http://www.w3.org/2000/svg">
<path d="M22.2133 25.3834H33.0615C33.986 25.3834 34.9922 25.35 35.0075 26.6283C35.0228 27.9065 34.0728 27.9604 33.1152 27.9604C25.8915 27.9604 18.667 27.9604 11.4416 27.9604C10.581 27.9604 9.78427 27.8809 9.54166 26.8721C9.33481 26.0174 9.99367 25.3937 11.1326 25.3885C14.8202 25.3834 18.518 25.3834 22.2133 25.3834Z" fill="#4763D5"/>
<path d="M22.2771 43.6302C25.9315 43.6302 29.5884 43.6302 33.2428 43.6302C34.18 43.6302 35.0304 43.7765 35.0023 44.947C34.9844 46.025 34.1928 46.2072 33.3015 46.2072C25.9468 46.2072 18.5937 46.2072 11.2424 46.2072C10.323 46.2072 9.54158 45.9506 9.52881 44.9393C9.52881 43.8304 10.3511 43.6148 11.3164 43.62C14.9657 43.6431 18.6227 43.6302 22.2771 43.6302Z" fill="#4763D5"/>
<path d="M22.336 40.0859C18.6816 40.0859 15.0272 40.0859 11.3728 40.0859C10.4381 40.0859 9.54946 39.9626 9.53414 38.8333C9.51881 37.7039 10.3794 37.5011 11.3218 37.5037C18.6305 37.5037 25.9393 37.5037 33.2481 37.5037C34.1828 37.5037 35.0357 37.6988 35.0051 38.8512C34.9897 39.9447 34.1828 40.0833 33.2941 40.0807C29.6371 40.0782 25.9827 40.0859 22.336 40.0859Z" fill="#4763D5"/>
<path d="M22.3359 31.4558C25.8192 31.4558 29.3033 31.4558 32.7883 31.4558C33.2122 31.4558 33.7204 31.3583 34.0371 31.5533C34.4457 31.81 34.9462 32.3028 34.9539 32.7032C34.9615 33.1037 34.4891 33.6324 34.0907 33.9019C33.7868 34.1072 33.271 34.0225 32.8496 34.0251C25.7962 34.0251 18.7436 34.0251 11.6919 34.0251C11.4365 34.0251 11.1811 34.0251 10.9258 34.0251C10.0933 33.9815 9.4957 33.5836 9.51613 32.7084C9.53656 31.8331 10.1622 31.4712 10.9922 31.4686H19.5319L22.3359 31.4558Z" fill="#4763D5"/>
<path d="M44.6606 16.0454C44.6606 14.721 44.6606 13.3965 44.6606 12.072C44.6606 11.2353 44.9671 10.5962 45.8481 10.5551C46.7955 10.5089 47.2118 11.148 47.2144 12.0387C47.228 14.8159 47.228 17.594 47.2144 20.373C47.2144 21.1943 46.8441 21.8155 45.9375 21.8181C44.9543 21.8181 44.6606 21.1636 44.6606 20.278C44.6683 18.8663 44.6606 17.4571 44.6606 16.0454Z" fill="#4763D5"/>
<path d="M57.128 6.08895C55.1761 3.10502 52.1284 1.01902 48.6509 0.286978C45.1735 -0.445061 41.549 0.236408 38.57 2.18235C37.9698 2.55517 37.2809 2.75901 36.5755 2.77265C26.3223 2.80859 16.069 2.79065 5.81323 2.80348C2.89687 2.80348 0.961123 4.67719 0.961123 7.5879C0.940693 23.0706 0.940693 38.5517 0.961123 54.031C0.961123 56.8698 2.90197 58.7538 5.71108 58.7948C6.98795 58.8128 8.23928 58.7948 9.57999 58.7948C9.6286 59.2543 9.64821 59.7164 9.63872 60.1784C9.3144 63.8386 11.9984 65.7944 15.188 65.7585C25.7809 65.6353 36.384 65.7149 46.9692 65.7123C50.4959 65.7123 52.332 63.8822 52.332 60.3452C52.332 55.4581 52.332 50.571 52.332 45.6838V31.1816C52.332 29.6878 52.378 28.1939 52.3167 26.7026C52.2784 25.7657 52.5338 25.2011 53.374 24.6364C56.314 22.6732 58.36 19.6188 59.0637 16.1423C59.7673 12.6657 59.0712 9.05061 57.128 6.08895ZM5.90261 56.2204C4.2912 56.2204 3.52762 55.4837 3.52507 53.8872C3.51485 38.4866 3.51485 23.0921 3.52507 7.70346C3.52507 6.1634 4.27588 5.39336 5.77748 5.37795C15.3489 5.36769 24.9211 5.36769 34.4942 5.37795C34.575 5.37886 34.6555 5.38829 34.7343 5.40615C33.4099 7.68503 32.6685 10.2585 32.5763 12.896C32.3593 12.896 31.7898 12.896 31.0722 12.896C24.6496 12.8318 18.2244 12.896 11.7992 12.896C9.75618 12.896 9.47783 13.1834 9.47528 15.2856C9.47528 16.6101 9.47528 17.9371 9.47528 19.2615C9.47528 20.3781 10.0014 20.9069 11.1148 20.9043C18.73 20.8855 26.3452 20.8786 33.9605 20.8837C34.152 20.8863 34.341 20.9274 34.5164 21.0046C34.6918 21.0817 34.8501 21.1934 34.982 21.3329C36.3917 23.2237 38.2303 24.7488 40.3448 25.7812C40.5404 25.9019 40.706 26.066 40.8291 26.2608C40.9521 26.4556 41.0293 26.676 41.0548 26.9054C41.0956 35.8856 41.1033 44.8693 41.0777 53.8564C41.0777 55.4478 40.2759 56.2358 38.713 56.2383C27.7728 56.2366 16.836 56.2306 5.90261 56.2204ZM32.6274 15.568C32.8164 16.4321 33.0062 17.298 33.1969 18.1655L12.1312 18.2425V15.5423L32.6274 15.568ZM49.7732 60.3863C49.7732 62.4397 49.0582 63.1404 46.9922 63.1404C39.932 63.1404 32.8666 63.1404 25.7962 63.1404C22.0524 63.1404 18.3087 63.1404 14.5598 63.1404C13.2344 63.1404 12.3763 62.5141 12.2614 61.4078C12.2104 60.5403 12.2044 59.6707 12.2435 58.8025H38.1486C41.8566 58.8025 43.6315 57.0289 43.634 53.3174C43.634 43.1428 43.634 29.2514 43.634 28.3017C43.634 27.6575 43.634 27.1415 43.634 26.8643C45.6781 27.178 47.7624 27.1075 49.7809 26.6564V30.1292C49.7809 30.522 49.7809 30.9173 49.7809 31.31C49.7809 31.3793 49.7809 31.4434 49.7809 31.5076V45.6916C49.7681 50.5864 49.7783 55.4863 49.7732 60.3863ZM45.9247 24.3899C43.7781 24.397 41.6777 23.7642 39.8889 22.5714C38.1002 21.3787 36.7035 19.6796 35.8755 17.689C35.0475 15.6984 34.8254 13.5058 35.2373 11.3883C35.6491 9.27083 36.6764 7.32368 38.1893 5.79305C39.7022 4.26242 41.6326 3.21708 43.7366 2.7892C45.8405 2.36131 48.0235 2.57014 50.0094 3.38921C51.9952 4.20829 53.6949 5.60086 54.8933 7.39082C56.0918 9.18079 56.7353 11.2877 56.7423 13.4453C56.7391 16.3345 55.6006 19.1056 53.5746 21.1553C51.5487 23.2051 48.7992 24.3676 45.9247 24.3899Z" fill="#4763D5"/>
<path d="M45.9399 8.89945C46.6818 8.89945 47.2832 8.29499 47.2832 7.54934C47.2832 6.80369 46.6818 6.19922 45.9399 6.19922C45.1981 6.19922 44.5967 6.80369 44.5967 7.54934C44.5967 8.29499 45.1981 8.89945 45.9399 8.89945Z" fill="#4763D5"/>
</svg>
