<svg width="31" height="31" viewBox="0 0 31 31" fill="none" xmlns="http://www.w3.org/2000/svg">
<path d="M15.0431 30.125C6.718 30.1103 -0.0164412 23.3459 3.01505e-05 15.0184C0.0182663 6.7133 6.78682 -0.0181992 15.1007 3.69651e-05C23.4147 0.0182731 30.1438 6.7786 30.1291 15.0908C30.1144 23.4029 23.3535 30.1391 15.0431 30.125ZM14.6701 8.40339L14.6672 8.47574C14.5595 8.47574 14.4513 8.47104 14.3437 8.47574C12.2889 8.5728 10.2317 8.63986 8.17925 8.78105C7.0086 8.86164 6.20033 9.60109 6.00679 10.7541C5.84165 11.7885 5.73462 12.8314 5.68619 13.8778C5.58313 15.6405 5.67049 17.4093 5.94678 19.1533C6.1515 20.4093 6.82918 21.1263 8.08453 21.3134C9.01222 21.4517 9.95521 21.5111 10.8941 21.5522C14.4425 21.7087 17.9897 21.7058 21.5316 21.4087C23.2247 21.2669 23.9918 20.5622 24.2288 18.8986C24.4689 17.2185 24.5411 15.5186 24.4441 13.8242C24.3921 12.7686 24.2794 11.7168 24.1065 10.6741C23.93 9.67403 23.2588 9.06694 22.2664 8.84105C21.9705 8.77189 21.6691 8.72859 21.3658 8.71164C19.1339 8.6034 16.902 8.50516 14.6701 8.40339Z" fill="#4763D5"/>
<path d="M13.2007 17.8786V12.2466L18.0915 15.062L13.2007 17.8786Z" fill="#4763D5"/>
</svg>
