<svg width="39" height="39" viewBox="0 0 39 39" fill="none" xmlns="http://www.w3.org/2000/svg">
<path d="M19.1264 0.000117283C29.6357 -0.0365874 38.273 8.54673 38.2978 19.0658C38.3225 29.6128 29.9294 38.1514 19.4225 38.2959C8.77351 38.4451 0.0827798 29.9615 0.000588438 19.3371C-0.0816029 8.6297 8.45671 0.036822 19.1264 0.000117283ZM19.9659 24.5037C21.6975 25.8139 23.4147 27.0706 25.0793 28.3944C25.8246 28.9864 26.7263 28.7726 26.9514 27.7289C28.138 22.2232 29.3564 16.7271 30.5734 11.2294C30.6939 10.686 30.618 10.2208 30.1887 9.85612C29.7594 9.49147 29.2775 9.51541 28.7668 9.7117C21.9361 12.331 15.1041 14.9461 8.27078 17.5569C7.91728 17.6918 7.66114 17.8984 7.65874 18.2998C7.65874 18.7227 7.92527 18.9381 8.29712 19.0618C9.89307 19.5996 11.4938 20.1358 13.085 20.692C13.1985 20.7389 13.322 20.7561 13.444 20.7422C13.566 20.7282 13.6824 20.6835 13.7824 20.6122C17.7228 18.1929 21.6674 15.7799 25.6164 13.3734C25.7245 13.2963 25.8393 13.229 25.9595 13.1723C26.0321 13.1436 26.1271 13.1723 26.2124 13.1771C26.1949 13.2713 26.2069 13.3869 26.1542 13.4532C26.0397 13.5826 25.9151 13.7027 25.7815 13.8122C22.8466 16.5151 19.913 19.219 16.9807 21.924C16.8466 22.0485 16.7078 22.2392 16.6926 22.4091C16.5657 23.8789 16.466 25.3519 16.3599 26.8233C16.3431 27.0626 16.3 27.3714 16.5921 27.4241C16.778 27.4576 17.0501 27.3355 17.1993 27.1943C18.129 26.3198 19.0323 25.4189 19.9667 24.5037H19.9659Z" fill="#FF5500"/>
</svg>
