<svg width="30" height="30" viewBox="0 0 30 30" fill="red" xmlns="http://www.w3.org/2000/svg">
<path d="M14.9824 9.18719e-05C23.2147 -0.0286602 29.9806 6.69495 30 14.9349C30.0193 23.1967 23.4447 29.8853 15.2143 29.9985C6.87259 30.1154 0.0648443 23.4699 0.000460944 15.1474C-0.0639224 6.75995 6.62444 0.0288439 14.9824 9.18719e-05ZM15.64 19.1946C16.9964 20.2209 18.3416 21.2053 19.6455 22.2423C20.2293 22.7061 20.9357 22.5386 21.1119 21.721C22.0414 17.4082 22.9959 13.1029 23.9492 8.79635C24.0436 8.37069 23.9842 8.00629 23.6479 7.72064C23.3116 7.435 22.934 7.45375 22.534 7.60751C17.1833 9.65933 11.8316 11.7078 6.47879 13.7529C6.20188 13.8586 6.00123 14.0205 5.99936 14.3349C5.99936 14.6661 6.20814 14.8349 6.49942 14.9318C7.74959 15.3531 9.0035 15.7731 10.2499 16.2087C10.3388 16.2455 10.4356 16.259 10.5311 16.2481C10.6267 16.2371 10.7179 16.2021 10.7962 16.1462C13.8829 14.2511 16.9729 12.361 20.0662 10.4758C20.1509 10.4154 20.2408 10.3627 20.335 10.3183C20.3918 10.2958 20.4662 10.3183 20.5331 10.3221C20.5194 10.3958 20.5287 10.4865 20.4875 10.5383C20.3978 10.6397 20.3002 10.7338 20.1956 10.8196C17.8965 12.9368 15.5985 15.0549 13.3016 17.1738C13.1965 17.2713 13.0878 17.4207 13.0759 17.5538C12.9765 18.7052 12.8984 19.859 12.8152 21.0116C12.8021 21.1991 12.7684 21.441 12.9971 21.4822C13.1428 21.5085 13.3559 21.4129 13.4728 21.3022C14.201 20.6172 14.9086 19.9115 15.6406 19.1946H15.64Z" fill="#4763D5"/>
</svg>
