<svg width="39" height="39" viewBox="0 0 39 39" fill="none" xmlns="http://www.w3.org/2000/svg">
<path d="M18.7983 0.0032171C29.4064 -0.189011 38.0953 8.25783 38.2942 18.7519C38.4969 29.3895 30.1169 38.0749 19.5552 38.2926C17.0314 38.3515 14.5209 37.9098 12.1688 36.9928C9.81668 36.0759 7.66958 34.702 5.85152 32.9504C4.03346 31.1988 2.58048 29.1044 1.57654 26.788C0.572587 24.4716 0.0375673 21.9793 0.00238596 19.455C-0.16291 8.80833 8.28139 0.213397 18.7983 0.0032171ZM21.2418 16.1744C21.2418 15.4892 21.268 14.8026 21.2343 14.1197C21.2007 13.4368 20.8738 13.059 20.1939 13.0276C18.9134 12.9685 17.63 12.9678 16.348 12.97C16.147 12.9658 15.9474 13.0043 15.7625 13.0831C15.5776 13.1619 15.4116 13.2791 15.2754 13.4271C14.986 13.7434 15.0398 13.9319 15.4534 14.0531C16.1086 14.2446 16.4153 14.5849 16.4482 15.2409C16.4901 16.0749 16.523 16.9104 16.5073 17.7443C16.4976 18.1999 16.3996 18.6584 16.2971 19.1056C16.1864 19.5851 15.897 19.6741 15.5028 19.3659C15.3078 19.2132 15.132 19.0374 14.9792 18.8424C13.9323 17.5047 13.0869 16.021 12.4699 14.4383C12.2231 13.8025 11.784 13.4914 11.1041 13.4906C10.0323 13.4906 8.96053 13.4719 7.88798 13.4727C7.25746 13.4727 7.00764 13.8467 7.26718 14.4346C8.56337 17.3517 10.0062 20.1895 11.968 22.737C14.0563 25.4462 16.7392 26.8584 20.2134 26.5846C20.9022 26.5308 21.1498 26.2675 21.2478 25.5913C21.3222 25.0623 21.4263 24.5379 21.5597 24.0206C21.7055 23.4656 22.158 23.3152 22.6262 23.6466C22.8378 23.8006 23.0348 23.9736 23.2149 24.1634C23.7384 24.7005 24.2426 25.2495 24.7601 25.7895C25.0147 26.065 25.3244 26.2838 25.6691 26.4318C26.0138 26.5797 26.3858 26.6535 26.7609 26.6482C27.2717 26.6482 27.7826 26.6826 28.2934 26.6811C28.9284 26.6811 29.5649 26.6886 30.1984 26.6347C30.992 26.5674 31.3263 25.9144 30.9688 25.2039C30.9097 25.0942 30.8448 24.9879 30.7744 24.8852C29.9763 23.6466 28.8925 22.6645 27.8611 21.6353C27.0518 20.8282 27.0316 20.5672 27.6988 19.6232C27.7564 19.5417 27.817 19.4624 27.8761 19.3824C28.5612 18.4482 29.2792 17.5349 29.921 16.5715C30.3463 15.9307 30.71 15.251 31.007 14.5415C31.2725 13.9095 31.0414 13.5609 30.36 13.5415C28.9284 13.5004 27.4946 13.5213 26.0623 13.5243C25.7145 13.5243 25.4782 13.7128 25.342 14.0277C25.2677 14.1992 25.1957 14.3712 25.1259 14.5438C24.4587 16.1826 23.6008 17.7062 22.3974 19.0166C22.1947 19.241 22.0189 19.5821 21.6494 19.4654C21.2799 19.3487 21.2612 18.9568 21.2508 18.6471C21.2209 17.8176 21.2418 16.9956 21.2418 16.1744Z" fill="#FF5500"/>
</svg>
