<svg width="30" height="31" viewBox="0 0 30 31" fill="none" xmlns="http://www.w3.org/2000/svg">
<path d="M14.7253 0.25252C23.035 0.101941 29.8413 6.71864 29.9972 14.939C30.156 23.2718 23.5916 30.0754 15.3182 30.2459C13.3413 30.2921 11.3747 29.9461 9.53223 29.2278C7.68975 28.5095 6.00785 27.4333 4.5837 26.0612C3.15955 24.6891 2.02138 23.0485 1.23495 21.234C0.448528 19.4195 0.0294278 17.4671 0.001869 15.4897C-0.127613 7.14987 6.4871 0.417161 14.7253 0.25252ZM16.6394 12.9199C16.6394 12.3832 16.6599 11.8454 16.6336 11.3104C16.6072 10.7755 16.3512 10.4796 15.8186 10.455C14.8156 10.4087 13.8102 10.4081 12.8059 10.4099C12.6485 10.4065 12.4922 10.4367 12.3473 10.4984C12.2025 10.5602 12.0724 10.652 11.9658 10.7679C11.739 11.0157 11.7812 11.1634 12.1052 11.2583C12.6185 11.4083 12.8587 11.6749 12.8845 12.1887C12.9173 12.842 12.943 13.4965 12.9307 14.1498C12.9231 14.5066 12.8464 14.8657 12.7661 15.2161C12.6794 15.5917 12.4527 15.6614 12.1439 15.42C11.9911 15.3004 11.8534 15.1627 11.7338 15.0099C10.9137 13.9621 10.2514 12.7998 9.7681 11.56C9.57475 11.062 9.23083 10.8183 8.69826 10.8177C7.85868 10.8177 7.01909 10.803 6.17892 10.8036C5.68502 10.8036 5.48933 11.0966 5.69264 11.5571C6.70799 13.8422 7.83817 16.0651 9.37497 18.0607C11.0108 20.1829 13.1124 21.2891 15.8338 21.0746C16.3734 21.0325 16.5674 20.8262 16.6441 20.2966C16.7024 19.8822 16.784 19.4714 16.8884 19.0661C17.0027 18.6314 17.3572 18.5136 17.7239 18.7732C17.8896 18.8938 18.044 19.0293 18.185 19.178C18.5951 19.5987 18.99 20.0288 19.3955 20.4518C19.5949 20.6676 19.8375 20.839 20.1075 20.9549C20.3775 21.0708 20.6689 21.1286 20.9627 21.1245C21.3629 21.1245 21.7631 21.1514 22.1632 21.1502C22.6606 21.1502 23.1592 21.1561 23.6555 21.1139C24.2771 21.0612 24.539 20.5497 24.259 19.9931C24.2127 19.9072 24.1618 19.8239 24.1066 19.7435C23.4815 18.7732 22.6325 18.0039 21.8246 17.1977C21.1906 16.5655 21.1748 16.361 21.6974 15.6216C21.7426 15.5577 21.79 15.4956 21.8363 15.4329C22.373 14.7011 22.9354 13.9857 23.4381 13.231C23.7713 12.7291 24.0562 12.1967 24.2888 11.6409C24.4968 11.1458 24.3158 10.8728 23.782 10.8575C22.6606 10.8253 21.5375 10.8417 20.4155 10.844C20.1431 10.844 19.9579 10.9917 19.8513 11.2384C19.7931 11.3727 19.7367 11.5075 19.682 11.6426C19.1594 12.9264 18.4873 14.1199 17.5446 15.1464C17.3859 15.3222 17.2482 15.5893 16.9587 15.4979C16.6693 15.4065 16.6547 15.0995 16.6465 14.857C16.623 14.2072 16.6394 13.5633 16.6394 12.9199Z" fill="white"/>
</svg>
