<svg width="116" height="116" viewBox="0 0 116 116" fill="none" xmlns="http://www.w3.org/2000/svg">
<path d="M41.5648 0H36.9465V4.61831H41.5648V0Z" fill="black"/>
<path d="M55.4196 0H50.8013V4.61831H55.4196V0Z" fill="black"/>
<path d="M60.038 0H55.4197V4.61831H60.038V0Z" fill="black"/>
<path d="M64.6564 0H60.0381V4.61831H64.6564V0Z" fill="black"/>
<path d="M41.5648 4.61841H36.9465V9.23672H41.5648V4.61841Z" fill="black"/>
<path d="M50.8014 4.61841H46.1831V9.23672H50.8014V4.61841Z" fill="black"/>
<path d="M64.6564 4.61841H60.0381V9.23672H64.6564V4.61841Z" fill="black"/>
<path d="M41.5648 9.23657H36.9465V13.8549H41.5648V9.23657Z" fill="black"/>
<path d="M55.4196 9.23657H50.8013V13.8549H55.4196V9.23657Z" fill="black"/>
<path d="M64.6564 9.23657H60.0381V13.8549H64.6564V9.23657Z" fill="black"/>
<path d="M69.2746 9.23657H64.6562V13.8549H69.2746V9.23657Z" fill="black"/>
<path d="M73.893 9.23657H69.2747V13.8549H73.893V9.23657Z" fill="black"/>
<path d="M46.183 13.855H41.5647V18.4733H46.183V13.855Z" fill="black"/>
<path d="M60.038 13.855H55.4197V18.4733H60.038V13.855Z" fill="black"/>
<path d="M64.6564 13.855H60.0381V18.4733H64.6564V13.855Z" fill="black"/>
<path d="M73.893 13.855H69.2747V18.4733H73.893V13.855Z" fill="black"/>
<path d="M78.5111 13.855H73.8928V18.4733H78.5111V13.855Z" fill="black"/>
<path d="M41.5648 18.4734H36.9465V23.0917H41.5648V18.4734Z" fill="black"/>
<path d="M50.8014 18.4734H46.1831V23.0917H50.8014V18.4734Z" fill="black"/>
<path d="M55.4196 18.4734H50.8013V23.0917H55.4196V18.4734Z" fill="black"/>
<path d="M60.038 18.4734H55.4197V23.0917H60.038V18.4734Z" fill="black"/>
<path d="M64.6564 18.4734H60.0381V23.0917H64.6564V18.4734Z" fill="black"/>
<path d="M69.2746 18.4734H64.6562V23.0917H69.2746V18.4734Z" fill="black"/>
<path d="M78.5111 18.4734H73.8928V23.0917H78.5111V18.4734Z" fill="black"/>
<path d="M78.5111 23.0916H73.8928V27.7099H78.5111V23.0916Z" fill="black"/>
<path d="M41.5648 27.71H36.9465V32.3283H41.5648V27.71Z" fill="black"/>
<path d="M50.8014 27.71H46.1831V32.3283H50.8014V27.71Z" fill="black"/>
<path d="M60.038 27.71H55.4197V32.3283H60.038V27.71Z" fill="black"/>
<path d="M69.2746 27.71H64.6562V32.3283H69.2746V27.71Z" fill="black"/>
<path d="M78.5111 27.71H73.8928V32.3283H78.5111V27.71Z" fill="black"/>
<path d="M46.183 32.3284H41.5647V36.9467H46.183V32.3284Z" fill="black"/>
<path d="M60.038 32.3284H55.4197V36.9467H60.038V32.3284Z" fill="black"/>
<path d="M64.6564 32.3284H60.0381V36.9467H64.6564V32.3284Z" fill="black"/>
<path d="M73.893 32.3284H69.2747V36.9467H73.893V32.3284Z" fill="black"/>
<path d="M78.5111 32.3284H73.8928V36.9467H78.5111V32.3284Z" fill="black"/>
<path d="M4.61831 36.9465H0V41.5648H4.61831V36.9465Z" fill="black"/>
<path d="M18.4733 36.9465H13.855V41.5648H18.4733V36.9465Z" fill="black"/>
<path d="M23.0915 36.9465H18.4731V41.5648H23.0915V36.9465Z" fill="black"/>
<path d="M27.7099 36.9465H23.0916V41.5648H27.7099V36.9465Z" fill="black"/>
<path d="M32.3283 36.9465H27.71V41.5648H32.3283V36.9465Z" fill="black"/>
<path d="M36.9464 36.9465H32.3281V41.5648H36.9464V36.9465Z" fill="black"/>
<path d="M41.5648 36.9465H36.9465V41.5648H41.5648V36.9465Z" fill="black"/>
<path d="M55.4196 36.9465H50.8013V41.5648H55.4196V36.9465Z" fill="black"/>
<path d="M69.2746 36.9465H64.6562V41.5648H69.2746V36.9465Z" fill="black"/>
<path d="M73.893 36.9465H69.2747V41.5648H73.893V36.9465Z" fill="black"/>
<path d="M78.5111 36.9465H73.8928V41.5648H78.5111V36.9465Z" fill="black"/>
<path d="M83.1295 36.9465H78.5112V41.5648H83.1295V36.9465Z" fill="black"/>
<path d="M96.9845 36.9465H92.3662V41.5648H96.9845V36.9465Z" fill="black"/>
<path d="M106.221 36.9465H101.603V41.5648H106.221V36.9465Z" fill="black"/>
<path d="M110.84 36.9465H106.221V41.5648H110.84V36.9465Z" fill="black"/>
<path d="M115.458 36.9465H110.839V41.5648H115.458V36.9465Z" fill="black"/>
<path d="M9.23672 41.5649H4.61841V46.1833H9.23672V41.5649Z" fill="black"/>
<path d="M36.9464 41.5649H32.3281V46.1833H36.9464V41.5649Z" fill="black"/>
<path d="M41.5648 41.5649H36.9465V46.1833H41.5648V41.5649Z" fill="black"/>
<path d="M50.8014 41.5649H46.1831V46.1833H50.8014V41.5649Z" fill="black"/>
<path d="M60.038 41.5649H55.4197V46.1833H60.038V41.5649Z" fill="black"/>
<path d="M69.2746 41.5649H64.6562V46.1833H69.2746V41.5649Z" fill="black"/>
<path d="M73.893 41.5649H69.2747V46.1833H73.893V41.5649Z" fill="black"/>
<path d="M92.3661 41.5649H87.7478V46.1833H92.3661V41.5649Z" fill="black"/>
<path d="M96.9845 41.5649H92.3662V46.1833H96.9845V41.5649Z" fill="black"/>
<path d="M101.603 41.5649H96.9846V46.1833H101.603V41.5649Z" fill="black"/>
<path d="M106.221 41.5649H101.603V46.1833H106.221V41.5649Z" fill="black"/>
<path d="M110.84 41.5649H106.221V46.1833H110.84V41.5649Z" fill="black"/>
<path d="M4.61831 46.1833H0V50.8017H4.61831V46.1833Z" fill="black"/>
<path d="M9.23672 46.1833H4.61841V50.8017H9.23672V46.1833Z" fill="black"/>
<path d="M13.8549 46.1833H9.23657V50.8017H13.8549V46.1833Z" fill="black"/>
<path d="M18.4733 46.1833H13.855V50.8017H18.4733V46.1833Z" fill="black"/>
<path d="M23.0915 46.1833H18.4731V50.8017H23.0915V46.1833Z" fill="black"/>
<path d="M27.7099 46.1833H23.0916V50.8017H27.7099V46.1833Z" fill="black"/>
<path d="M32.3283 46.1833H27.71V50.8017H32.3283V46.1833Z" fill="black"/>
<path d="M41.5648 46.1833H36.9465V50.8017H41.5648V46.1833Z" fill="black"/>
<path d="M55.4196 46.1833H50.8013V50.8017H55.4196V46.1833Z" fill="black"/>
<path d="M73.893 46.1833H69.2747V50.8017H73.893V46.1833Z" fill="black"/>
<path d="M78.5111 46.1833H73.8928V50.8017H78.5111V46.1833Z" fill="black"/>
<path d="M83.1295 46.1833H78.5112V50.8017H83.1295V46.1833Z" fill="black"/>
<path d="M101.603 46.1833H96.9846V50.8017H101.603V46.1833Z" fill="black"/>
<path d="M115.458 46.1833H110.839V50.8017H115.458V46.1833Z" fill="black"/>
<path d="M13.8549 50.8015H9.23657V55.4198H13.8549V50.8015Z" fill="black"/>
<path d="M18.4733 50.8015H13.855V55.4198H18.4733V50.8015Z" fill="black"/>
<path d="M41.5648 50.8015H36.9465V55.4198H41.5648V50.8015Z" fill="black"/>
<path d="M46.183 50.8015H41.5647V55.4198H46.183V50.8015Z" fill="black"/>
<path d="M50.8014 50.8015H46.1831V55.4198H50.8014V50.8015Z" fill="black"/>
<path d="M55.4196 50.8015H50.8013V55.4198H55.4196V50.8015Z" fill="black"/>
<path d="M60.038 50.8015H55.4197V55.4198H60.038V50.8015Z" fill="black"/>
<path d="M73.893 50.8015H69.2747V55.4198H73.893V50.8015Z" fill="black"/>
<path d="M92.3661 50.8015H87.7478V55.4198H92.3661V50.8015Z" fill="black"/>
<path d="M101.603 50.8015H96.9846V55.4198H101.603V50.8015Z" fill="black"/>
<path d="M106.221 50.8015H101.603V55.4198H106.221V50.8015Z" fill="black"/>
<path d="M110.84 50.8015H106.221V55.4198H110.84V50.8015Z" fill="black"/>
<path d="M115.458 50.8015H110.839V55.4198H115.458V50.8015Z" fill="black"/>
<path d="M4.61831 55.4199H0V60.0382H4.61831V55.4199Z" fill="black"/>
<path d="M9.23672 55.4199H4.61841V60.0382H9.23672V55.4199Z" fill="black"/>
<path d="M18.4733 55.4199H13.855V60.0382H18.4733V55.4199Z" fill="black"/>
<path d="M23.0915 55.4199H18.4731V60.0382H23.0915V55.4199Z" fill="black"/>
<path d="M27.7099 55.4199H23.0916V60.0382H27.7099V55.4199Z" fill="black"/>
<path d="M32.3283 55.4199H27.71V60.0382H32.3283V55.4199Z" fill="black"/>
<path d="M36.9464 55.4199H32.3281V60.0382H36.9464V55.4199Z" fill="black"/>
<path d="M46.183 55.4199H41.5647V60.0382H46.183V55.4199Z" fill="black"/>
<path d="M50.8014 55.4199H46.1831V60.0382H50.8014V55.4199Z" fill="black"/>
<path d="M60.038 55.4199H55.4197V60.0382H60.038V55.4199Z" fill="black"/>
<path d="M78.5111 55.4199H73.8928V60.0382H78.5111V55.4199Z" fill="black"/>
<path d="M83.1295 55.4199H78.5112V60.0382H83.1295V55.4199Z" fill="black"/>
<path d="M87.748 55.4199H83.1296V60.0382H87.748V55.4199Z" fill="black"/>
<path d="M115.458 55.4199H110.839V60.0382H115.458V55.4199Z" fill="black"/>
<path d="M4.61831 60.0383H0V64.6566H4.61831V60.0383Z" fill="black"/>
<path d="M9.23672 60.0383H4.61841V64.6566H9.23672V60.0383Z" fill="black"/>
<path d="M18.4733 60.0383H13.855V64.6566H18.4733V60.0383Z" fill="black"/>
<path d="M23.0915 60.0383H18.4731V64.6566H23.0915V60.0383Z" fill="black"/>
<path d="M36.9464 60.0383H32.3281V64.6566H36.9464V60.0383Z" fill="black"/>
<path d="M46.183 60.0383H41.5647V64.6566H46.183V60.0383Z" fill="black"/>
<path d="M50.8014 60.0383H46.1831V64.6566H50.8014V60.0383Z" fill="black"/>
<path d="M60.038 60.0383H55.4197V64.6566H60.038V60.0383Z" fill="black"/>
<path d="M64.6564 60.0383H60.0381V64.6566H64.6564V60.0383Z" fill="black"/>
<path d="M69.2746 60.0383H64.6562V64.6566H69.2746V60.0383Z" fill="black"/>
<path d="M73.893 60.0383H69.2747V64.6566H73.893V60.0383Z" fill="black"/>
<path d="M96.9845 60.0383H92.3662V64.6566H96.9845V60.0383Z" fill="black"/>
<path d="M110.84 60.0383H106.221V64.6566H110.84V60.0383Z" fill="black"/>
<path d="M4.61831 64.6565H0V69.2748H4.61831V64.6565Z" fill="black"/>
<path d="M9.23672 64.6565H4.61841V69.2748H9.23672V64.6565Z" fill="black"/>
<path d="M13.8549 64.6565H9.23657V69.2748H13.8549V64.6565Z" fill="black"/>
<path d="M18.4733 64.6565H13.855V69.2748H18.4733V64.6565Z" fill="black"/>
<path d="M27.7099 64.6565H23.0916V69.2748H27.7099V64.6565Z" fill="black"/>
<path d="M32.3283 64.6565H27.71V69.2748H32.3283V64.6565Z" fill="black"/>
<path d="M36.9464 64.6565H32.3281V69.2748H36.9464V64.6565Z" fill="black"/>
<path d="M41.5648 64.6565H36.9465V69.2748H41.5648V64.6565Z" fill="black"/>
<path d="M73.893 64.6565H69.2747V69.2748H73.893V64.6565Z" fill="black"/>
<path d="M83.1295 64.6565H78.5112V69.2748H83.1295V64.6565Z" fill="black"/>
<path d="M96.9845 64.6565H92.3662V69.2748H96.9845V64.6565Z" fill="black"/>
<path d="M101.603 64.6565H96.9846V69.2748H101.603V64.6565Z" fill="black"/>
<path d="M106.221 64.6565H101.603V69.2748H106.221V64.6565Z" fill="black"/>
<path d="M110.84 64.6565H106.221V69.2748H110.84V64.6565Z" fill="black"/>
<path d="M115.458 64.6565H110.839V69.2748H115.458V64.6565Z" fill="black"/>
<path d="M4.61831 69.2744H0V73.8927H4.61831V69.2744Z" fill="black"/>
<path d="M23.0915 69.2744H18.4731V73.8927H23.0915V69.2744Z" fill="black"/>
<path d="M27.7099 69.2744H23.0916V73.8927H27.7099V69.2744Z" fill="black"/>
<path d="M36.9464 69.2744H32.3281V73.8927H36.9464V69.2744Z" fill="black"/>
<path d="M50.8014 69.2744H46.1831V73.8927H50.8014V69.2744Z" fill="black"/>
<path d="M92.3661 69.2744H87.7478V73.8927H92.3661V69.2744Z" fill="black"/>
<path d="M101.603 69.2744H96.9846V73.8927H101.603V69.2744Z" fill="black"/>
<path d="M106.221 69.2744H101.603V73.8927H106.221V69.2744Z" fill="black"/>
<path d="M115.458 69.2744H110.839V73.8927H115.458V69.2744Z" fill="black"/>
<path d="M4.61831 73.8933H0V78.5116H4.61831V73.8933Z" fill="black"/>
<path d="M23.0915 73.8933H18.4731V78.5116H23.0915V73.8933Z" fill="black"/>
<path d="M32.3283 73.8933H27.71V78.5116H32.3283V73.8933Z" fill="black"/>
<path d="M41.5648 73.8933H36.9465V78.5116H41.5648V73.8933Z" fill="black"/>
<path d="M46.183 73.8933H41.5647V78.5116H46.183V73.8933Z" fill="black"/>
<path d="M55.4196 73.8933H50.8013V78.5116H55.4196V73.8933Z" fill="black"/>
<path d="M60.038 73.8933H55.4197V78.5116H60.038V73.8933Z" fill="black"/>
<path d="M64.6564 73.8933H60.0381V78.5116H64.6564V73.8933Z" fill="black"/>
<path d="M78.5111 73.8933H73.8928V78.5116H78.5111V73.8933Z" fill="black"/>
<path d="M83.1295 73.8933H78.5112V78.5116H83.1295V73.8933Z" fill="black"/>
<path d="M87.748 73.8933H83.1296V78.5116H87.748V73.8933Z" fill="black"/>
<path d="M92.3661 73.8933H87.7478V78.5116H92.3661V73.8933Z" fill="black"/>
<path d="M96.9845 73.8933H92.3662V78.5116H96.9845V73.8933Z" fill="black"/>
<path d="M106.221 73.8933H101.603V78.5116H106.221V73.8933Z" fill="black"/>
<path d="M110.84 73.8933H106.221V78.5116H110.84V73.8933Z" fill="black"/>
<path d="M41.5648 78.5112H36.9465V83.1295H41.5648V78.5112Z" fill="black"/>
<path d="M46.183 78.5112H41.5647V83.1295H46.183V78.5112Z" fill="black"/>
<path d="M64.6564 78.5112H60.0381V83.1295H64.6564V78.5112Z" fill="black"/>
<path d="M78.5111 78.5112H73.8928V83.1295H78.5111V78.5112Z" fill="black"/>
<path d="M96.9845 78.5112H92.3662V83.1295H96.9845V78.5112Z" fill="black"/>
<path d="M106.221 78.5112H101.603V83.1295H106.221V78.5112Z" fill="black"/>
<path d="M110.84 78.5112H106.221V83.1295H110.84V78.5112Z" fill="black"/>
<path d="M41.5648 83.1294H36.9465V87.7477H41.5648V83.1294Z" fill="black"/>
<path d="M50.8014 83.1294H46.1831V87.7477H50.8014V83.1294Z" fill="black"/>
<path d="M55.4196 83.1294H50.8013V87.7477H55.4196V83.1294Z" fill="black"/>
<path d="M78.5111 83.1294H73.8928V87.7477H78.5111V83.1294Z" fill="black"/>
<path d="M87.748 83.1294H83.1296V87.7477H87.748V83.1294Z" fill="black"/>
<path d="M96.9845 83.1294H92.3662V87.7477H96.9845V83.1294Z" fill="black"/>
<path d="M115.458 83.1294H110.839V87.7477H115.458V83.1294Z" fill="black"/>
<path d="M41.5648 87.7478H36.9465V92.3661H41.5648V87.7478Z" fill="black"/>
<path d="M46.183 87.7478H41.5647V92.3661H46.183V87.7478Z" fill="black"/>
<path d="M55.4196 87.7478H50.8013V92.3661H55.4196V87.7478Z" fill="black"/>
<path d="M60.038 87.7478H55.4197V92.3661H60.038V87.7478Z" fill="black"/>
<path d="M64.6564 87.7478H60.0381V92.3661H64.6564V87.7478Z" fill="black"/>
<path d="M73.893 87.7478H69.2747V92.3661H73.893V87.7478Z" fill="black"/>
<path d="M78.5111 87.7478H73.8928V92.3661H78.5111V87.7478Z" fill="black"/>
<path d="M96.9845 87.7478H92.3662V92.3661H96.9845V87.7478Z" fill="black"/>
<path d="M41.5648 92.3662H36.9465V96.9845H41.5648V92.3662Z" fill="black"/>
<path d="M46.183 92.3662H41.5647V96.9845H46.183V92.3662Z" fill="black"/>
<path d="M69.2746 92.3662H64.6562V96.9845H69.2746V92.3662Z" fill="black"/>
<path d="M73.893 92.3662H69.2747V96.9845H73.893V92.3662Z" fill="black"/>
<path d="M78.5111 92.3662H73.8928V96.9845H78.5111V92.3662Z" fill="black"/>
<path d="M83.1295 92.3662H78.5112V96.9845H83.1295V92.3662Z" fill="black"/>
<path d="M87.748 92.3662H83.1296V96.9845H87.748V92.3662Z" fill="black"/>
<path d="M92.3661 92.3662H87.7478V96.9845H92.3661V92.3662Z" fill="black"/>
<path d="M96.9845 92.3662H92.3662V96.9845H96.9845V92.3662Z" fill="black"/>
<path d="M41.5648 96.9844H36.9465V101.603H41.5648V96.9844Z" fill="black"/>
<path d="M55.4196 96.9844H50.8013V101.603H55.4196V96.9844Z" fill="black"/>
<path d="M73.893 96.9844H69.2747V101.603H73.893V96.9844Z" fill="black"/>
<path d="M83.1295 96.9844H78.5112V101.603H83.1295V96.9844Z" fill="black"/>
<path d="M87.748 96.9844H83.1296V101.603H87.748V96.9844Z" fill="black"/>
<path d="M110.84 96.9844H106.221V101.603H110.84V96.9844Z" fill="black"/>
<path d="M115.458 96.9844H110.839V101.603H115.458V96.9844Z" fill="black"/>
<path d="M55.4196 101.603H50.8013V106.221H55.4196V101.603Z" fill="black"/>
<path d="M60.038 101.603H55.4197V106.221H60.038V101.603Z" fill="black"/>
<path d="M78.5111 101.603H73.8928V106.221H78.5111V101.603Z" fill="black"/>
<path d="M83.1295 101.603H78.5112V106.221H83.1295V101.603Z" fill="black"/>
<path d="M96.9845 101.603H92.3662V106.221H96.9845V101.603Z" fill="black"/>
<path d="M101.603 101.603H96.9846V106.221H101.603V101.603Z" fill="black"/>
<path d="M106.221 101.603H101.603V106.221H106.221V101.603Z" fill="black"/>
<path d="M110.84 101.603H106.221V106.221H110.84V101.603Z" fill="black"/>
<path d="M115.458 101.603H110.839V106.221H115.458V101.603Z" fill="black"/>
<path d="M50.8014 106.221H46.1831V110.84H50.8014V106.221Z" fill="black"/>
<path d="M60.038 106.221H55.4197V110.84H60.038V106.221Z" fill="black"/>
<path d="M69.2746 106.221H64.6562V110.84H69.2746V106.221Z" fill="black"/>
<path d="M83.1295 106.221H78.5112V110.84H83.1295V106.221Z" fill="black"/>
<path d="M87.748 106.221H83.1296V110.84H87.748V106.221Z" fill="black"/>
<path d="M92.3661 106.221H87.7478V110.84H92.3661V106.221Z" fill="black"/>
<path d="M96.9845 106.221H92.3662V110.84H96.9845V106.221Z" fill="black"/>
<path d="M106.221 106.221H101.603V110.84H106.221V106.221Z" fill="black"/>
<path d="M110.84 106.221H106.221V110.84H110.84V106.221Z" fill="black"/>
<path d="M115.458 106.221H110.839V110.84H115.458V106.221Z" fill="black"/>
<path d="M41.5648 110.839H36.9465V115.458H41.5648V110.839Z" fill="black"/>
<path d="M46.183 110.839H41.5647V115.458H46.183V110.839Z" fill="black"/>
<path d="M55.4196 110.839H50.8013V115.458H55.4196V110.839Z" fill="black"/>
<path d="M78.5111 110.839H73.8928V115.458H78.5111V110.839Z" fill="black"/>
<path d="M101.603 110.839H96.9846V115.458H101.603V110.839Z" fill="black"/>
<path d="M115.458 110.839H110.839V115.458H115.458V110.839Z" fill="black"/>
<path d="M27.4789 0H4.84923H0V4.84923V27.4789V32.3282H4.84923H27.4789H32.3282V27.4789V4.84923V0H27.4789ZM27.4789 27.4789H4.84923V4.84923H27.4789V27.4789Z" fill="black"/>
<path d="M110.609 0H87.9789H83.1296V4.84923V27.4789V32.3282H87.9789H110.609H115.458V27.4789V4.84923V0H110.609ZM110.609 27.4789H87.9789V4.84923H110.609V27.4789Z" fill="black"/>
<path d="M27.4789 83.1294H4.84923H0V87.9786V110.608V115.458H4.84923H27.4789H32.3282V110.608V87.9786V83.1294H27.4789ZM27.4789 110.608H4.84923V87.9786H27.4789V110.608Z" fill="black"/>
<path d="M23.0915 9.23657H9.23657V23.0915H23.0915V9.23657Z" fill="black"/>
<path d="M106.221 9.23657H92.3662V23.0915H106.221V9.23657Z" fill="black"/>
<path d="M23.0915 92.3662H9.23657V106.221H23.0915V92.3662Z" fill="black"/>
</svg>
