<svg width="39" height="39" viewBox="0 0 39 39" fill="none" xmlns="http://www.w3.org/2000/svg">
<path d="M19.2039 38.4574C8.57615 38.4386 -0.0209888 29.8032 3.84899e-05 19.1724C0.0233187 8.57016 8.66401 -0.023233 19.2775 4.71894e-05C29.891 0.0233274 38.4814 8.65352 38.4626 19.2648C38.4439 29.876 29.8129 38.4754 19.2039 38.4574ZM18.7278 10.7277L18.7241 10.8201C18.5866 10.8201 18.4484 10.8141 18.311 10.8201C15.6879 10.944 13.0617 11.0296 10.4416 11.2098C8.94714 11.3127 7.9153 12.2567 7.66822 13.7286C7.45742 15.0491 7.32078 16.3804 7.25895 17.7163C7.12738 19.9666 7.23892 22.2246 7.59162 24.451C7.85296 26.0543 8.71808 26.9698 10.3207 27.2086C11.5049 27.385 12.7088 27.4609 13.9073 27.5135C18.4372 27.7132 22.9656 27.7095 27.4872 27.3302C29.6485 27.1492 30.6277 26.2496 30.9304 24.1258C31.2369 21.981 31.329 19.811 31.2052 17.6479C31.1388 16.3003 30.9949 14.9576 30.7742 13.6265C30.5489 12.3498 29.692 11.5748 28.4251 11.2864C28.0474 11.1981 27.6627 11.1429 27.2754 11.1212C24.4262 10.983 21.577 10.8576 18.7278 10.7277Z" fill="#FF5500"/>
<path d="M16.8516 22.8246V15.6348L23.0952 19.2289L16.8516 22.8246Z" fill="#FF5500"/>
</svg>
