<svg width="65" height="62" viewBox="0 0 65 62" fill="none" xmlns="http://www.w3.org/2000/svg">
<path d="M1.5 7.5L36 1L37.5 3V8.5C58.3 7.7 63.1667 8.16667 63 8.5L64 10.5L63.5 54L37.5 54.4906V60.5H29.5L1.5 55.5V7.5Z" fill="white"/>
<path d="M50.5655 32.1817C53.4197 32.1817 56.2765 32.2053 59.1307 32.1817C60.3204 32.1659 60.8005 32.6654 60.7636 33.8378C60.7161 35.3678 60.7161 36.903 60.7636 38.4329C60.7979 39.6395 60.2122 40.0602 59.078 40.0575C53.3221 40.0418 47.568 40.0418 41.8157 40.0575C40.6497 40.0575 40.1301 39.5107 40.1406 38.3751C40.1406 36.8872 40.1617 35.3993 40.1406 33.9062C40.1221 32.7074 40.6233 32.1554 41.8763 32.1738C44.7675 32.2106 47.6665 32.1817 50.5655 32.1817ZM42.5727 37.639H58.3156V34.6107H42.5727V37.639Z" fill="black"/>
<path d="M50.5655 29.8184C47.6639 29.8184 44.7622 29.7868 41.8605 29.8342C40.6049 29.8552 40.1037 29.3084 40.1222 28.1123C40.1485 26.6244 40.1406 25.1365 40.1222 23.6434C40.1222 22.5051 40.6365 21.9636 41.7998 21.9662C47.5539 21.9767 53.3072 21.9767 59.0595 21.9662C60.3019 21.9662 60.7979 22.492 60.7504 23.7196C60.695 25.2049 60.7003 26.698 60.7504 28.1885C60.7873 29.361 60.3072 29.8552 59.1175 29.8368C56.2765 29.7921 53.4197 29.8184 50.5655 29.8184ZM58.3473 24.3899H42.6202V27.3841H58.3473V24.3899Z" fill="black"/>
<path d="M50.5655 19.6976C47.6639 19.6976 44.7622 19.6634 41.8605 19.7134C40.6049 19.7318 40.1037 19.1876 40.1222 17.9889C40.1485 16.501 40.1406 15.0131 40.1222 13.52C40.1222 12.3817 40.6365 11.8402 41.7998 11.8428C47.5539 11.8551 53.3072 11.8551 59.0595 11.8428C60.3019 11.8428 60.7979 12.3685 60.7504 13.5962C60.695 15.0841 60.7003 16.5746 60.7504 18.0651C60.7873 19.2376 60.3072 19.7318 59.1175 19.716C56.2765 19.6687 53.4197 19.6976 50.5655 19.6976ZM58.3473 14.2665H42.6202V17.2607H58.3473V14.2665Z" fill="black"/>
<path d="M50.431 50.1941C47.6243 50.1941 44.8149 50.1941 42.0056 50.1941C40.4888 50.1941 40.1591 49.8392 40.1406 48.3303C40.1406 46.8871 40.1565 45.4386 40.1406 44.0007C40.1248 42.8467 40.6682 42.3445 41.821 42.3472C47.6137 42.3647 53.4074 42.3647 59.2019 42.3472C60.3046 42.3472 60.7979 42.8204 60.7662 43.9402C60.724 45.4702 60.7187 47.0028 60.7662 48.5327C60.8058 49.713 60.2808 50.2073 59.1254 50.1994C56.2264 50.1836 53.33 50.1941 50.431 50.1941ZM58.3446 44.7499H42.5912V47.8703H58.342L58.3446 44.7499Z" fill="black"/>
<path d="M18.5232 27.9966L24.0284 20.0024H27.0488L20.1666 29.729L27.3865 39.7867H24.1973L18.3781 31.4797L12.6618 39.7788H9.63881L16.7136 29.75L9.73378 20.0024H12.9256L18.5232 27.9966Z" fill="black"/>
<path d="M64.5252 7.29222C64.3453 7.10151 64.1284 6.94931 63.8875 6.84491C63.6467 6.74051 63.3871 6.68609 63.1245 6.68497H38.2493C38.2493 5.23125 38.2862 3.92737 38.2493 2.62349C38.178 0.814883 37.0015 -0.205087 35.1972 0.0341333C32.9735 0.325929 30.7814 0.712361 28.5762 1.05147C22.7728 1.9698 16.9695 2.88812 11.1661 3.80645C8.15105 4.29803 5.11749 4.75807 2.1103 5.32589C0.596161 5.6098 0 6.41158 0 7.88633C0 23.3086 0 38.7308 0 54.153C0 55.5252 0.638367 56.4085 1.99688 56.6661C3.45562 56.9422 4.92228 57.1919 6.38631 57.4232L12.7172 58.4511L12.8729 58.48C20.1877 59.6314 27.5025 60.7986 34.82 61.9342C37.1176 62.2891 38.2493 61.3007 38.2651 59.0031C38.2651 57.7991 38.2651 56.5952 38.2651 55.3228H63.2564C63.6528 55.3241 64.0428 55.2226 64.388 55.0284C64.5312 54.9502 64.6575 54.8449 64.7599 54.7182C64.8957 54.5378 64.9771 54.3226 64.9947 54.0978C64.9947 38.9174 64.9947 23.737 64.9947 8.55667C64.9995 8.09199 64.8323 7.64185 64.5252 7.29222ZM35.7512 59.7497L33.2848 59.3554C26.9697 58.3407 20.6546 57.3347 14.3395 56.3375L7.95321 55.3228L7.79757 55.2939L7.38606 55.2334C5.75585 54.9969 4.12301 54.7077 2.37409 54.4212V7.5919L35.7512 2.23706V59.7497ZM62.7446 46.3928V52.9648H38.36V9.09031H62.7446V10.778C62.7446 19.4916 62.7446 28.2069 62.7446 36.9239V44.8629C62.7472 45.365 62.7446 45.8776 62.7446 46.3928Z" fill="black"/>
</svg>
