<svg width="65" height="59" viewBox="0 0 65 59" fill="none" xmlns="http://www.w3.org/2000/svg">
<g clip-path="url(#clip0_15_50)">
<path d="M1.15677 8.82258L10.742 1.32568H59.6952V11.3927H63.9222L63.405 57.0013L9.40184 57.6185L9.29737 48.6816L1.15677 54.4338V8.82258Z" fill="white"/>
<path d="M28.0144 13.6529H33.8032V33.7869H28.0144V36.8674H42.6853V33.7869H36.8964V13.6529H42.6853V10.5698H28.0144V13.6529Z" fill="black"/>
<path d="M61.0838 10.5698V0H9.87055L-0.0102844 8.26641L0.0202894 56.8134L7.73284 50.3197L7.66404 59H64.9923V10.5698H61.0838ZM12.5153 2.44313H58.5639V45.9617H12.5153V2.44313ZM9.9954 45.2252L2.48412 51.5082L2.46374 9.41177L9.99795 3.10847L9.9954 45.2252ZM62.4826 56.5315H10.1559L10.2222 48.4175H61.0838V13.0256H62.48L62.4826 56.5315Z" fill="black"/>
</g>
<defs>
<clipPath id="clip0_15_50">
<rect width="65" height="59" fill="white"/>
</clipPath>
</defs>
</svg>
