<svg width="176" height="105" viewBox="0 0 176 105" fill="none" xmlns="http://www.w3.org/2000/svg">
<path d="M175.007 69.3341L32.7095 23.8427L32.5191 24.439L174.816 69.9305L175.007 69.3341Z" fill="#1E268E"/>
<path d="M59.3379 85.3924L11.1904 70L11 70.5963L59.1475 85.9888L59.3379 85.3924Z" fill="#1E268E"/>
<path d="M124.738 53.5805L19.7979 104.315L20.0701 104.878L125.01 54.1443L124.738 53.5805Z" fill="#1E268E"/>
<path d="M174.706 0.235761L88.5275 41.8995L88.7998 42.4632L174.978 0.799472L174.706 0.235761Z" fill="#1E268E"/>
<path d="M103.452 16.3896L65.8721 34.5577L66.1444 35.1215L103.724 16.9533L103.452 16.3896Z" fill="#1E268E"/>
<path d="M108.526 18.7007C112.273 18.7007 115.311 16.695 115.311 14.2208C115.311 11.7466 112.273 9.74084 108.526 9.74084C104.778 9.74084 101.74 11.7466 101.74 14.2208C101.74 16.695 104.778 18.7007 108.526 18.7007Z" fill="#FF5500"/>
<path d="M6.78546 71.9599C10.533 71.9599 13.5709 69.9541 13.5709 67.4799C13.5709 65.0057 10.533 63 6.78546 63C3.03795 63 0 65.0057 0 67.4799C0 69.9541 3.03795 71.9599 6.78546 71.9599Z" fill="black"/>
</svg>
