<svg width="30" height="31" viewBox="0 0 30 31" fill="none" xmlns="http://www.w3.org/2000/svg">
<path d="M14.9824 0.250092C23.2147 0.22134 29.9806 6.94495 30 15.1849C30.0193 23.4467 23.4447 30.1353 15.2143 30.2485C6.87259 30.3654 0.0648443 23.7199 0.000460944 15.3974C-0.0639224 7.00995 6.62444 0.278844 14.9824 0.250092ZM15.64 19.4446C16.9964 20.4709 18.3416 21.4553 19.6455 22.4923C20.2293 22.9561 20.9357 22.7886 21.1119 21.971C22.0414 17.6582 22.9959 13.3529 23.9492 9.04635C24.0436 8.62069 23.9842 8.25629 23.6479 7.97064C23.3116 7.685 22.934 7.70375 22.534 7.85751C17.1833 9.90933 11.8316 11.9578 6.47879 14.0029C6.20188 14.1086 6.00123 14.2705 5.99936 14.5849C5.99936 14.9161 6.20814 15.0849 6.49942 15.1818C7.74959 15.6031 9.0035 16.0231 10.2499 16.4587C10.3388 16.4955 10.4356 16.509 10.5311 16.4981C10.6267 16.4871 10.7179 16.4521 10.7962 16.3962C13.8829 14.5011 16.9729 12.611 20.0662 10.7258C20.1509 10.6654 20.2408 10.6127 20.335 10.5683C20.3918 10.5458 20.4662 10.5683 20.5331 10.5721C20.5194 10.6458 20.5287 10.7365 20.4875 10.7883C20.3978 10.8897 20.3002 10.9838 20.1956 11.0696C17.8965 13.1868 15.5985 15.3049 13.3016 17.4238C13.1965 17.5213 13.0878 17.6707 13.0759 17.8038C12.9765 18.9552 12.8984 20.109 12.8152 21.2616C12.8021 21.4491 12.7684 21.691 12.9971 21.7322C13.1428 21.7585 13.3559 21.6629 13.4728 21.5522C14.201 20.8672 14.9086 20.1615 15.6406 19.4446H15.64Z" fill="white"/>
</svg>
