<svg width="116" height="116" viewBox="0 0 116 116" fill="none" xmlns="http://www.w3.org/2000/svg">
<path d="M46.4 0H41.76V4.63999H46.4V0Z" fill="black"/>
<path d="M55.6798 0H51.0398V4.63999H55.6798V0Z" fill="black"/>
<path d="M69.6 0H64.96V4.63999H69.6V0Z" fill="black"/>
<path d="M74.2398 0H69.5999V4.63999H74.2398V0Z" fill="black"/>
<path d="M51.0399 4.63989H46.3999V9.27989H51.0399V4.63989Z" fill="black"/>
<path d="M60.3199 4.63989H55.6799V9.27989H60.3199V4.63989Z" fill="black"/>
<path d="M69.6 4.63989H64.96V9.27989H69.6V4.63989Z" fill="black"/>
<path d="M74.2398 4.63989H69.5999V9.27989H74.2398V4.63989Z" fill="black"/>
<path d="M46.4 9.27979H41.76V13.9198H46.4V9.27979Z" fill="black"/>
<path d="M51.0399 9.27979H46.3999V13.9198H51.0399V9.27979Z" fill="black"/>
<path d="M55.6798 9.27979H51.0398V13.9198H55.6798V9.27979Z" fill="black"/>
<path d="M60.3199 9.27979H55.6799V13.9198H60.3199V9.27979Z" fill="black"/>
<path d="M78.8797 9.27979H74.2397V13.9198H78.8797V9.27979Z" fill="black"/>
<path d="M46.4 13.9202H41.76V18.5602H46.4V13.9202Z" fill="black"/>
<path d="M51.0399 13.9202H46.3999V18.5602H51.0399V13.9202Z" fill="black"/>
<path d="M69.6 13.9202H64.96V18.5602H69.6V13.9202Z" fill="black"/>
<path d="M51.0399 18.5601H46.3999V23.2001H51.0399V18.5601Z" fill="black"/>
<path d="M55.6798 18.5601H51.0398V23.2001H55.6798V18.5601Z" fill="black"/>
<path d="M60.3199 18.5601H55.6799V23.2001H60.3199V18.5601Z" fill="black"/>
<path d="M64.9598 18.5601H60.3198V23.2001H64.9598V18.5601Z" fill="black"/>
<path d="M69.6 18.5601H64.96V23.2001H69.6V18.5601Z" fill="black"/>
<path d="M74.2398 18.5601H69.5999V23.2001H74.2398V18.5601Z" fill="black"/>
<path d="M78.8797 18.5601H74.2397V23.2001H78.8797V18.5601Z" fill="black"/>
<path d="M41.7599 23.2H37.1199V27.8399H41.7599V23.2Z" fill="black"/>
<path d="M46.4 23.2H41.76V27.8399H46.4V23.2Z" fill="black"/>
<path d="M55.6798 23.2H51.0398V27.8399H55.6798V23.2Z" fill="black"/>
<path d="M60.3199 23.2H55.6799V27.8399H60.3199V23.2Z" fill="black"/>
<path d="M69.6 23.2H64.96V27.8399H69.6V23.2Z" fill="black"/>
<path d="M74.2398 23.2H69.5999V27.8399H74.2398V23.2Z" fill="black"/>
<path d="M78.8797 23.2H74.2397V27.8399H78.8797V23.2Z" fill="black"/>
<path d="M41.7599 27.8401H37.1199V32.4801H41.7599V27.8401Z" fill="black"/>
<path d="M51.0399 27.8401H46.3999V32.4801H51.0399V27.8401Z" fill="black"/>
<path d="M60.3199 27.8401H55.6799V32.4801H60.3199V27.8401Z" fill="black"/>
<path d="M69.6 27.8401H64.96V32.4801H69.6V27.8401Z" fill="black"/>
<path d="M78.8797 27.8401H74.2397V32.4801H78.8797V27.8401Z" fill="black"/>
<path d="M46.4 32.48H41.76V37.12H46.4V32.48Z" fill="black"/>
<path d="M51.0399 32.48H46.3999V37.12H51.0399V32.48Z" fill="black"/>
<path d="M55.6798 32.48H51.0398V37.12H55.6798V32.48Z" fill="black"/>
<path d="M69.6 32.48H64.96V37.12H69.6V32.48Z" fill="black"/>
<path d="M74.2398 32.48H69.5999V37.12H74.2398V32.48Z" fill="black"/>
<path d="M4.63999 37.1199H0V41.7599H4.63999V37.1199Z" fill="black"/>
<path d="M18.5599 37.1199H13.9199V41.7599H18.5599V37.1199Z" fill="black"/>
<path d="M27.8399 37.1199H23.2V41.7599H27.8399V37.1199Z" fill="black"/>
<path d="M32.4801 37.1199H27.8401V41.7599H32.4801V37.1199Z" fill="black"/>
<path d="M41.7599 37.1199H37.1199V41.7599H41.7599V37.1199Z" fill="black"/>
<path d="M46.4 37.1199H41.76V41.7599H46.4V37.1199Z" fill="black"/>
<path d="M51.0399 37.1199H46.3999V41.7599H51.0399V37.1199Z" fill="black"/>
<path d="M55.6798 37.1199H51.0398V41.7599H55.6798V37.1199Z" fill="black"/>
<path d="M64.9598 37.1199H60.3198V41.7599H64.9598V37.1199Z" fill="black"/>
<path d="M69.6 37.1199H64.96V41.7599H69.6V37.1199Z" fill="black"/>
<path d="M83.5199 37.1199H78.8799V41.7599H83.5199V37.1199Z" fill="black"/>
<path d="M92.7999 37.1199H88.1599V41.7599H92.7999V37.1199Z" fill="black"/>
<path d="M4.63999 41.7598H0V46.3998H4.63999V41.7598Z" fill="black"/>
<path d="M9.28013 41.7598H4.64014V46.3998H9.28013V41.7598Z" fill="black"/>
<path d="M27.8399 41.7598H23.2V46.3998H27.8399V41.7598Z" fill="black"/>
<path d="M41.7599 41.7598H37.1199V46.3998H41.7599V41.7598Z" fill="black"/>
<path d="M51.0399 41.7598H46.3999V46.3998H51.0399V41.7598Z" fill="black"/>
<path d="M55.6798 41.7598H51.0398V46.3998H55.6798V41.7598Z" fill="black"/>
<path d="M78.8797 41.7598H74.2397V46.3998H78.8797V41.7598Z" fill="black"/>
<path d="M83.5199 41.7598H78.8799V46.3998H83.5199V41.7598Z" fill="black"/>
<path d="M88.1598 41.7598H83.5198V46.3998H88.1598V41.7598Z" fill="black"/>
<path d="M92.7999 41.7598H88.1599V46.3998H92.7999V41.7598Z" fill="black"/>
<path d="M116 41.7598H111.36V46.3998H116V41.7598Z" fill="black"/>
<path d="M4.63999 46.4001H0V51.0401H4.63999V46.4001Z" fill="black"/>
<path d="M9.28013 46.4001H4.64014V51.0401H9.28013V46.4001Z" fill="black"/>
<path d="M13.92 46.4001H9.28003V51.0401H13.92V46.4001Z" fill="black"/>
<path d="M18.5599 46.4001H13.9199V51.0401H18.5599V46.4001Z" fill="black"/>
<path d="M32.4801 46.4001H27.8401V51.0401H32.4801V46.4001Z" fill="black"/>
<path d="M46.4 46.4001H41.76V51.0401H46.4V46.4001Z" fill="black"/>
<path d="M51.0399 46.4001H46.3999V51.0401H51.0399V46.4001Z" fill="black"/>
<path d="M83.5199 46.4001H78.8799V51.0401H83.5199V46.4001Z" fill="black"/>
<path d="M92.7999 46.4001H88.1599V51.0401H92.7999V46.4001Z" fill="black"/>
<path d="M97.4398 46.4001H92.7998V51.0401H97.4398V46.4001Z" fill="black"/>
<path d="M111.36 46.4001H106.72V51.0401H111.36V46.4001Z" fill="black"/>
<path d="M116 46.4001H111.36V51.0401H116V46.4001Z" fill="black"/>
<path d="M9.28013 51.04H4.64014V55.68H9.28013V51.04Z" fill="black"/>
<path d="M13.92 51.04H9.28003V55.68H13.92V51.04Z" fill="black"/>
<path d="M46.4 51.04H41.76V55.68H46.4V51.04Z" fill="black"/>
<path d="M64.9598 51.04H60.3198V55.68H64.9598V51.04Z" fill="black"/>
<path d="M74.2398 51.04H69.5999V55.68H74.2398V51.04Z" fill="black"/>
<path d="M78.8797 51.04H74.2397V55.68H78.8797V51.04Z" fill="black"/>
<path d="M88.1598 51.04H83.5198V55.68H88.1598V51.04Z" fill="black"/>
<path d="M97.4398 51.04H92.7998V55.68H97.4398V51.04Z" fill="black"/>
<path d="M4.63999 55.6799H0V60.3199H4.63999V55.6799Z" fill="black"/>
<path d="M23.2001 55.6799H18.5601V60.3199H23.2001V55.6799Z" fill="black"/>
<path d="M27.8399 55.6799H23.2V60.3199H27.8399V55.6799Z" fill="black"/>
<path d="M32.4801 55.6799H27.8401V60.3199H32.4801V55.6799Z" fill="black"/>
<path d="M41.7599 55.6799H37.1199V60.3199H41.7599V55.6799Z" fill="black"/>
<path d="M51.0399 55.6799H46.3999V60.3199H51.0399V55.6799Z" fill="black"/>
<path d="M55.6798 55.6799H51.0398V60.3199H55.6798V55.6799Z" fill="black"/>
<path d="M64.9598 55.6799H60.3198V60.3199H64.9598V55.6799Z" fill="black"/>
<path d="M74.2398 55.6799H69.5999V60.3199H74.2398V55.6799Z" fill="black"/>
<path d="M78.8797 55.6799H74.2397V60.3199H78.8797V55.6799Z" fill="black"/>
<path d="M83.5199 55.6799H78.8799V60.3199H83.5199V55.6799Z" fill="black"/>
<path d="M88.1598 55.6799H83.5198V60.3199H88.1598V55.6799Z" fill="black"/>
<path d="M92.7999 55.6799H88.1599V60.3199H92.7999V55.6799Z" fill="black"/>
<path d="M102.08 55.6799H97.4399V60.3199H102.08V55.6799Z" fill="black"/>
<path d="M111.36 55.6799H106.72V60.3199H111.36V55.6799Z" fill="black"/>
<path d="M116 55.6799H111.36V60.3199H116V55.6799Z" fill="black"/>
<path d="M9.28013 60.3198H4.64014V64.9598H9.28013V60.3198Z" fill="black"/>
<path d="M23.2001 60.3198H18.5601V64.9598H23.2001V60.3198Z" fill="black"/>
<path d="M27.8399 60.3198H23.2V64.9598H27.8399V60.3198Z" fill="black"/>
<path d="M37.12 60.3198H32.48V64.9598H37.12V60.3198Z" fill="black"/>
<path d="M41.7599 60.3198H37.1199V64.9598H41.7599V60.3198Z" fill="black"/>
<path d="M51.0399 60.3198H46.3999V64.9598H51.0399V60.3198Z" fill="black"/>
<path d="M55.6798 60.3198H51.0398V64.9598H55.6798V60.3198Z" fill="black"/>
<path d="M69.6 60.3198H64.96V64.9598H69.6V60.3198Z" fill="black"/>
<path d="M83.5199 60.3198H78.8799V64.9598H83.5199V60.3198Z" fill="black"/>
<path d="M88.1598 60.3198H83.5198V64.9598H88.1598V60.3198Z" fill="black"/>
<path d="M92.7999 60.3198H88.1599V64.9598H92.7999V60.3198Z" fill="black"/>
<path d="M102.08 60.3198H97.4399V64.9598H102.08V60.3198Z" fill="black"/>
<path d="M106.72 60.3198H102.08V64.9598H106.72V60.3198Z" fill="black"/>
<path d="M116 60.3198H111.36V64.9598H116V60.3198Z" fill="black"/>
<path d="M4.63999 64.96H0V69.6H4.63999V64.96Z" fill="black"/>
<path d="M27.8399 64.96H23.2V69.6H27.8399V64.96Z" fill="black"/>
<path d="M32.4801 64.96H27.8401V69.6H32.4801V64.96Z" fill="black"/>
<path d="M41.7599 64.96H37.1199V69.6H41.7599V64.96Z" fill="black"/>
<path d="M46.4 64.96H41.76V69.6H46.4V64.96Z" fill="black"/>
<path d="M51.0399 64.96H46.3999V69.6H51.0399V64.96Z" fill="black"/>
<path d="M55.6798 64.96H51.0398V69.6H55.6798V64.96Z" fill="black"/>
<path d="M69.6 64.96H64.96V69.6H69.6V64.96Z" fill="black"/>
<path d="M78.8797 64.96H74.2397V69.6H78.8797V64.96Z" fill="black"/>
<path d="M92.7999 64.96H88.1599V69.6H92.7999V64.96Z" fill="black"/>
<path d="M97.4398 64.96H92.7998V69.6H97.4398V64.96Z" fill="black"/>
<path d="M106.72 64.96H102.08V69.6H106.72V64.96Z" fill="black"/>
<path d="M116 64.96H111.36V69.6H116V64.96Z" fill="black"/>
<path d="M9.28013 69.5999H4.64014V74.2398H9.28013V69.5999Z" fill="black"/>
<path d="M13.92 69.5999H9.28003V74.2398H13.92V69.5999Z" fill="black"/>
<path d="M18.5599 69.5999H13.9199V74.2398H18.5599V69.5999Z" fill="black"/>
<path d="M23.2001 69.5999H18.5601V74.2398H23.2001V69.5999Z" fill="black"/>
<path d="M27.8399 69.5999H23.2V74.2398H27.8399V69.5999Z" fill="black"/>
<path d="M51.0399 69.5999H46.3999V74.2398H51.0399V69.5999Z" fill="black"/>
<path d="M55.6798 69.5999H51.0398V74.2398H55.6798V69.5999Z" fill="black"/>
<path d="M64.9598 69.5999H60.3198V74.2398H64.9598V69.5999Z" fill="black"/>
<path d="M69.6 69.5999H64.96V74.2398H69.6V69.5999Z" fill="black"/>
<path d="M78.8797 69.5999H74.2397V74.2398H78.8797V69.5999Z" fill="black"/>
<path d="M97.4398 69.5999H92.7998V74.2398H97.4398V69.5999Z" fill="black"/>
<path d="M111.36 69.5999H106.72V74.2398H111.36V69.5999Z" fill="black"/>
<path d="M4.63999 74.2397H0V78.8797H4.63999V74.2397Z" fill="black"/>
<path d="M9.28013 74.2397H4.64014V78.8797H9.28013V74.2397Z" fill="black"/>
<path d="M18.5599 74.2397H13.9199V78.8797H18.5599V74.2397Z" fill="black"/>
<path d="M32.4801 74.2397H27.8401V78.8797H32.4801V74.2397Z" fill="black"/>
<path d="M37.12 74.2397H32.48V78.8797H37.12V74.2397Z" fill="black"/>
<path d="M46.4 74.2397H41.76V78.8797H46.4V74.2397Z" fill="black"/>
<path d="M51.0399 74.2397H46.3999V78.8797H51.0399V74.2397Z" fill="black"/>
<path d="M60.3199 74.2397H55.6799V78.8797H60.3199V74.2397Z" fill="black"/>
<path d="M78.8797 74.2397H74.2397V78.8797H78.8797V74.2397Z" fill="black"/>
<path d="M83.5199 74.2397H78.8799V78.8797H83.5199V74.2397Z" fill="black"/>
<path d="M88.1598 74.2397H83.5198V78.8797H88.1598V74.2397Z" fill="black"/>
<path d="M92.7999 74.2397H88.1599V78.8797H92.7999V74.2397Z" fill="black"/>
<path d="M97.4398 74.2397H92.7998V78.8797H97.4398V74.2397Z" fill="black"/>
<path d="M102.08 74.2397H97.4399V78.8797H102.08V74.2397Z" fill="black"/>
<path d="M106.72 74.2397H102.08V78.8797H106.72V74.2397Z" fill="black"/>
<path d="M41.7599 78.8796H37.1199V83.5196H41.7599V78.8796Z" fill="black"/>
<path d="M46.4 78.8796H41.76V83.5196H46.4V78.8796Z" fill="black"/>
<path d="M51.0399 78.8796H46.3999V83.5196H51.0399V78.8796Z" fill="black"/>
<path d="M60.3199 78.8796H55.6799V83.5196H60.3199V78.8796Z" fill="black"/>
<path d="M64.9598 78.8796H60.3198V83.5196H64.9598V78.8796Z" fill="black"/>
<path d="M74.2398 78.8796H69.5999V83.5196H74.2398V78.8796Z" fill="black"/>
<path d="M78.8797 78.8796H74.2397V83.5196H78.8797V78.8796Z" fill="black"/>
<path d="M97.4398 78.8796H92.7998V83.5196H97.4398V78.8796Z" fill="black"/>
<path d="M102.08 78.8796H97.4399V83.5196H102.08V78.8796Z" fill="black"/>
<path d="M116 78.8796H111.36V83.5196H116V78.8796Z" fill="black"/>
<path d="M46.4 83.52H41.76V88.16H46.4V83.52Z" fill="black"/>
<path d="M51.0399 83.52H46.3999V88.16H51.0399V83.52Z" fill="black"/>
<path d="M55.6798 83.52H51.0398V88.16H55.6798V83.52Z" fill="black"/>
<path d="M60.3199 83.52H55.6799V88.16H60.3199V83.52Z" fill="black"/>
<path d="M64.9598 83.52H60.3198V88.16H64.9598V83.52Z" fill="black"/>
<path d="M69.6 83.52H64.96V88.16H69.6V83.52Z" fill="black"/>
<path d="M74.2398 83.52H69.5999V88.16H74.2398V83.52Z" fill="black"/>
<path d="M78.8797 83.52H74.2397V88.16H78.8797V83.52Z" fill="black"/>
<path d="M88.1598 83.52H83.5198V88.16H88.1598V83.52Z" fill="black"/>
<path d="M97.4398 83.52H92.7998V88.16H97.4398V83.52Z" fill="black"/>
<path d="M102.08 83.52H97.4399V88.16H102.08V83.52Z" fill="black"/>
<path d="M111.36 83.52H106.72V88.16H111.36V83.52Z" fill="black"/>
<path d="M116 83.52H111.36V88.16H116V83.52Z" fill="black"/>
<path d="M41.7599 88.1599H37.1199V92.7999H41.7599V88.1599Z" fill="black"/>
<path d="M60.3199 88.1599H55.6799V92.7999H60.3199V88.1599Z" fill="black"/>
<path d="M78.8797 88.1599H74.2397V92.7999H78.8797V88.1599Z" fill="black"/>
<path d="M97.4398 88.1599H92.7998V92.7999H97.4398V88.1599Z" fill="black"/>
<path d="M102.08 88.1599H97.4399V92.7999H102.08V88.1599Z" fill="black"/>
<path d="M106.72 88.1599H102.08V92.7999H106.72V88.1599Z" fill="black"/>
<path d="M111.36 88.1599H106.72V92.7999H111.36V88.1599Z" fill="black"/>
<path d="M46.4 92.7998H41.76V97.4398H46.4V92.7998Z" fill="black"/>
<path d="M60.3199 92.7998H55.6799V97.4398H60.3199V92.7998Z" fill="black"/>
<path d="M64.9598 92.7998H60.3198V97.4398H64.9598V92.7998Z" fill="black"/>
<path d="M69.6 92.7998H64.96V97.4398H69.6V92.7998Z" fill="black"/>
<path d="M78.8797 92.7998H74.2397V97.4398H78.8797V92.7998Z" fill="black"/>
<path d="M83.5199 92.7998H78.8799V97.4398H83.5199V92.7998Z" fill="black"/>
<path d="M88.1598 92.7998H83.5198V97.4398H88.1598V92.7998Z" fill="black"/>
<path d="M92.7999 92.7998H88.1599V97.4398H92.7999V92.7998Z" fill="black"/>
<path d="M97.4398 92.7998H92.7998V97.4398H97.4398V92.7998Z" fill="black"/>
<path d="M102.08 92.7998H97.4399V97.4398H102.08V92.7998Z" fill="black"/>
<path d="M111.36 92.7998H106.72V97.4398H111.36V92.7998Z" fill="black"/>
<path d="M41.7599 97.4399H37.1199V102.08H41.7599V97.4399Z" fill="black"/>
<path d="M46.4 97.4399H41.76V102.08H46.4V97.4399Z" fill="black"/>
<path d="M55.6798 97.4399H51.0398V102.08H55.6798V97.4399Z" fill="black"/>
<path d="M64.9598 97.4399H60.3198V102.08H64.9598V97.4399Z" fill="black"/>
<path d="M69.6 97.4399H64.96V102.08H69.6V97.4399Z" fill="black"/>
<path d="M78.8797 97.4399H74.2397V102.08H78.8797V97.4399Z" fill="black"/>
<path d="M92.7999 97.4399H88.1599V102.08H92.7999V97.4399Z" fill="black"/>
<path d="M97.4398 97.4399H92.7998V102.08H97.4398V97.4399Z" fill="black"/>
<path d="M102.08 97.4399H97.4399V102.08H102.08V97.4399Z" fill="black"/>
<path d="M106.72 97.4399H102.08V102.08H106.72V97.4399Z" fill="black"/>
<path d="M51.0399 102.08H46.3999V106.72H51.0399V102.08Z" fill="black"/>
<path d="M69.6 102.08H64.96V106.72H69.6V102.08Z" fill="black"/>
<path d="M74.2398 102.08H69.5999V106.72H74.2398V102.08Z" fill="black"/>
<path d="M78.8797 102.08H74.2397V106.72H78.8797V102.08Z" fill="black"/>
<path d="M92.7999 102.08H88.1599V106.72H92.7999V102.08Z" fill="black"/>
<path d="M97.4398 102.08H92.7998V106.72H97.4398V102.08Z" fill="black"/>
<path d="M106.72 102.08H102.08V106.72H106.72V102.08Z" fill="black"/>
<path d="M116 102.08H111.36V106.72H116V102.08Z" fill="black"/>
<path d="M46.4 106.72H41.76V111.36H46.4V106.72Z" fill="black"/>
<path d="M60.3199 106.72H55.6799V111.36H60.3199V106.72Z" fill="black"/>
<path d="M64.9598 106.72H60.3198V111.36H64.9598V106.72Z" fill="black"/>
<path d="M74.2398 106.72H69.5999V111.36H74.2398V106.72Z" fill="black"/>
<path d="M78.8797 106.72H74.2397V111.36H78.8797V106.72Z" fill="black"/>
<path d="M83.5199 106.72H78.8799V111.36H83.5199V106.72Z" fill="black"/>
<path d="M102.08 106.72H97.4399V111.36H102.08V106.72Z" fill="black"/>
<path d="M41.7599 111.36H37.1199V116H41.7599V111.36Z" fill="black"/>
<path d="M46.4 111.36H41.76V116H46.4V111.36Z" fill="black"/>
<path d="M60.3199 111.36H55.6799V116H60.3199V111.36Z" fill="black"/>
<path d="M64.9598 111.36H60.3198V116H64.9598V111.36Z" fill="black"/>
<path d="M78.8797 111.36H74.2397V116H78.8797V111.36Z" fill="black"/>
<path d="M83.5199 111.36H78.8799V116H83.5199V111.36Z" fill="black"/>
<path d="M88.1598 111.36H83.5198V116H88.1598V111.36Z" fill="black"/>
<path d="M92.7999 111.36H88.1599V116H92.7999V111.36Z" fill="black"/>
<path d="M111.36 111.36H106.72V116H111.36V111.36Z" fill="black"/>
<path d="M116 111.36H111.36V116H116V111.36Z" fill="black"/>
<path d="M27.608 0H4.87199H0V4.87199V27.608V32.48H4.87199H27.608H32.48V27.608V4.87199V0H27.608ZM27.608 27.608H4.87199V4.87199H27.608V27.608Z" fill="black"/>
<path d="M111.128 0H88.3918H83.5198V4.87199V27.608V32.48H88.3918H111.128H116V27.608V4.87199V0H111.128ZM111.128 27.608H88.3918V4.87199H111.128V27.608Z" fill="black"/>
<path d="M27.608 83.52H4.87199H0V88.392V111.128V116H4.87199H27.608H32.48V111.128V88.392V83.52H27.608ZM27.608 111.128H4.87199V88.392H27.608V111.128Z" fill="black"/>
<path d="M23.2 9.27979H9.28003V23.1998H23.2V9.27979Z" fill="black"/>
<path d="M106.72 9.27979H92.7998V23.1998H106.72V9.27979Z" fill="black"/>
<path d="M23.2 92.7998H9.28003V106.72H23.2V92.7998Z" fill="black"/>
</svg>
