<svg width="30" height="30" viewBox="0 0 30 30" fill="none" xmlns="http://www.w3.org/2000/svg">
<path d="M14.7253 0.00252007C23.035 -0.148059 29.8413 6.46864 29.9972 14.689C30.156 23.0218 23.5916 29.8254 15.3182 29.9959C13.3413 30.0421 11.3747 29.6961 9.53223 28.9778C7.68975 28.2595 6.00785 27.1833 4.5837 25.8112C3.15955 24.4391 2.02138 22.7985 1.23495 20.984C0.448528 19.1695 0.0294278 17.2171 0.001869 15.2397C-0.127613 6.89987 6.4871 0.167161 14.7253 0.00252007ZM16.6394 12.6699C16.6394 12.1332 16.6599 11.5954 16.6336 11.0604C16.6072 10.5255 16.3512 10.2296 15.8186 10.205C14.8156 10.1587 13.8102 10.1581 12.8059 10.1599C12.6485 10.1565 12.4922 10.1867 12.3473 10.2484C12.2025 10.3102 12.0724 10.402 11.9658 10.5179C11.739 10.7657 11.7812 10.9134 12.1052 11.0083C12.6185 11.1583 12.8587 11.4249 12.8845 11.9387C12.9173 12.592 12.943 13.2465 12.9307 13.8998C12.9231 14.2566 12.8464 14.6157 12.7661 14.9661C12.6794 15.3417 12.4527 15.4114 12.1439 15.17C11.9911 15.0504 11.8534 14.9127 11.7338 14.7599C10.9137 13.7121 10.2514 12.5498 9.7681 11.31C9.57475 10.812 9.23083 10.5683 8.69826 10.5677C7.85868 10.5677 7.01909 10.553 6.17892 10.5536C5.68502 10.5536 5.48933 10.8466 5.69264 11.3071C6.70799 13.5922 7.83817 15.8151 9.37496 17.8107C11.0108 19.9329 13.1124 21.0391 15.8338 20.8246C16.3734 20.7825 16.5674 20.5762 16.6441 20.0466C16.7024 19.6322 16.784 19.2214 16.8884 18.8161C17.0027 18.3814 17.3572 18.2636 17.7239 18.5232C17.8896 18.6438 18.044 18.7793 18.185 18.928C18.5951 19.3487 18.99 19.7788 19.3955 20.2018C19.5949 20.4176 19.8375 20.589 20.1075 20.7049C20.3775 20.8208 20.6689 20.8786 20.9627 20.8745C21.3629 20.8745 21.7631 20.9014 22.1632 20.9002C22.6606 20.9002 23.1592 20.9061 23.6555 20.8639C24.2771 20.8112 24.539 20.2997 24.259 19.7431C24.2127 19.6572 24.1618 19.5739 24.1066 19.4935C23.4815 18.5232 22.6325 17.7539 21.8246 16.9477C21.1906 16.3155 21.1748 16.111 21.6974 15.3716C21.7425 15.3077 21.79 15.2456 21.8363 15.1829C22.373 14.4511 22.9354 13.7357 23.4381 12.981C23.7713 12.4791 24.0562 11.9467 24.2888 11.3909C24.4968 10.8958 24.3158 10.6228 23.782 10.6075C22.6606 10.5753 21.5375 10.5917 20.4155 10.594C20.1431 10.594 19.9579 10.7417 19.8513 10.9884C19.7931 11.1227 19.7367 11.2575 19.682 11.3926C19.1594 12.6764 18.4873 13.8699 17.5446 14.8964C17.3859 15.0722 17.2482 15.3393 16.9587 15.2479C16.6693 15.1565 16.6547 14.8495 16.6465 14.607C16.623 13.9572 16.6394 13.3133 16.6394 12.6699Z" fill="#4763D5"/>
</svg>
