<svg width="31" height="31" viewBox="0 0 31 31" fill="none" xmlns="http://www.w3.org/2000/svg">
<path d="M15.914 30.125C7.58885 30.1103 0.854408 23.3459 0.87088 15.0184C0.889116 6.7133 7.65767 -0.0181992 15.9716 3.69651e-05C24.2855 0.0182731 31.0147 6.7786 31 15.0908C30.9853 23.4029 24.2243 30.1391 15.914 30.125ZM15.541 8.40339L15.538 8.47574C15.4304 8.47574 15.3222 8.47104 15.2145 8.47574C13.1597 8.5728 11.1025 8.63986 9.0501 8.78105C7.87945 8.86164 7.07118 9.60109 6.87764 10.7541C6.7125 11.7885 6.60547 12.8314 6.55704 13.8778C6.45398 15.6405 6.54134 17.4093 6.81763 19.1533C7.02235 20.4093 7.70003 21.1263 8.95538 21.3134C9.88307 21.4517 10.8261 21.5111 11.7649 21.5522C15.3133 21.7087 18.8606 21.7058 22.4025 21.4087C24.0955 21.2669 24.8626 20.5622 25.0997 18.8986C25.3398 17.2185 25.4119 15.5186 25.315 13.8242C25.263 12.7686 25.1502 11.7168 24.9773 10.6741C24.8009 9.67403 24.1296 9.06694 23.1372 8.84105C22.8413 8.77189 22.54 8.72859 22.2366 8.71164C20.0047 8.6034 17.7729 8.50516 15.541 8.40339Z" fill="white"/>
<path d="M14.0715 17.8786V12.2466L18.9624 15.062L14.0715 17.8786Z" fill="white"/>
</svg>
