<svg width="584" height="244" viewBox="0 0 584 244" fill="none" xmlns="http://www.w3.org/2000/svg">
<g clip-path="url(#clip0_84_69)">
<path d="M447.734 230.258H2.26459C1.01389 230.258 0 231.273 0 232.525C0 233.777 1.01389 234.792 2.26459 234.792H447.734C448.984 234.792 449.998 233.777 449.998 232.525C449.998 231.273 448.984 230.258 447.734 230.258Z" fill="white"/>
<path d="M99.5961 201.254H43.4641V220.291H99.5961V201.254Z" fill="#333333"/>
<path d="M176.557 167.704H120.426V220.279H176.557V167.704Z" fill="#333333"/>
<path d="M253.519 135.984H197.387V220.291H253.519V135.984Z" fill="#333333"/>
<path d="M330.481 80.6812H274.349V220.291H330.481V80.6812Z" fill="#333333"/>
<path d="M568.608 9.96716H358.552V150.474H568.608V9.96716Z" fill="#333333"/>
<path d="M584 12.81H373.037V133.256H584V12.81Z" fill="white"/>
<path d="M584 0H373.037V12.81H584V0Z" fill="#138147"/>
<path d="M568.458 42.5043H552.307V46.3485H568.458V42.5043Z" fill="#BEFFA9"/>
<path d="M568.458 36.0936H552.307V39.9377H568.458V36.0936Z" fill="#BEFFA9"/>
<path d="M568.458 55.3143H552.307V59.1585H568.458V55.3143Z" fill="#BEFFA9"/>
<path d="M568.458 48.9036H552.307V52.7477H568.458V48.9036Z" fill="#BEFFA9"/>
<path d="M568.458 29.6943H552.307V33.5385H568.458V29.6943Z" fill="#BEFFA9"/>
<path d="M568.458 23.2836H552.307V27.1277H568.458V23.2836Z" fill="#BEFFA9"/>
<path d="M568.608 106.059H386.613V111.503H568.608V106.059Z" fill="#D6D4D2"/>
<path d="M406.534 22.662H386.613V100.627H406.534V22.662Z" stroke="#D6D4D2" stroke-width="0.5" stroke-miterlimit="10"/>
<path d="M426.456 22.662H406.534V100.627H426.456V22.662Z" stroke="#D6D4D2" stroke-width="0.5" stroke-miterlimit="10"/>
<path d="M446.377 22.662H426.456V100.627H446.377V22.662Z" stroke="#D6D4D2" stroke-width="0.5" stroke-miterlimit="10"/>
<path d="M466.299 22.662H446.377V100.627H466.299V22.662Z" stroke="#D6D4D2" stroke-width="0.5" stroke-miterlimit="10"/>
<path d="M486.22 22.662H466.299V100.627H486.22V22.662Z" stroke="#D6D4D2" stroke-width="0.5" stroke-miterlimit="10"/>
<path d="M506.142 22.662H486.22V100.627H506.142V22.662Z" stroke="#D6D4D2" stroke-width="0.5" stroke-miterlimit="10"/>
<path d="M526.052 22.662H506.13V100.627H526.052V22.662Z" stroke="#D6D4D2" stroke-width="0.5" stroke-miterlimit="10"/>
<path d="M545.973 22.662H526.052V100.627H545.973V22.662Z" stroke="#D6D4D2" stroke-width="0.5" stroke-miterlimit="10"/>
<path d="M386.613 90.8785V100.627L545.973 100.627V90.8785L386.613 90.8785Z" stroke="#D6D4D2" stroke-width="0.5" stroke-miterlimit="10"/>
<path d="M386.613 81.13V90.8785L545.973 90.8785V81.13L386.613 81.13Z" stroke="#D6D4D2" stroke-width="0.5" stroke-miterlimit="10"/>
<path d="M386.624 71.393V81.1415L545.985 81.1415V71.393L386.624 71.393Z" stroke="#D6D4D2" stroke-width="0.5" stroke-miterlimit="10"/>
<path d="M386.613 61.6445V71.393L545.973 71.393V61.6445L386.613 61.6445Z" stroke="#D6D4D2" stroke-width="0.5" stroke-miterlimit="10"/>
<path d="M386.613 51.896V61.6445L545.973 61.6445V51.896L386.613 51.896Z" stroke="#D6D4D2" stroke-width="0.5" stroke-miterlimit="10"/>
<path d="M386.624 42.1591V51.9075L545.985 51.9075V42.1591L386.624 42.1591Z" stroke="#D6D4D2" stroke-width="0.5" stroke-miterlimit="10"/>
<path d="M386.624 32.4106V42.1591L545.985 42.1591V32.4106L386.624 32.4106Z" stroke="#D6D4D2" stroke-width="0.5" stroke-miterlimit="10"/>
<path d="M386.613 22.6621V32.4105L545.973 32.4105V22.6621L386.613 22.6621Z" stroke="#D6D4D2" stroke-width="0.5" stroke-miterlimit="10"/>
<path d="M568.608 113.322H386.613V118.766H568.608V113.322Z" fill="#D6D4D2"/>
<path d="M568.608 120.573H386.613V126.017H568.608V120.573Z" fill="#D6D4D2"/>
<path d="M386.613 90.9245L406.615 73.4763L409.615 75.2832L413.616 70.2996L415.616 71.4506H424.617L432.606 65.3276L434.606 66.5706L443.607 59.2161L448.332 86.0676L454.838 78.4713L456.608 81.6479L498.44 52.1838L502.969 57.6277L519.258 41.3074L530.133 44.0236L545.973 37.3366" stroke="black" stroke-width="2" stroke-miterlimit="10"/>
<path d="M580.379 3.62549H574.942V9.06945H580.379V3.62549Z" fill="white"/>
<path d="M565.895 13.5927H560.458V19.0366H565.895V13.5927Z" fill="white"/>
<path d="M439.124 220.981V244L466.299 231.524L439.124 220.981Z" fill="white"/>
<path d="M318.307 53.07L336.815 57.5472L359.403 46.0377H371.301L360.84 48.6043L337.964 62.1509C334.108 62.07 330.265 61.6851 326.469 61C323.356 60.4372 320.284 59.6683 317.273 58.6981L318.307 53.07Z" fill="#FFD6D2"/>
<path d="M318.307 19.1517C318.307 11.6591 313.709 5.59357 308.145 5.59357C302.582 5.59357 297.983 11.6591 297.983 19.1517C297.942 22.3256 298.829 25.442 300.535 28.1175L300.213 37.0143L310.375 39.5119V32.3876C314.973 31.0755 318.307 25.6315 318.307 19.1517Z" fill="url(#paint0_linear_84_69)"/>
<path d="M60.9026 93.5372C66.5149 93.5372 71.0646 87.4619 71.0646 79.9676C71.0646 72.4733 66.5149 66.3979 60.9026 66.3979C55.2904 66.3979 50.7407 72.4733 50.7407 79.9676C50.7407 87.4619 55.2904 93.5372 60.9026 93.5372Z" fill="#FFD6D2"/>
<path d="M54.5112 87.1149L54.1318 97.8302L64.2938 100.316V86.7466L54.5112 87.1149Z" fill="#FFD6D2"/>
<path d="M318.307 13.0978H304.754L301.374 15.768V42.8957H281.039L294.592 12.3727L304.754 4.43115L313.226 5.5821L318.307 13.0978Z" fill="black"/>
<path d="M314.974 43.5171L311.525 37.1754L297.972 36.1166L291.19 42.8956L284.419 80.2092L314.905 76.7564V59.849L319.503 62.1509V50.6415L314.974 43.5171Z" fill="black"/>
<path d="M284.43 80.2092L304.754 110.732L287.822 144.651L304.754 151.222L318.307 109.65L308.145 86.9883L328.469 100.558L311.525 142.349L327.619 151.925L342.022 100.558V94.0666L314.916 76.8024L284.43 80.2092Z" fill="#138147"/>
<path d="M291.201 148.046L298.466 151.222L297.983 154.836L304.754 161.615L287.798 156.851L291.201 148.046Z" fill="black"/>
<path d="M311.536 144.651L318.79 147.827L318.307 151.441L325.089 158.22L308.122 153.455L311.536 144.651Z" fill="black"/>
<path d="M40.5789 103.711L54.1318 96.921L59.2128 99.0732L65.1445 96.921L73.8925 100.316L71.0645 144.409L47.3495 147.804C45.0964 133.11 42.8396 118.413 40.5789 103.711Z" fill="black"/>
<path d="M47.3494 147.804L30.4167 188.502L23.6345 211.233L33.8079 212.245L40.5787 188.502L60.9255 161.374L81.2494 178.327L71.0874 192.138L81.2494 194.74L94.8023 178.281V172.653L71.0874 144.363L47.3494 147.804Z" fill="#FCCD49"/>
<path d="M71.0645 196.052V198.676H88.0086L79.5366 196.811L71.0645 196.052Z" fill="black"/>
<path d="M30.4169 215.641L33.808 222.42H6.7019L23.6461 215.641H30.4169Z" fill="black"/>
<path d="M40.5788 103.711L20.2549 130.839V132.163L21.2665 160.557L27.0142 159.406L26.6119 132.128C31.0565 128.7 35.2266 124.928 39.0843 120.849C41.6938 118.087 43.9814 115.382 45.9816 112.792L40.5788 103.711Z" fill="black"/>
<path d="M87.365 125.453C84.1681 116.233 79.3912 107.641 73.2486 100.063C73.149 105.081 73.0493 110.099 72.9497 115.117L82.7668 133.532L118.403 123.174L116.103 119.721L87.365 125.453Z" fill="black"/>
<path d="M125.244 103.62L96.1191 93.9248L81.1558 138.988L110.281 148.682L125.244 103.62Z" fill="black"/>
<path d="M121.857 107.002L92.7314 97.3076L77.7681 142.37L106.893 152.065L121.857 107.002Z" fill="white"/>
<path d="M303.685 33.3774L307.134 41.434L336.907 23.6634L363.806 25.3208H375.474C374.292 24.3334 372.951 23.5549 371.508 23.0189C368.986 22.1095 366.257 21.9457 363.645 22.547L335.872 17.2642L303.685 33.3774Z" fill="#FFD6D2"/>
<path d="M291.201 36.1166L304.754 29.3375L311.536 42.8956C308.49 44.0466 305.099 45.2551 301.375 46.3485C297.65 47.4419 294.339 48.1094 291.201 48.6504C290.25 47.9988 289.454 47.1453 288.87 46.1506C288.286 45.156 287.928 44.0446 287.822 42.8956C287.736 41.5674 288.004 40.2402 288.597 39.0493C289.191 37.8585 290.089 36.8465 291.201 36.1166Z" fill="#138147"/>
<path d="M22.5654 160.303L22.9908 164.585L26.4394 170.34L28.7385 169.189L26.2325 159.567L22.5654 160.303Z" fill="#FFD6D2"/>
<path d="M120.426 119.054C118.126 117.995 115.747 118.478 114.954 119.698C114.011 121.148 114.873 124.302 117.954 125.706C118.774 123.481 119.598 121.263 120.426 119.054Z" fill="#FFD6D2"/>
<path d="M50.7407 81.2566L55.1779 72.5094C62.8023 73.5369 67.0675 74.8063 74.7201 73.6604C72.8297 71.0387 71.531 70.1336 68.9724 69.0566C68.9724 69.0566 66.6733 65.6038 65.5238 65.6038C64.1559 63.9587 53.9604 65.0983 54.1318 66.3979L51.7293 70.2075C50.1009 75.0211 50.0805 77.3616 50.7407 81.2566Z" fill="#4E3900"/>
<path d="M425.329 25.3207H356.357V46.0377H425.329V25.3207Z" fill="#FCCD49"/>
</g>
<defs>
<linearGradient id="paint0_linear_84_69" x1="297.983" y1="22.547" x2="318.307" y2="22.547" gradientUnits="userSpaceOnUse">
<stop stop-color="#F9CCC5"/>
<stop offset="1" stop-color="#DDB1AC"/>
</linearGradient>
<clipPath id="clip0_84_69">
<rect width="584" height="244" fill="white"/>
</clipPath>
</defs>
</svg>
