<svg width="41" height="41" viewBox="0 0 41 41" fill="none" xmlns="http://www.w3.org/2000/svg">
<path d="M20.5519 0.000218275C31.886 0.0519993 41.0602 9.28399 40.9997 20.5782C40.9399 31.8768 31.7249 41.0414 20.4658 40.9999C9.12073 40.9581 -0.0587763 31.7197 0.000283396 20.4029C0.0592004 9.11624 9.29349 -0.0515627 20.5519 0.000218275ZM38.5814 20.4931C38.573 10.4889 30.4825 2.40882 20.485 2.41967C10.4971 2.43079 2.433 10.4952 2.41816 20.4872C2.4039 30.4735 10.5008 38.5768 20.4973 38.5796C30.4938 38.5825 38.59 30.4858 38.5814 20.4931Z" fill="#898989"/>
<path d="M20.5176 22.6123C22.2021 22.6123 23.8867 22.6123 25.5713 22.6123C28.4372 22.6149 30.7445 23.8105 32.6056 25.9336C33.3881 26.826 33.9444 27.8547 34.3376 28.9752C34.4176 29.2035 34.3879 29.3759 34.2553 29.5692C31.4943 33.5929 27.7407 36.1413 22.891 36.7742C16.1576 37.6529 10.8047 35.1753 6.82445 29.6903C6.62216 29.4114 6.58664 29.1681 6.70505 28.8406C8.02761 25.1827 11.3746 22.825 14.7531 22.6347C16.6689 22.5267 18.5957 22.6152 20.5176 22.6152V22.6123Z" fill="#898989"/>
<path d="M20.5122 4.82984C25.0433 4.83612 28.6967 8.50387 28.683 13.0321C28.6694 17.5292 24.9801 21.2016 20.4877 21.1896C15.9708 21.1775 12.3022 17.4881 12.3172 12.9723C12.332 8.46435 15.9956 4.82357 20.5122 4.82984Z" fill="#898989"/>
</svg>
