<svg width="172" height="37" viewBox="0 0 172 37" fill="none" xmlns="http://www.w3.org/2000/svg">
<path d="M40.2524 33.7555V17.604H52.3111V20.1871H43.0997V24.5943H51.2692V27.1789H43.0997V33.7555H40.2524Z" fill="white"/>
<path d="M55.1512 33.7555V17.604H57.8366V33.757L55.1512 33.7555Z" fill="white"/>
<path d="M65.3829 33.9985C64.0804 33.9985 63.0594 33.5929 62.3199 32.7815C61.5804 31.9702 61.211 30.8787 61.2118 29.507V22.072H63.8972V28.7116C63.8972 29.6266 64.1154 30.331 64.5518 30.825C64.9882 31.319 65.6058 31.5662 66.4046 31.5664C67.189 31.5664 67.8253 31.3082 68.3135 30.7919C68.8018 30.2755 69.0459 29.5673 69.0459 28.6673V22.072H71.7313V33.7555H69.0459V31.9406C68.1128 33.3131 66.8917 33.999 65.3829 33.9985Z" fill="white"/>
<path d="M75.1476 20.28V17.7354H78.0326V20.28H75.1476ZM75.2597 33.7556V22.0722H77.9451V33.7556H75.2597Z" fill="white"/>
<path d="M86.288 33.9985C84.824 33.9985 83.5518 33.449 82.4713 32.3499C81.3909 31.2508 80.8508 29.7647 80.8511 27.8916C80.8511 26.0326 81.3869 24.5574 82.4586 23.4661C83.5304 22.3747 84.8064 21.829 86.2869 21.829C87.8853 21.829 89.2169 22.515 90.2819 23.8869V17.604H92.9673V33.757H90.2819V31.8098C89.2471 33.2689 87.9158 33.9985 86.288 33.9985ZM84.5462 30.6357C85.2042 31.329 85.9995 31.6755 86.9322 31.6752C87.8648 31.675 88.6637 31.321 89.329 30.6133C89.9944 29.9054 90.3273 28.9984 90.3275 27.8923C90.3275 26.8009 89.9947 25.9049 89.329 25.2041C88.6632 24.5034 87.8646 24.1528 86.9329 24.1523C85.9858 24.1523 85.1869 24.4952 84.5361 25.181C83.8854 25.8669 83.5598 26.7852 83.5593 27.9359C83.5588 29.0422 83.8878 29.9421 84.5462 30.6357Z" fill="white"/>
<path d="M103.863 34.0209C101.558 34.0209 99.632 33.2309 98.0857 31.651C96.5395 30.0711 95.7662 28.1248 95.766 25.8121C95.766 23.5138 96.5392 21.5711 98.0857 19.9839C99.6322 18.3968 101.596 17.6035 103.977 17.604C105.357 17.604 106.528 17.8152 107.491 18.2377C108.454 18.6601 109.36 19.2725 110.209 20.0749L108.412 22.1384C106.986 20.8231 105.5 20.1653 103.954 20.1651C102.437 20.1651 101.183 20.7095 100.189 21.7984C99.1962 22.8873 98.6995 24.2253 98.6992 25.8124C98.6992 27.3847 99.1997 28.7187 100.201 29.8145C101.202 30.9104 102.453 31.4584 103.954 31.4587C104.863 31.4587 105.667 31.2886 106.365 30.9484C107.063 30.6082 107.783 30.0905 108.525 29.3952L110.322 31.2093C109.427 32.1469 108.479 32.8499 107.479 33.3183C106.478 33.7867 105.273 34.0209 103.863 34.0209Z" fill="white"/>
<path d="M118.269 34.021C116.493 34.021 115.014 33.431 113.83 32.2509C112.647 31.0708 112.055 29.6325 112.056 27.936C112.056 26.2401 112.655 24.7981 113.854 23.61C115.052 22.422 116.539 21.8284 118.314 21.8291C120.09 21.8291 121.573 22.4191 122.763 23.5992C123.953 24.7793 124.549 26.2249 124.55 27.936C124.55 29.6178 123.95 31.0524 122.752 32.2397C121.553 33.427 120.059 34.0207 118.269 34.021ZM118.313 31.6977C119.378 31.6977 120.236 31.3363 120.887 30.6134C121.538 29.8906 121.863 28.9981 121.864 27.936C121.864 26.8886 121.524 25.9998 120.843 25.2695C120.162 24.5392 119.304 24.1742 118.269 24.1747C117.218 24.1747 116.367 24.5361 115.717 25.2587C115.066 25.9813 114.74 26.8737 114.74 27.936C114.74 28.9685 115.08 29.8535 115.761 30.5911C116.441 31.3286 117.292 31.6975 118.313 31.6977Z" fill="white"/>
<path d="M131.318 33.9985C130.016 33.9985 128.995 33.5929 128.255 32.7815C127.516 31.9702 127.146 30.8787 127.146 29.507V22.072H129.831V28.7116C129.831 29.6266 130.049 30.331 130.486 30.825C130.922 31.319 131.54 31.5662 132.339 31.5664C133.123 31.5664 133.759 31.3082 134.247 30.7919C134.735 30.2755 134.98 29.5673 134.98 28.6673V22.072H137.665V33.7555H134.979V31.9406C134.048 33.3131 132.827 33.999 131.318 33.9985Z" fill="white"/>
<path d="M141.039 33.7556V22.0721H143.724V24.7055C144.553 22.7143 145.936 21.7629 147.874 21.8511V24.6839H147.718C146.505 24.6839 145.536 25.0786 144.811 25.8681C144.086 26.6575 143.723 27.8043 143.724 29.3084V33.7563L141.039 33.7556Z" fill="white"/>
<path d="M154.221 33.9769C152.386 33.9769 150.729 33.3941 149.249 32.2284L150.445 30.4143C151.717 31.3735 152.996 31.853 154.285 31.8527C154.862 31.8527 155.31 31.7384 155.627 31.5098C155.945 31.2812 156.104 30.9601 156.105 30.5466C156.109 30.3529 156.05 30.163 155.938 30.0047C155.828 29.8499 155.632 29.7061 155.35 29.5734C155.121 29.4613 154.883 29.3652 154.64 29.2857C154.447 29.2268 154.129 29.1308 153.686 28.9979L153.486 28.9316C153.071 28.8138 152.72 28.6995 152.431 28.5886C152.1 28.4583 151.778 28.307 151.466 28.1354C151.111 27.9435 150.823 27.7332 150.601 27.5043C150.362 27.2505 150.174 26.9539 150.046 26.6303C149.897 26.2764 149.823 25.8788 149.824 25.4375C149.824 24.3608 150.22 23.4978 151.011 22.8485C151.803 22.1992 152.798 21.8747 153.996 21.8752C155.52 21.8752 156.955 22.3177 158.302 23.2026L157.236 25.1058C156.023 24.3685 154.921 23.9997 153.929 23.9995C153.411 23.9995 153.008 24.1101 152.72 24.3312C152.432 24.5524 152.288 24.8473 152.287 25.2161C152.287 25.4671 152.417 25.6958 152.675 25.9023C152.909 26.0938 153.171 26.2469 153.452 26.3559C153.712 26.4518 154.129 26.5957 154.706 26.7876C154.743 26.8047 154.78 26.8194 154.818 26.8315C154.854 26.8446 154.892 26.8522 154.931 26.8539C155.375 26.9895 155.811 27.1481 156.239 27.3292C156.632 27.5047 157.007 27.7159 157.361 27.9602C157.737 28.2093 158.046 28.5476 158.26 28.945C158.467 29.3356 158.57 29.7891 158.57 30.3055C158.57 31.4861 158.163 32.393 157.349 33.0265C156.536 33.6599 155.493 33.9767 154.221 33.9769Z" fill="white"/>
<path d="M166.672 34.021C164.955 34.021 163.524 33.4532 162.378 32.3176C161.231 31.182 160.658 29.714 160.658 27.9137C160.658 26.2177 161.198 24.7796 162.278 23.5992C163.358 22.4189 164.726 21.8289 166.384 21.8291C168.159 21.8291 169.539 22.4302 170.523 23.6324C171.507 24.8346 171.999 26.3282 171.999 28.1131C172.004 28.3646 171.989 28.6161 171.954 28.8653H163.343C163.491 29.7949 163.868 30.5215 164.475 31.0451C165.082 31.5686 165.829 31.8304 166.716 31.8304C167.87 31.8304 168.928 31.3657 169.89 30.4364L171.466 31.8304C170.252 33.2908 168.654 34.021 166.672 34.021ZM163.321 27.0951H169.335C169.247 26.1954 168.943 25.4578 168.426 24.8826C167.908 24.3073 167.219 24.0196 166.361 24.0193C165.547 24.0193 164.867 24.3035 164.319 24.8718C163.772 25.4401 163.439 26.1812 163.321 27.0951Z" fill="white"/>
<path d="M20.9029 33.8255C19.8633 33.8255 18.8234 33.8255 17.7831 33.8255H15.9381C15.4996 33.8255 15.0607 33.8211 14.6222 33.8285C14.5449 33.8293 14.4691 33.8489 14.4012 33.8855C14.3333 33.9222 14.2754 33.9749 14.2327 34.0391C14.1899 34.1032 14.1635 34.1767 14.1558 34.2534C14.1481 34.33 14.1593 34.4073 14.1885 34.4786C14.2659 34.6709 14.4349 34.7768 14.6745 34.7768C16.7501 34.7768 18.8256 34.7768 20.901 34.7768C20.9283 34.7768 20.9556 34.7768 20.9825 34.7742C21.0514 34.7681 21.1181 34.7472 21.178 34.7128C21.2378 34.6784 21.2895 34.6313 21.3292 34.5749C21.3689 34.5186 21.3958 34.4542 21.408 34.3864C21.4202 34.3186 21.4174 34.2489 21.3997 34.1823C21.3411 33.959 21.1597 33.8259 20.9029 33.8255Z" fill="white"/>
<path d="M20.3189 35.5399C19.4774 35.5377 18.6366 35.5399 17.7939 35.5399H16.3004C15.943 35.5399 15.5856 35.5369 15.2282 35.5399C14.9777 35.5425 14.7825 35.7058 14.7444 35.9324C14.7234 36.0422 14.7426 36.1558 14.7985 36.2527C14.8544 36.3495 14.9433 36.4232 15.0491 36.4602C15.1312 36.4844 15.2166 36.4958 15.3022 36.4937C16.9541 36.4955 18.6059 36.4955 20.2576 36.4937C20.3119 36.4945 20.3661 36.4915 20.4199 36.4848C20.5061 36.4758 20.5879 36.4421 20.6553 36.3877C20.7227 36.3333 20.7729 36.2606 20.7997 36.1784C20.9197 35.8571 20.6838 35.541 20.3189 35.5399Z" fill="white"/>
<path d="M25.7394 18.6034C25.7394 15.0445 25.7361 12.4569 25.7394 12.3127C25.7416 12.2545 25.7304 12.1966 25.7065 12.1435C25.6791 12.0868 25.6389 12.0372 25.5891 11.9985C25.0105 11.5201 24.3795 11.1084 23.7083 10.771C22.2181 10.0136 20.6356 9.57827 18.9716 9.43365C17.1823 9.27822 15.4226 9.42881 13.7055 9.96816C12.3338 10.3987 11.0724 11.0368 9.97851 11.9809C9.92893 12.0216 9.88876 12.0725 9.86075 12.13C9.83497 12.188 9.82282 12.2512 9.82523 12.3145C9.8286 12.467 9.82523 15.0508 9.82523 18.6053C9.65289 20.586 10.0051 22.0069 10.3572 22.9342C10.4559 23.1951 10.7221 23.7874 11.3117 24.9347C11.8597 26.0011 12.4486 27.047 12.9095 28.1567C13.4879 29.5488 13.84 30.9895 13.8483 32.5032C13.8483 32.886 14.0303 33.0623 14.4169 33.0623H21.15C21.5369 33.0623 21.7171 32.8856 21.719 32.5032C21.727 31.5964 21.8518 30.6945 22.0902 29.8195C22.4136 28.6107 22.9322 27.4816 23.5027 26.3735C24.0227 25.3634 24.5532 24.3581 25.0444 23.3346C25.6366 22.0997 25.6624 21.1801 25.7039 20.8674C25.8036 20.1166 25.8155 19.3569 25.7394 18.6034ZM18.7338 32.1073H16.8391V26.2143H18.7338V32.1073ZM24.0092 23.3204C23.5528 24.2317 23.072 25.1304 22.6039 26.0354C21.9856 27.2319 21.445 28.4582 21.1145 29.7695C20.9344 30.4917 20.8217 31.2291 20.778 31.972C20.7754 32.0123 20.7717 32.0522 20.7672 32.114H20.513C20.2778 32.114 20.0427 32.111 19.8071 32.114C19.7196 32.114 19.6804 32.0883 19.6909 31.9985C19.6929 31.9625 19.6929 31.9264 19.6909 31.8904C19.6909 29.48 19.6909 27.0708 19.6909 24.6626C19.6909 24.4871 19.6621 24.329 19.5166 24.2153C19.4491 24.1574 19.366 24.1204 19.2777 24.109C19.1893 24.0976 19.0995 24.1123 19.0194 24.1512C18.8325 24.2362 18.7446 24.3935 18.7401 24.5944C18.7357 24.8058 18.7401 25.0171 18.7401 25.243H16.8271C16.8271 25.1889 16.8271 25.1371 16.8271 25.0853C16.8223 24.8829 16.8342 24.6775 16.8058 24.4785C16.7722 24.2407 16.5516 24.0908 16.3127 24.1091C16.1988 24.1173 16.0918 24.1668 16.0119 24.2482C15.932 24.3297 15.8848 24.4374 15.879 24.5512C15.8753 24.6097 15.8768 24.6682 15.8768 24.7271C15.8768 27.1318 15.8777 29.5364 15.8794 31.9411C15.8794 32.073 15.8544 32.1226 15.7101 32.1166C15.411 32.1043 15.1141 32.1129 14.8027 32.1129C14.7852 31.9031 14.7691 31.7029 14.7508 31.5027C14.6274 30.1519 14.2487 28.869 13.7189 27.6263C13.2606 26.5502 12.689 25.5311 12.1514 24.4953C11.8523 23.9153 11.5644 23.3271 11.2978 22.7307C10.8492 21.7269 10.7139 20.6762 10.8593 19.5844C10.9674 18.7734 11.1786 18.0044 11.5207 17.2887C11.7208 17.1849 11.9281 17.0952 12.1409 17.0204C13.3021 16.6193 14.5137 16.4613 15.734 16.3774C16.3658 16.333 16.9995 16.3185 17.3696 16.3028C19.2886 16.3204 20.9362 16.4214 22.5445 16.8474C22.9834 16.9637 23.4092 17.1389 23.8275 17.3174C23.9331 17.3644 24.0331 17.423 24.1255 17.4923C24.4202 18.1758 24.6187 18.8966 24.7155 19.6344C24.8942 20.9475 24.5898 22.1604 24.0092 23.3204Z" fill="white"/>
<path d="M5.04629 16.4377C5.19023 16.3257 5.30228 16.1781 5.37131 16.0096C5.44034 15.841 5.46396 15.6574 5.43981 15.477C5.41566 15.2965 5.34458 15.1255 5.23364 14.9809C5.1227 14.8363 4.97576 14.7231 4.80739 14.6527V6.28247H4.00361V14.6527C3.83475 14.7226 3.68726 14.8355 3.5759 14.9801C3.46453 15.1247 3.39319 15.296 3.36901 15.4767C3.34482 15.6574 3.36864 15.8413 3.43808 16.0099C3.50753 16.1786 3.62016 16.3261 3.76472 16.4377L3.15234 19.3045H5.6609L5.04629 16.4377Z" fill="white"/>
<path d="M17.7823 0C14.073 1.69049 10.3587 3.37142 6.63964 5.04278C4.42767 6.03675 2.21446 7.02661 0 8.01238C1.10212 8.49359 2.05133 8.90695 2.73586 9.20514L6.15812 10.6506C6.55104 10.8146 6.94321 10.9798 7.33314 11.1516C7.53577 11.2414 7.67148 11.2381 7.81541 11.0644C7.90551 10.9555 8.02664 10.8713 8.13842 10.7815C8.26029 10.6838 9.8473 9.29945 12.4254 8.34747C15.2409 7.30791 17.6545 7.34965 18.3323 7.37425C18.9712 7.39774 20.8745 7.50769 23.1393 8.34747C25.708 9.30094 27.2936 10.6752 27.4263 10.7815C27.5384 10.8713 27.6592 10.9555 27.7497 11.0644C27.7968 11.129 27.8635 11.177 27.9399 11.2012C28.0745 11.2358 28.2016 11.168 28.2316 11.1516C28.451 11.0398 31.4284 9.7691 35.5647 8.01126L17.7823 0Z" fill="white"/>
</svg>
