<svg width="102" height="102" viewBox="0 0 102 102" fill="none" xmlns="http://www.w3.org/2000/svg">
<g clip-path="url(#clip0_827_2057)">
<path d="M35.2416 0H31.6226V3.61901H35.2416V0Z" fill="black"/>
<path d="M38.755 0H35.136V3.61901H38.755V0Z" fill="black"/>
<path d="M45.7823 0H42.1633V3.61901H45.7823V0Z" fill="black"/>
<path d="M49.296 0H45.677V3.61901H49.296V0Z" fill="black"/>
<path d="M52.8094 0H49.1904V3.61901H52.8094V0Z" fill="black"/>
<path d="M56.3231 0H52.7041V3.61901H56.3231V0Z" fill="black"/>
<path d="M70.3776 0H66.7585V3.61901H70.3776V0Z" fill="black"/>
<path d="M73.8912 0H70.2722V3.61901H73.8912V0Z" fill="black"/>
<path d="M35.2416 3.51367H31.6226V7.13269H35.2416V3.51367Z" fill="black"/>
<path d="M38.755 3.51367H35.136V7.13269H38.755V3.51367Z" fill="black"/>
<path d="M45.7823 3.51367H42.1633V7.13269H45.7823V3.51367Z" fill="black"/>
<path d="M49.296 3.51367H45.677V7.13269H49.296V3.51367Z" fill="black"/>
<path d="M52.8094 3.51367H49.1904V7.13269H52.8094V3.51367Z" fill="black"/>
<path d="M56.3231 3.51367H52.7041V7.13269H56.3231V3.51367Z" fill="black"/>
<path d="M59.8368 3.51367H56.2178V7.13269H59.8368V3.51367Z" fill="black"/>
<path d="M63.3502 3.51367H59.7312V7.13269H63.3502V3.51367Z" fill="black"/>
<path d="M70.3776 3.51367H66.7585V7.13269H70.3776V3.51367Z" fill="black"/>
<path d="M31.7279 7.02734H28.1089V10.6464H31.7279V7.02734Z" fill="black"/>
<path d="M35.2416 7.02734H31.6226V10.6464H35.2416V7.02734Z" fill="black"/>
<path d="M38.755 7.02734H35.136V10.6464H38.755V7.02734Z" fill="black"/>
<path d="M49.296 7.02734H45.677V10.6464H49.296V7.02734Z" fill="black"/>
<path d="M56.3231 7.02734H52.7041V10.6464H56.3231V7.02734Z" fill="black"/>
<path d="M70.3776 7.02734H66.7585V10.6464H70.3776V7.02734Z" fill="black"/>
<path d="M73.8912 7.02734H70.2722V10.6464H73.8912V7.02734Z" fill="black"/>
<path d="M31.7279 10.541H28.1089V14.16H31.7279V10.541Z" fill="black"/>
<path d="M35.2416 10.541H31.6226V14.16H35.2416V10.541Z" fill="black"/>
<path d="M38.755 10.541H35.136V14.16H38.755V10.541Z" fill="black"/>
<path d="M42.2687 10.541H38.6497V14.16H42.2687V10.541Z" fill="black"/>
<path d="M45.7823 10.541H42.1633V14.16H45.7823V10.541Z" fill="black"/>
<path d="M52.8094 10.541H49.1904V14.16H52.8094V10.541Z" fill="black"/>
<path d="M56.3231 10.541H52.7041V14.16H56.3231V10.541Z" fill="black"/>
<path d="M66.8639 10.541H63.2449V14.16H66.8639V10.541Z" fill="black"/>
<path d="M73.8912 10.541H70.2722V14.16H73.8912V10.541Z" fill="black"/>
<path d="M31.7279 14.0542H28.1089V17.6732H31.7279V14.0542Z" fill="black"/>
<path d="M38.755 14.0542H35.136V17.6732H38.755V14.0542Z" fill="black"/>
<path d="M42.2687 14.0542H38.6497V17.6732H42.2687V14.0542Z" fill="black"/>
<path d="M56.3231 14.0542H52.7041V17.6732H56.3231V14.0542Z" fill="black"/>
<path d="M59.8368 14.0542H56.2178V17.6732H59.8368V14.0542Z" fill="black"/>
<path d="M63.3502 14.0542H59.7312V17.6732H63.3502V14.0542Z" fill="black"/>
<path d="M70.3776 14.0542H66.7585V17.6732H70.3776V14.0542Z" fill="black"/>
<path d="M31.7279 17.5679H28.1089V21.1869H31.7279V17.5679Z" fill="black"/>
<path d="M35.2416 17.5679H31.6226V21.1869H35.2416V17.5679Z" fill="black"/>
<path d="M38.755 17.5679H35.136V21.1869H38.755V17.5679Z" fill="black"/>
<path d="M63.3502 17.5679H59.7312V21.1869H63.3502V17.5679Z" fill="black"/>
<path d="M73.8912 17.5679H70.2722V21.1869H73.8912V17.5679Z" fill="black"/>
<path d="M31.7279 21.0815H28.1089V24.7006H31.7279V21.0815Z" fill="black"/>
<path d="M38.755 21.0815H35.136V24.7006H38.755V21.0815Z" fill="black"/>
<path d="M45.7823 21.0815H42.1633V24.7006H45.7823V21.0815Z" fill="black"/>
<path d="M52.8094 21.0815H49.1904V24.7006H52.8094V21.0815Z" fill="black"/>
<path d="M59.8368 21.0815H56.2178V24.7006H59.8368V21.0815Z" fill="black"/>
<path d="M66.8639 21.0815H63.2449V24.7006H66.8639V21.0815Z" fill="black"/>
<path d="M73.8912 21.0815H70.2722V24.7006H73.8912V21.0815Z" fill="black"/>
<path d="M31.7279 24.5952H28.1089V28.2142H31.7279V24.5952Z" fill="black"/>
<path d="M35.2416 24.5952H31.6226V28.2142H35.2416V24.5952Z" fill="black"/>
<path d="M45.7823 24.5952H42.1633V28.2142H45.7823V24.5952Z" fill="black"/>
<path d="M52.8094 24.5952H49.1904V28.2142H52.8094V24.5952Z" fill="black"/>
<path d="M59.8368 24.5952H56.2178V28.2142H59.8368V24.5952Z" fill="black"/>
<path d="M66.8639 24.5952H63.2449V28.2142H66.8639V24.5952Z" fill="black"/>
<path d="M70.3776 24.5952H66.7585V28.2142H70.3776V24.5952Z" fill="black"/>
<path d="M3.61901 28.1089H0V31.7279H3.61901V28.1089Z" fill="black"/>
<path d="M10.6461 28.1089H7.0271V31.7279H10.6461V28.1089Z" fill="black"/>
<path d="M14.1598 28.1089H10.5408V31.7279H14.1598V28.1089Z" fill="black"/>
<path d="M17.6735 28.1089H14.0544V31.7279H17.6735V28.1089Z" fill="black"/>
<path d="M21.1871 28.1089H17.5681V31.7279H21.1871V28.1089Z" fill="black"/>
<path d="M24.7006 28.1089H21.0815V31.7279H24.7006V28.1089Z" fill="black"/>
<path d="M59.8368 28.1089H56.2178V31.7279H59.8368V28.1089Z" fill="black"/>
<path d="M66.8639 28.1089H63.2449V31.7279H66.8639V28.1089Z" fill="black"/>
<path d="M73.8912 28.1089H70.2722V31.7279H73.8912V28.1089Z" fill="black"/>
<path d="M80.9183 28.1089H77.2993V31.7279H80.9183V28.1089Z" fill="black"/>
<path d="M84.432 28.1089H80.813V31.7279H84.432V28.1089Z" fill="black"/>
<path d="M87.9457 28.1089H84.3267V31.7279H87.9457V28.1089Z" fill="black"/>
<path d="M91.4591 28.1089H87.8401V31.7279H91.4591V28.1089Z" fill="black"/>
<path d="M94.9728 28.1089H91.3538V31.7279H94.9728V28.1089Z" fill="black"/>
<path d="M3.61901 31.6226H0V35.2416H3.61901V31.6226Z" fill="black"/>
<path d="M17.6735 31.6226H14.0544V35.2416H17.6735V31.6226Z" fill="black"/>
<path d="M28.2142 31.6226H24.5952V35.2416H28.2142V31.6226Z" fill="black"/>
<path d="M35.2416 31.6226H31.6226V35.2416H35.2416V31.6226Z" fill="black"/>
<path d="M45.7823 31.6226H42.1633V35.2416H45.7823V31.6226Z" fill="black"/>
<path d="M49.296 31.6226H45.677V35.2416H49.296V31.6226Z" fill="black"/>
<path d="M52.8094 31.6226H49.1904V35.2416H52.8094V31.6226Z" fill="black"/>
<path d="M56.3231 31.6226H52.7041V35.2416H56.3231V31.6226Z" fill="black"/>
<path d="M63.3502 31.6226H59.7312V35.2416H63.3502V31.6226Z" fill="black"/>
<path d="M73.8912 31.6226H70.2722V35.2416H73.8912V31.6226Z" fill="black"/>
<path d="M77.4047 31.6226H73.7856V35.2416H77.4047V31.6226Z" fill="black"/>
<path d="M80.9183 31.6226H77.2993V35.2416H80.9183V31.6226Z" fill="black"/>
<path d="M84.432 31.6226H80.813V35.2416H84.432V31.6226Z" fill="black"/>
<path d="M87.9457 31.6226H84.3267V35.2416H87.9457V31.6226Z" fill="black"/>
<path d="M102 31.6226H98.3811V35.2416H102V31.6226Z" fill="black"/>
<path d="M10.6461 35.1362H7.0271V38.7552H10.6461V35.1362Z" fill="black"/>
<path d="M21.1871 35.1362H17.5681V38.7552H21.1871V35.1362Z" fill="black"/>
<path d="M24.7006 35.1362H21.0815V38.7552H24.7006V35.1362Z" fill="black"/>
<path d="M35.2416 35.1362H31.6226V38.7552H35.2416V35.1362Z" fill="black"/>
<path d="M49.296 35.1362H45.677V38.7552H49.296V35.1362Z" fill="black"/>
<path d="M52.8094 35.1362H49.1904V38.7552H52.8094V35.1362Z" fill="black"/>
<path d="M56.3231 35.1362H52.7041V38.7552H56.3231V35.1362Z" fill="black"/>
<path d="M59.8368 35.1362H56.2178V38.7552H59.8368V35.1362Z" fill="black"/>
<path d="M70.3776 35.1362H66.7585V38.7552H70.3776V35.1362Z" fill="black"/>
<path d="M84.432 35.1362H80.813V38.7552H84.432V35.1362Z" fill="black"/>
<path d="M87.9457 35.1362H84.3267V38.7552H87.9457V35.1362Z" fill="black"/>
<path d="M3.61901 38.6499H0V42.2689H3.61901V38.6499Z" fill="black"/>
<path d="M7.13269 38.6499H3.51367V42.2689H7.13269V38.6499Z" fill="black"/>
<path d="M17.6735 38.6499H14.0544V42.2689H17.6735V38.6499Z" fill="black"/>
<path d="M38.755 38.6499H35.136V42.2689H38.755V38.6499Z" fill="black"/>
<path d="M42.2687 38.6499H38.6497V42.2689H42.2687V38.6499Z" fill="black"/>
<path d="M45.7823 38.6499H42.1633V42.2689H45.7823V38.6499Z" fill="black"/>
<path d="M49.296 38.6499H45.677V42.2689H49.296V38.6499Z" fill="black"/>
<path d="M56.3231 38.6499H52.7041V42.2689H56.3231V38.6499Z" fill="black"/>
<path d="M66.8639 38.6499H63.2449V42.2689H66.8639V38.6499Z" fill="black"/>
<path d="M84.432 38.6499H80.813V42.2689H84.432V38.6499Z" fill="black"/>
<path d="M91.4591 38.6499H87.8401V42.2689H91.4591V38.6499Z" fill="black"/>
<path d="M98.4864 38.6499H94.8674V42.2689H98.4864V38.6499Z" fill="black"/>
<path d="M7.13269 42.1631H3.51367V45.7821H7.13269V42.1631Z" fill="black"/>
<path d="M17.6735 42.1631H14.0544V45.7821H17.6735V42.1631Z" fill="black"/>
<path d="M24.7006 42.1631H21.0815V45.7821H24.7006V42.1631Z" fill="black"/>
<path d="M28.2142 42.1631H24.5952V45.7821H28.2142V42.1631Z" fill="black"/>
<path d="M42.2687 42.1631H38.6497V45.7821H42.2687V42.1631Z" fill="black"/>
<path d="M52.8094 42.1631H49.1904V45.7821H52.8094V42.1631Z" fill="black"/>
<path d="M56.3231 42.1631H52.7041V45.7821H56.3231V42.1631Z" fill="black"/>
<path d="M63.3502 42.1631H59.7312V45.7821H63.3502V42.1631Z" fill="black"/>
<path d="M77.4047 42.1631H73.7856V45.7821H77.4047V42.1631Z" fill="black"/>
<path d="M91.4591 42.1631H87.8401V45.7821H91.4591V42.1631Z" fill="black"/>
<path d="M94.9728 42.1631H91.3538V45.7821H94.9728V42.1631Z" fill="black"/>
<path d="M21.1871 45.6768H17.5681V49.2958H21.1871V45.6768Z" fill="black"/>
<path d="M31.7279 45.6768H28.1089V49.2958H31.7279V45.6768Z" fill="black"/>
<path d="M42.2687 45.6768H38.6497V49.2958H42.2687V45.6768Z" fill="black"/>
<path d="M56.3231 45.6768H52.7041V49.2958H56.3231V45.6768Z" fill="black"/>
<path d="M59.8368 45.6768H56.2178V49.2958H59.8368V45.6768Z" fill="black"/>
<path d="M73.8912 45.6768H70.2722V49.2958H73.8912V45.6768Z" fill="black"/>
<path d="M77.4047 45.6768H73.7856V49.2958H77.4047V45.6768Z" fill="black"/>
<path d="M80.9183 45.6768H77.2993V49.2958H80.9183V45.6768Z" fill="black"/>
<path d="M84.432 45.6768H80.813V49.2958H84.432V45.6768Z" fill="black"/>
<path d="M87.9457 45.6768H84.3267V49.2958H87.9457V45.6768Z" fill="black"/>
<path d="M102 45.6768H98.3811V49.2958H102V45.6768Z" fill="black"/>
<path d="M3.61901 49.1904H0V52.8094H3.61901V49.1904Z" fill="black"/>
<path d="M14.1598 49.1904H10.5408V52.8094H14.1598V49.1904Z" fill="black"/>
<path d="M17.6735 49.1904H14.0544V52.8094H17.6735V49.1904Z" fill="black"/>
<path d="M21.1871 49.1904H17.5681V52.8094H21.1871V49.1904Z" fill="black"/>
<path d="M24.7006 49.1904H21.0815V52.8094H24.7006V49.1904Z" fill="black"/>
<path d="M31.7279 49.1904H28.1089V52.8094H31.7279V49.1904Z" fill="black"/>
<path d="M42.2687 49.1904H38.6497V52.8094H42.2687V49.1904Z" fill="black"/>
<path d="M63.3502 49.1904H59.7312V52.8094H63.3502V49.1904Z" fill="black"/>
<path d="M70.3776 49.1904H66.7585V52.8094H70.3776V49.1904Z" fill="black"/>
<path d="M80.9183 49.1904H77.2993V52.8094H80.9183V49.1904Z" fill="black"/>
<path d="M91.4591 49.1904H87.8401V52.8094H91.4591V49.1904Z" fill="black"/>
<path d="M94.9728 49.1904H91.3538V52.8094H94.9728V49.1904Z" fill="black"/>
<path d="M10.6461 52.7041H7.0271V56.3231H10.6461V52.7041Z" fill="black"/>
<path d="M14.1598 52.7041H10.5408V56.3231H14.1598V52.7041Z" fill="black"/>
<path d="M21.1871 52.7041H17.5681V56.3231H21.1871V52.7041Z" fill="black"/>
<path d="M31.7279 52.7041H28.1089V56.3231H31.7279V52.7041Z" fill="black"/>
<path d="M38.755 52.7041H35.136V56.3231H38.755V52.7041Z" fill="black"/>
<path d="M45.7823 52.7041H42.1633V56.3231H45.7823V52.7041Z" fill="black"/>
<path d="M52.8094 52.7041H49.1904V56.3231H52.8094V52.7041Z" fill="black"/>
<path d="M59.8368 52.7041H56.2178V56.3231H59.8368V52.7041Z" fill="black"/>
<path d="M63.3502 52.7041H59.7312V56.3231H63.3502V52.7041Z" fill="black"/>
<path d="M66.8639 52.7041H63.2449V56.3231H66.8639V52.7041Z" fill="black"/>
<path d="M80.9183 52.7041H77.2993V56.3231H80.9183V52.7041Z" fill="black"/>
<path d="M84.432 52.7041H80.813V56.3231H84.432V52.7041Z" fill="black"/>
<path d="M98.4864 52.7041H94.8674V56.3231H98.4864V52.7041Z" fill="black"/>
<path d="M3.61901 56.2178H0V59.8368H3.61901V56.2178Z" fill="black"/>
<path d="M14.1598 56.2178H10.5408V59.8368H14.1598V56.2178Z" fill="black"/>
<path d="M21.1871 56.2178H17.5681V59.8368H21.1871V56.2178Z" fill="black"/>
<path d="M24.7006 56.2178H21.0815V59.8368H24.7006V56.2178Z" fill="black"/>
<path d="M28.2142 56.2178H24.5952V59.8368H28.2142V56.2178Z" fill="black"/>
<path d="M31.7279 56.2178H28.1089V59.8368H31.7279V56.2178Z" fill="black"/>
<path d="M35.2416 56.2178H31.6226V59.8368H35.2416V56.2178Z" fill="black"/>
<path d="M38.755 56.2178H35.136V59.8368H38.755V56.2178Z" fill="black"/>
<path d="M59.8368 56.2178H56.2178V59.8368H59.8368V56.2178Z" fill="black"/>
<path d="M63.3502 56.2178H59.7312V59.8368H63.3502V56.2178Z" fill="black"/>
<path d="M66.8639 56.2178H63.2449V59.8368H66.8639V56.2178Z" fill="black"/>
<path d="M73.8912 56.2178H70.2722V59.8368H73.8912V56.2178Z" fill="black"/>
<path d="M91.4591 56.2178H87.8401V59.8368H91.4591V56.2178Z" fill="black"/>
<path d="M94.9728 56.2178H91.3538V59.8368H94.9728V56.2178Z" fill="black"/>
<path d="M3.61901 59.7314H0V63.3505H3.61901V59.7314Z" fill="black"/>
<path d="M7.13269 59.7314H3.51367V63.3505H7.13269V59.7314Z" fill="black"/>
<path d="M10.6461 59.7314H7.0271V63.3505H10.6461V59.7314Z" fill="black"/>
<path d="M28.2142 59.7314H24.5952V63.3505H28.2142V59.7314Z" fill="black"/>
<path d="M49.296 59.7314H45.677V63.3505H49.296V59.7314Z" fill="black"/>
<path d="M52.8094 59.7314H49.1904V63.3505H52.8094V59.7314Z" fill="black"/>
<path d="M56.3231 59.7314H52.7041V63.3505H56.3231V59.7314Z" fill="black"/>
<path d="M66.8639 59.7314H63.2449V63.3505H66.8639V59.7314Z" fill="black"/>
<path d="M70.3776 59.7314H66.7585V63.3505H70.3776V59.7314Z" fill="black"/>
<path d="M80.9183 59.7314H77.2993V63.3505H80.9183V59.7314Z" fill="black"/>
<path d="M87.9457 59.7314H84.3267V63.3505H87.9457V59.7314Z" fill="black"/>
<path d="M94.9728 59.7314H91.3538V63.3505H94.9728V59.7314Z" fill="black"/>
<path d="M102 59.7314H98.3811V63.3505H102V59.7314Z" fill="black"/>
<path d="M3.61901 63.2451H0V66.8641H3.61901V63.2451Z" fill="black"/>
<path d="M10.6461 63.2451H7.0271V66.8641H10.6461V63.2451Z" fill="black"/>
<path d="M14.1598 63.2451H10.5408V66.8641H14.1598V63.2451Z" fill="black"/>
<path d="M24.7006 63.2451H21.0815V66.8641H24.7006V63.2451Z" fill="black"/>
<path d="M28.2142 63.2451H24.5952V66.8641H28.2142V63.2451Z" fill="black"/>
<path d="M38.755 63.2451H35.136V66.8641H38.755V63.2451Z" fill="black"/>
<path d="M45.7823 63.2451H42.1633V66.8641H45.7823V63.2451Z" fill="black"/>
<path d="M49.296 63.2451H45.677V66.8641H49.296V63.2451Z" fill="black"/>
<path d="M52.8094 63.2451H49.1904V66.8641H52.8094V63.2451Z" fill="black"/>
<path d="M56.3231 63.2451H52.7041V66.8641H56.3231V63.2451Z" fill="black"/>
<path d="M59.8368 63.2451H56.2178V66.8641H59.8368V63.2451Z" fill="black"/>
<path d="M63.3502 63.2451H59.7312V66.8641H63.3502V63.2451Z" fill="black"/>
<path d="M66.8639 63.2451H63.2449V66.8641H66.8639V63.2451Z" fill="black"/>
<path d="M70.3776 63.2451H66.7585V66.8641H70.3776V63.2451Z" fill="black"/>
<path d="M73.8912 63.2451H70.2722V66.8641H73.8912V63.2451Z" fill="black"/>
<path d="M77.4047 63.2451H73.7856V66.8641H77.4047V63.2451Z" fill="black"/>
<path d="M84.432 63.2451H80.813V66.8641H84.432V63.2451Z" fill="black"/>
<path d="M87.9457 63.2451H84.3267V66.8641H87.9457V63.2451Z" fill="black"/>
<path d="M94.9728 63.2451H91.3538V66.8641H94.9728V63.2451Z" fill="black"/>
<path d="M3.61901 66.7583H0V70.3773H3.61901V66.7583Z" fill="black"/>
<path d="M17.6735 66.7583H14.0544V70.3773H17.6735V66.7583Z" fill="black"/>
<path d="M31.7279 66.7583H28.1089V70.3773H31.7279V66.7583Z" fill="black"/>
<path d="M35.2416 66.7583H31.6226V70.3773H35.2416V66.7583Z" fill="black"/>
<path d="M42.2687 66.7583H38.6497V70.3773H42.2687V66.7583Z" fill="black"/>
<path d="M49.296 66.7583H45.677V70.3773H49.296V66.7583Z" fill="black"/>
<path d="M56.3231 66.7583H52.7041V70.3773H56.3231V66.7583Z" fill="black"/>
<path d="M70.3776 66.7583H66.7585V70.3773H70.3776V66.7583Z" fill="black"/>
<path d="M73.8912 66.7583H70.2722V70.3773H73.8912V66.7583Z" fill="black"/>
<path d="M87.9457 66.7583H84.3267V70.3773H87.9457V66.7583Z" fill="black"/>
<path d="M98.4864 66.7583H94.8674V70.3773H98.4864V66.7583Z" fill="black"/>
<path d="M3.61901 70.272H0V73.891H3.61901V70.272Z" fill="black"/>
<path d="M10.6461 70.272H7.0271V73.891H10.6461V70.272Z" fill="black"/>
<path d="M14.1598 70.272H10.5408V73.891H14.1598V70.272Z" fill="black"/>
<path d="M21.1871 70.272H17.5681V73.891H21.1871V70.272Z" fill="black"/>
<path d="M24.7006 70.272H21.0815V73.891H24.7006V70.272Z" fill="black"/>
<path d="M28.2142 70.272H24.5952V73.891H28.2142V70.272Z" fill="black"/>
<path d="M35.2416 70.272H31.6226V73.891H35.2416V70.272Z" fill="black"/>
<path d="M38.755 70.272H35.136V73.891H38.755V70.272Z" fill="black"/>
<path d="M42.2687 70.272H38.6497V73.891H42.2687V70.272Z" fill="black"/>
<path d="M52.8094 70.272H49.1904V73.891H52.8094V70.272Z" fill="black"/>
<path d="M56.3231 70.272H52.7041V73.891H56.3231V70.272Z" fill="black"/>
<path d="M70.3776 70.272H66.7585V73.891H70.3776V70.272Z" fill="black"/>
<path d="M73.8912 70.272H70.2722V73.891H73.8912V70.272Z" fill="black"/>
<path d="M77.4047 70.272H73.7856V73.891H77.4047V70.272Z" fill="black"/>
<path d="M80.9183 70.272H77.2993V73.891H80.9183V70.272Z" fill="black"/>
<path d="M84.432 70.272H80.813V73.891H84.432V70.272Z" fill="black"/>
<path d="M87.9457 70.272H84.3267V73.891H87.9457V70.272Z" fill="black"/>
<path d="M94.9728 70.272H91.3538V73.891H94.9728V70.272Z" fill="black"/>
<path d="M98.4864 70.272H94.8674V73.891H98.4864V70.272Z" fill="black"/>
<path d="M102 70.272H98.3811V73.891H102V70.272Z" fill="black"/>
<path d="M31.7279 73.7856H28.1089V77.4047H31.7279V73.7856Z" fill="black"/>
<path d="M42.2687 73.7856H38.6497V77.4047H42.2687V73.7856Z" fill="black"/>
<path d="M56.3231 73.7856H52.7041V77.4047H56.3231V73.7856Z" fill="black"/>
<path d="M59.8368 73.7856H56.2178V77.4047H59.8368V73.7856Z" fill="black"/>
<path d="M66.8639 73.7856H63.2449V77.4047H66.8639V73.7856Z" fill="black"/>
<path d="M70.3776 73.7856H66.7585V77.4047H70.3776V73.7856Z" fill="black"/>
<path d="M73.8912 73.7856H70.2722V77.4047H73.8912V73.7856Z" fill="black"/>
<path d="M87.9457 73.7856H84.3267V77.4047H87.9457V73.7856Z" fill="black"/>
<path d="M91.4591 73.7856H87.8401V77.4047H91.4591V73.7856Z" fill="black"/>
<path d="M94.9728 73.7856H91.3538V77.4047H94.9728V73.7856Z" fill="black"/>
<path d="M98.4864 73.7856H94.8674V77.4047H98.4864V73.7856Z" fill="black"/>
<path d="M102 73.7856H98.3811V77.4047H102V73.7856Z" fill="black"/>
<path d="M66.8639 77.2993H63.2449V80.9183H66.8639V77.2993Z" fill="black"/>
<path d="M70.3776 77.2993H66.7585V80.9183H70.3776V77.2993Z" fill="black"/>
<path d="M73.8912 77.2993H70.2722V80.9183H73.8912V77.2993Z" fill="black"/>
<path d="M80.9183 77.2993H77.2993V80.9183H80.9183V77.2993Z" fill="black"/>
<path d="M87.9457 77.2993H84.3267V80.9183H87.9457V77.2993Z" fill="black"/>
<path d="M91.4591 77.2993H87.8401V80.9183H91.4591V77.2993Z" fill="black"/>
<path d="M94.9728 77.2993H91.3538V80.9183H94.9728V77.2993Z" fill="black"/>
<path d="M31.7279 80.813H28.1089V84.432H31.7279V80.813Z" fill="black"/>
<path d="M38.755 80.813H35.136V84.432H38.755V80.813Z" fill="black"/>
<path d="M42.2687 80.813H38.6497V84.432H42.2687V80.813Z" fill="black"/>
<path d="M45.7823 80.813H42.1633V84.432H45.7823V80.813Z" fill="black"/>
<path d="M52.8094 80.813H49.1904V84.432H52.8094V80.813Z" fill="black"/>
<path d="M59.8368 80.813H56.2178V84.432H59.8368V80.813Z" fill="black"/>
<path d="M70.3776 80.813H66.7585V84.432H70.3776V80.813Z" fill="black"/>
<path d="M73.8912 80.813H70.2722V84.432H73.8912V80.813Z" fill="black"/>
<path d="M87.9457 80.813H84.3267V84.432H87.9457V80.813Z" fill="black"/>
<path d="M98.4864 80.813H94.8674V84.432H98.4864V80.813Z" fill="black"/>
<path d="M31.7279 84.3267H28.1089V87.9457H31.7279V84.3267Z" fill="black"/>
<path d="M42.2687 84.3267H38.6497V87.9457H42.2687V84.3267Z" fill="black"/>
<path d="M59.8368 84.3267H56.2178V87.9457H59.8368V84.3267Z" fill="black"/>
<path d="M66.8639 84.3267H63.2449V87.9457H66.8639V84.3267Z" fill="black"/>
<path d="M73.8912 84.3267H70.2722V87.9457H73.8912V84.3267Z" fill="black"/>
<path d="M77.4047 84.3267H73.7856V87.9457H77.4047V84.3267Z" fill="black"/>
<path d="M80.9183 84.3267H77.2993V87.9457H80.9183V84.3267Z" fill="black"/>
<path d="M84.432 84.3267H80.813V87.9457H84.432V84.3267Z" fill="black"/>
<path d="M87.9457 84.3267H84.3267V87.9457H87.9457V84.3267Z" fill="black"/>
<path d="M94.9728 84.3267H91.3538V87.9457H94.9728V84.3267Z" fill="black"/>
<path d="M98.4864 84.3267H94.8674V87.9457H98.4864V84.3267Z" fill="black"/>
<path d="M31.7279 87.8403H28.1089V91.4593H31.7279V87.8403Z" fill="black"/>
<path d="M35.2416 87.8403H31.6226V91.4593H35.2416V87.8403Z" fill="black"/>
<path d="M42.2687 87.8403H38.6497V91.4593H42.2687V87.8403Z" fill="black"/>
<path d="M45.7823 87.8403H42.1633V91.4593H45.7823V87.8403Z" fill="black"/>
<path d="M52.8094 87.8403H49.1904V91.4593H52.8094V87.8403Z" fill="black"/>
<path d="M56.3231 87.8403H52.7041V91.4593H56.3231V87.8403Z" fill="black"/>
<path d="M63.3502 87.8403H59.7312V91.4593H63.3502V87.8403Z" fill="black"/>
<path d="M66.8639 87.8403H63.2449V91.4593H66.8639V87.8403Z" fill="black"/>
<path d="M91.4591 87.8403H87.8401V91.4593H91.4591V87.8403Z" fill="black"/>
<path d="M94.9728 87.8403H91.3538V91.4593H94.9728V87.8403Z" fill="black"/>
<path d="M31.7279 91.354H28.1089V94.973H31.7279V91.354Z" fill="black"/>
<path d="M35.2416 91.354H31.6226V94.973H35.2416V91.354Z" fill="black"/>
<path d="M49.296 91.354H45.677V94.973H49.296V91.354Z" fill="black"/>
<path d="M56.3231 91.354H52.7041V94.973H56.3231V91.354Z" fill="black"/>
<path d="M59.8368 91.354H56.2178V94.973H59.8368V91.354Z" fill="black"/>
<path d="M63.3502 91.354H59.7312V94.973H63.3502V91.354Z" fill="black"/>
<path d="M80.9183 91.354H77.2993V94.973H80.9183V91.354Z" fill="black"/>
<path d="M84.432 91.354H80.813V94.973H84.432V91.354Z" fill="black"/>
<path d="M87.9457 91.354H84.3267V94.973H87.9457V91.354Z" fill="black"/>
<path d="M91.4591 91.354H87.8401V94.973H91.4591V91.354Z" fill="black"/>
<path d="M94.9728 91.354H91.3538V94.973H94.9728V91.354Z" fill="black"/>
<path d="M98.4864 91.354H94.8674V94.973H98.4864V91.354Z" fill="black"/>
<path d="M35.2416 94.8672H31.6226V98.4862H35.2416V94.8672Z" fill="black"/>
<path d="M45.7823 94.8672H42.1633V98.4862H45.7823V94.8672Z" fill="black"/>
<path d="M56.3231 94.8672H52.7041V98.4862H56.3231V94.8672Z" fill="black"/>
<path d="M63.3502 94.8672H59.7312V98.4862H63.3502V94.8672Z" fill="black"/>
<path d="M66.8639 94.8672H63.2449V98.4862H66.8639V94.8672Z" fill="black"/>
<path d="M73.8912 94.8672H70.2722V98.4862H73.8912V94.8672Z" fill="black"/>
<path d="M77.4047 94.8672H73.7856V98.4862H77.4047V94.8672Z" fill="black"/>
<path d="M84.432 94.8672H80.813V98.4862H84.432V94.8672Z" fill="black"/>
<path d="M91.4591 94.8672H87.8401V98.4862H91.4591V94.8672Z" fill="black"/>
<path d="M98.4864 94.8672H94.8674V98.4862H98.4864V94.8672Z" fill="black"/>
<path d="M31.7279 98.3809H28.1089V102H31.7279V98.3809Z" fill="black"/>
<path d="M38.755 98.3809H35.136V102H38.755V98.3809Z" fill="black"/>
<path d="M42.2687 98.3809H38.6497V102H42.2687V98.3809Z" fill="black"/>
<path d="M52.8094 98.3809H49.1904V102H52.8094V98.3809Z" fill="black"/>
<path d="M56.3231 98.3809H52.7041V102H56.3231V98.3809Z" fill="black"/>
<path d="M77.4047 98.3809H73.7856V102H77.4047V98.3809Z" fill="black"/>
<path d="M80.9183 98.3809H77.2993V102H80.9183V98.3809Z" fill="black"/>
<path d="M84.432 98.3809H80.813V102H84.432V98.3809Z" fill="black"/>
<path d="M87.9457 98.3809H84.3267V102H87.9457V98.3809Z" fill="black"/>
<path d="M91.4591 98.3809H87.8401V102H91.4591V98.3809Z" fill="black"/>
<path d="M94.9728 98.3809H91.3538V102H94.9728V98.3809Z" fill="black"/>
<path d="M0 0V24.5952H24.5952V0H0ZM21.0816 21.0816H3.51361V3.51361H21.0816V21.0816Z" fill="black"/>
<path d="M77.2993 0V24.5952H101.895V0H77.2993ZM98.381 21.0816H80.8129V3.51361H98.381V21.0816Z" fill="black"/>
<path d="M0 77.2993V101.895H24.5952V77.2993H0ZM21.0816 98.381H3.51361V80.8129H21.0816V98.381Z" fill="black"/>
<path d="M17.5679 7.02734H7.0271V17.5682H17.5679V7.02734Z" fill="black"/>
<path d="M94.8675 7.02734H84.3267V17.5682H94.8675V7.02734Z" fill="black"/>
<path d="M17.5679 84.3267H7.0271V94.8675H17.5679V84.3267Z" fill="black"/>
</g>
<defs>
<clipPath id="clip0_827_2057">
<rect width="102" height="102" fill="white"/>
</clipPath>
</defs>
</svg>
