<svg width="142" height="54" viewBox="0 0 142 54" fill="none" xmlns="http://www.w3.org/2000/svg">
<g clip-path="url(#clip0_810_1401)">
<path d="M80.9002 23.9002C86.3676 18.4327 86.3676 9.56825 80.9002 4.10082C75.4327 -1.36662 66.5683 -1.36662 61.1008 4.10082C55.6334 9.56825 55.6334 18.4327 61.1008 23.9002C66.5683 29.3676 75.4327 29.3676 80.9002 23.9002Z" fill="#4763D5"/>
<path d="M72.3501 5.67731C72.5243 5.70494 72.6984 5.73158 72.8725 5.7597C74.877 6.08678 76.5271 7.03644 77.8276 8.59191C78.2855 9.14254 78.6658 9.75338 78.9578 10.4074C78.9874 10.4725 79.0229 10.5346 79.0565 10.5983C79.0757 10.6595 79.091 10.7216 79.1142 10.7808C79.5547 11.8998 79.7313 13.1054 79.6302 14.3037C79.4768 16.1887 78.7452 17.8271 77.4418 19.199C76.2854 20.4171 74.8765 21.1936 73.2302 21.533C72.9401 21.5927 72.6426 21.6183 72.3486 21.6588C72.2371 21.6741 72.1256 21.6859 72.0142 21.6992L71.8691 21.7032L71.7246 21.7061C71.4843 21.6918 71.2436 21.681 71.0033 21.6627C69.9666 21.582 68.9561 21.297 68.03 20.8241C68.0081 20.8141 67.9868 20.8027 67.9664 20.79C67.8716 20.7269 67.7769 20.7323 67.6704 20.7619C67.0197 20.9405 66.3675 21.1127 65.7153 21.2868C65.0631 21.4609 64.4119 21.6356 63.7602 21.8087C63.6838 21.829 63.6063 21.8438 63.5219 21.863C63.48 21.7693 63.5219 21.6948 63.5397 21.6218C63.6522 21.1945 63.7681 20.7683 63.8826 20.3421C64.0141 19.8537 64.1457 19.3651 64.2772 18.8764C64.2955 18.8068 64.3083 18.7358 64.3241 18.6652C64.4183 18.3248 64.5111 17.984 64.6083 17.644C64.6183 17.6137 64.6215 17.5815 64.6176 17.5497C64.6137 17.518 64.6027 17.4875 64.5856 17.4605C64.5649 17.426 64.5481 17.389 64.5298 17.3535C64.0723 16.4915 63.7841 15.5499 63.6808 14.5795C63.4341 12.1281 64.1421 9.98261 65.8204 8.1785C67.0197 6.88992 68.5066 6.10306 70.2382 5.78288C70.8168 5.68037 71.4049 5.64215 71.9919 5.66892C72.1094 5.67731 72.2297 5.67731 72.3501 5.67731ZM68.6348 19.4191C68.6689 19.4403 68.7009 19.4649 68.7365 19.4827C69.8018 20.0199 70.9951 20.2518 72.1841 20.1525C73.3731 20.0532 74.5114 19.6267 75.4729 18.9203C76.458 18.2038 77.2211 17.224 77.6747 16.0935C78.1283 14.9629 78.2539 13.7274 78.0372 12.5287C77.7822 11.1148 77.1167 9.91404 76.0708 8.93033C76.0403 8.90505 76.0083 8.8815 75.9751 8.85979C75.9507 8.8287 75.9242 8.79935 75.8957 8.77198C74.317 7.44689 72.5075 6.9284 70.4809 7.29198C68.6309 7.62301 67.1874 8.61312 66.1677 10.1918C65.2851 11.5578 64.9876 13.061 65.2215 14.6658C65.3483 15.5109 65.6452 16.3215 66.0942 17.0486C66.1519 17.1443 66.2071 17.2415 66.2594 17.3313C66.2353 17.4235 66.215 17.501 66.1943 17.5779C66.0177 18.2377 65.8414 18.8973 65.6655 19.5567C65.6517 19.606 65.6161 19.6623 65.6808 19.7279L68.0349 19.0994L68.6348 19.4191Z" fill="#FEFEFE"/>
<path d="M71.5892 15.0101C71.8547 15.1915 72.1426 15.338 72.4457 15.4457C72.604 15.5059 72.6977 15.4753 72.8048 15.3372C72.8832 15.2355 72.9459 15.1221 73.0194 15.0165C73.0952 14.9029 73.1768 14.7933 73.2636 14.6879C73.4116 14.5167 73.6089 14.4635 73.8304 14.4837C73.9679 14.4914 74.1023 14.5275 74.2251 14.5897C74.5211 14.7521 74.8171 14.9139 75.1091 15.0831C75.1773 15.1264 75.2412 15.1759 75.3001 15.2311C75.525 15.4245 75.5852 15.6706 75.5186 15.9513C75.462 16.1961 75.3382 16.4201 75.161 16.5981C74.6721 17.0914 74.081 17.3139 73.3889 17.2286C72.898 17.1679 72.4402 16.9854 71.9844 16.8043C71.6496 16.6666 71.3275 16.4997 71.0219 16.3056C70.9538 16.2636 70.8823 16.2276 70.8122 16.1886C70.7752 16.1581 70.7407 16.125 70.7017 16.0979C69.6519 15.3682 68.8374 14.4289 68.2173 13.3165C68.017 12.9568 67.8503 12.5824 67.7911 12.17C67.7131 11.6248 67.8083 11.1137 68.1112 10.648C68.2121 10.4924 68.3389 10.3553 68.4862 10.2425C68.6509 10.1112 68.8521 10.0341 69.0624 10.0215C69.1711 10.0123 69.2805 10.0289 69.3816 10.0699C69.4828 10.1108 69.5728 10.1751 69.6445 10.2573C69.737 10.3579 69.816 10.4702 69.8793 10.5913C70.0116 10.8572 70.1285 11.1305 70.2488 11.4023C70.2737 11.4617 70.2938 11.5229 70.309 11.5854C70.3919 11.8907 70.3515 12.1774 70.161 12.4319C70.0841 12.5345 70.0007 12.6322 69.9208 12.7333C69.8795 12.7825 69.8415 12.8342 69.8068 12.8882C69.7831 12.9259 69.7694 12.9691 69.767 13.0135C69.7647 13.058 69.7738 13.1024 69.7935 13.1423C69.81 13.1789 69.8286 13.2145 69.8492 13.2489C70.2611 13.9435 70.8281 14.5335 71.5058 14.9726C71.5327 14.987 71.5606 14.9995 71.5892 15.0101Z" fill="#FEFEFE"/>
</g>
<path d="M39.9642 51L37.1801 40.8182H38.433L40.5608 49.1108H40.6602L42.8279 40.8182H44.2199L46.3875 49.1108H46.4869L48.6148 40.8182H49.8676L47.0835 51H45.8108L43.5637 42.8864H43.4841L41.2369 51H39.9642ZM52.4181 46.4062V51H51.2448V40.8182H52.4181V44.5568H52.5175C52.6965 44.1624 52.9649 43.8492 53.3229 43.6172C53.6842 43.3819 54.1647 43.2642 54.7646 43.2642C55.285 43.2642 55.7407 43.3686 56.1318 43.5774C56.5229 43.7829 56.8262 44.0994 57.0416 44.527C57.2604 44.9512 57.3698 45.4915 57.3698 46.1477V51H56.1965V46.2273C56.1965 45.6207 56.039 45.1518 55.7242 44.8203C55.4126 44.4856 54.9801 44.3182 54.4266 44.3182C54.0421 44.3182 53.6974 44.3994 53.3925 44.5618C53.0909 44.7242 52.8522 44.9612 52.6766 45.2727C52.5042 45.5843 52.4181 45.9621 52.4181 46.4062ZM61.7634 51.179C61.2795 51.179 60.8403 51.0878 60.4459 50.9055C60.0515 50.7199 59.7383 50.4531 59.5063 50.1051C59.2743 49.7538 59.1583 49.3295 59.1583 48.8324C59.1583 48.3949 59.2445 48.0402 59.4168 47.7685C59.5892 47.4934 59.8195 47.2779 60.1079 47.1222C60.3962 46.9664 60.7144 46.8504 61.0624 46.7741C61.4137 46.6946 61.7667 46.6316 62.1214 46.5852C62.5854 46.5256 62.9616 46.4808 63.2499 46.451C63.5416 46.4179 63.7537 46.3632 63.8863 46.2869C64.0222 46.2107 64.0901 46.0781 64.0901 45.8892V45.8494C64.0901 45.3589 63.9559 44.9777 63.6874 44.706C63.4223 44.4342 63.0196 44.2983 62.4793 44.2983C61.9192 44.2983 61.48 44.4209 61.1618 44.6662C60.8437 44.9115 60.6199 45.1733 60.4907 45.4517L59.377 45.054C59.5759 44.59 59.8411 44.2287 60.1725 43.9702C60.5073 43.7083 60.8718 43.526 61.2662 43.4233C61.664 43.3172 62.0551 43.2642 62.4395 43.2642C62.6848 43.2642 62.9665 43.294 63.2847 43.3537C63.6062 43.41 63.9161 43.5277 64.2144 43.7067C64.516 43.8857 64.7662 44.1558 64.9651 44.517C65.164 44.8783 65.2634 45.3622 65.2634 45.9688V51H64.0901V49.9659H64.0305C63.9509 50.1316 63.8183 50.3089 63.6327 50.4979C63.4471 50.6868 63.2002 50.8475 62.892 50.9801C62.5837 51.1127 62.2075 51.179 61.7634 51.179ZM61.9424 50.125C62.4064 50.125 62.7975 50.0339 63.1157 49.8516C63.4372 49.6693 63.6791 49.4339 63.8415 49.1456C64.0073 48.8572 64.0901 48.554 64.0901 48.2358V47.1619C64.0404 47.2216 63.931 47.2763 63.762 47.326C63.5963 47.3724 63.404 47.4138 63.1853 47.4503C62.9698 47.4834 62.7594 47.5133 62.5539 47.5398C62.3517 47.563 62.1876 47.5829 62.0617 47.5994C61.7568 47.6392 61.4717 47.7038 61.2066 47.7933C60.9448 47.8795 60.7326 48.0104 60.5702 48.1861C60.4111 48.3584 60.3316 48.5937 60.3316 48.892C60.3316 49.2997 60.4824 49.608 60.784 49.8168C61.0889 50.0223 61.4751 50.125 61.9424 50.125ZM70.7259 43.3636V44.358H66.7686V43.3636H70.7259ZM67.922 41.5341H69.0953V48.8125C69.0953 49.1439 69.1433 49.3925 69.2394 49.5582C69.3389 49.7206 69.4648 49.83 69.6173 49.8864C69.7731 49.9394 69.9371 49.9659 70.1095 49.9659C70.2387 49.9659 70.3448 49.9593 70.4276 49.946C70.5105 49.9295 70.5768 49.9162 70.6265 49.9062L70.8651 50.9602C70.7856 50.9901 70.6746 51.0199 70.532 51.0497C70.3895 51.0829 70.2089 51.0994 69.9901 51.0994C69.6587 51.0994 69.3339 51.0282 69.0157 50.8857C68.7008 50.7431 68.439 50.526 68.2302 50.2344C68.0247 49.9427 67.922 49.5748 67.922 49.1307V41.5341ZM77.7632 45.0739L76.7093 45.3722C76.643 45.1965 76.5452 45.0258 76.4159 44.8601C76.29 44.6911 76.1176 44.5518 75.8989 44.4425C75.6801 44.3331 75.4001 44.2784 75.0587 44.2784C74.5914 44.2784 74.2019 44.3861 73.8904 44.6016C73.5821 44.8137 73.428 45.0838 73.428 45.4119C73.428 45.7036 73.5341 45.9339 73.7462 46.103C73.9583 46.272 74.2897 46.4129 74.7405 46.5256L75.874 46.804C76.5568 46.9697 77.0655 47.2232 77.4003 47.5646C77.7351 47.9027 77.9024 48.3385 77.9024 48.8722C77.9024 49.3097 77.7765 49.7008 77.5246 50.0455C77.276 50.3902 76.928 50.6619 76.4806 50.8608C76.0331 51.0597 75.5128 51.1591 74.9195 51.1591C74.1406 51.1591 73.4959 50.9901 72.9855 50.652C72.4751 50.3139 72.152 49.8201 72.0161 49.1705L73.1297 48.892C73.2358 49.303 73.4363 49.6113 73.7313 49.8168C74.0296 50.0223 74.419 50.125 74.8996 50.125C75.4465 50.125 75.8807 50.009 76.2021 49.777C76.527 49.5417 76.6894 49.2599 76.6894 48.9318C76.6894 48.6667 76.5966 48.4446 76.411 48.2656C76.2253 48.0833 75.9403 47.9474 75.5558 47.858L74.2831 47.5597C73.5838 47.3939 73.07 47.1371 72.7419 46.7891C72.4171 46.4377 72.2547 45.9986 72.2547 45.4716C72.2547 45.0407 72.3757 44.6596 72.6176 44.3281C72.8629 43.9967 73.196 43.7365 73.6169 43.5476C74.0412 43.3587 74.5218 43.2642 75.0587 43.2642C75.8144 43.2642 76.4076 43.4299 76.8385 43.7614C77.2727 44.0928 77.5809 44.5303 77.7632 45.0739ZM80.2453 51H78.9527L82.6913 40.8182H83.964L87.7027 51H86.4101L83.3675 42.429H83.2879L80.2453 51ZM80.7226 47.0227H85.9328V48.1165H80.7226V47.0227ZM89.1295 53.8636V43.3636H90.2631V44.5767H90.4023C90.4884 44.4441 90.6077 44.2751 90.7602 44.0696C90.916 43.8608 91.1381 43.6752 91.4264 43.5128C91.7181 43.3471 92.1125 43.2642 92.6096 43.2642C93.2526 43.2642 93.8194 43.425 94.3099 43.7464C94.8005 44.0679 95.1833 44.5237 95.4584 45.1136C95.7335 45.7036 95.871 46.3996 95.871 47.2017C95.871 48.0104 95.7335 48.7114 95.4584 49.3047C95.1833 49.8946 94.8021 50.352 94.3149 50.6768C93.8277 50.9983 93.2659 51.1591 92.6295 51.1591C92.139 51.1591 91.7462 51.0779 91.4513 50.9155C91.1563 50.7498 90.9292 50.5625 90.7702 50.3537C90.6111 50.1416 90.4884 49.9659 90.4023 49.8267H90.3028V53.8636H89.1295ZM90.2829 47.1818C90.2829 47.7585 90.3675 48.2673 90.5365 48.7081C90.7055 49.1456 90.9524 49.4886 91.2773 49.7372C91.6021 49.9825 91.9998 50.1051 92.4704 50.1051C92.961 50.1051 93.3703 49.9759 93.6984 49.7173C94.0299 49.4555 94.2784 49.1042 94.4442 48.6634C94.6132 48.2192 94.6977 47.7254 94.6977 47.1818C94.6977 46.6449 94.6148 46.161 94.4491 45.7301C94.2867 45.2959 94.0398 44.9529 93.7084 44.701C93.3802 44.4458 92.9676 44.3182 92.4704 44.3182C91.9932 44.3182 91.5921 44.4392 91.2673 44.6811C90.9425 44.9197 90.6972 45.2545 90.5315 45.6854C90.3658 46.1129 90.2829 46.6117 90.2829 47.1818ZM97.6608 53.8636V43.3636H98.7943V44.5767H98.9335C99.0197 44.4441 99.139 44.2751 99.2915 44.0696C99.4472 43.8608 99.6693 43.6752 99.9577 43.5128C100.249 43.3471 100.644 43.2642 101.141 43.2642C101.784 43.2642 102.351 43.425 102.841 43.7464C103.332 44.0679 103.715 44.5237 103.99 45.1136C104.265 45.7036 104.402 46.3996 104.402 47.2017C104.402 48.0104 104.265 48.7114 103.99 49.3047C103.715 49.8946 103.333 50.352 102.846 50.6768C102.359 50.9983 101.797 51.1591 101.161 51.1591C100.67 51.1591 100.277 51.0779 99.9825 50.9155C99.6875 50.7498 99.4605 50.5625 99.3014 50.3537C99.1423 50.1416 99.0197 49.9659 98.9335 49.8267H98.8341V53.8636H97.6608ZM98.8142 47.1818C98.8142 47.7585 98.8987 48.2673 99.0677 48.7081C99.2368 49.1456 99.4837 49.4886 99.8085 49.7372C100.133 49.9825 100.531 50.1051 101.002 50.1051C101.492 50.1051 101.902 49.9759 102.23 49.7173C102.561 49.4555 102.81 49.1042 102.975 48.6634C103.144 48.2192 103.229 47.7254 103.229 47.1818C103.229 46.6449 103.146 46.161 102.98 45.7301C102.818 45.2959 102.571 44.9529 102.24 44.701C101.911 44.4458 101.499 44.3182 101.002 44.3182C100.524 44.3182 100.123 44.4392 99.7986 44.6811C99.4738 44.9197 99.2285 45.2545 99.0628 45.6854C98.897 46.1129 98.8142 46.6117 98.8142 47.1818Z" fill="#4763D5"/>
<defs>
<clipPath id="clip0_810_1401">
<rect width="28" height="28" fill="white" transform="translate(57)"/>
</clipPath>
</defs>
</svg>
