<svg width="314" height="101" viewBox="0 0 314 101" fill="none" xmlns="http://www.w3.org/2000/svg">
<path d="M80.252 87.196C79.468 87.196 78.7101 87.0653 77.9784 86.804C77.2467 86.5296 76.5999 86.1115 76.038 85.5496C75.4761 84.9877 75.0253 84.2691 74.6856 83.3936C74.3459 82.5181 74.176 81.4663 74.176 80.238V79.846C74.176 78.67 74.3459 77.6573 74.6856 76.808C75.0253 75.9587 75.4761 75.2596 76.038 74.7108C76.5999 74.1489 77.2467 73.7373 77.9784 73.476C78.7101 73.2147 79.468 73.084 80.252 73.084C81.036 73.084 81.7939 73.2147 82.5256 73.476C83.2573 73.7373 83.9041 74.1489 84.466 74.7108C85.0279 75.2596 85.4787 75.9587 85.8184 76.808C86.1581 77.6573 86.328 78.67 86.328 79.846V80.238C86.328 81.4663 86.1581 82.5181 85.8184 83.3936C85.4787 84.2691 85.0279 84.9877 84.466 85.5496C83.9041 86.1115 83.2573 86.5296 82.5256 86.804C81.7939 87.0653 81.036 87.196 80.252 87.196ZM80.252 85.5496C80.7877 85.5496 81.3039 85.4516 81.8004 85.2556C82.2969 85.0596 82.7347 84.7525 83.1136 84.3344C83.4925 83.9032 83.7931 83.3544 84.0152 82.688C84.2504 82.0085 84.368 81.1919 84.368 80.238V79.846C84.368 78.9444 84.2504 78.1735 84.0152 77.5332C83.7931 76.8799 83.4925 76.3507 83.1136 75.9456C82.7347 75.5275 82.2969 75.2204 81.8004 75.0244C81.3039 74.8284 80.7877 74.7304 80.252 74.7304C79.7163 74.7304 79.2001 74.8284 78.7036 75.0244C78.2071 75.2204 77.7693 75.5275 77.3904 75.9456C77.0115 76.3507 76.7044 76.8799 76.4692 77.5332C76.2471 78.1735 76.136 78.9444 76.136 79.846V80.238C76.136 81.1919 76.2471 82.0085 76.4692 82.688C76.7044 83.3544 77.0115 83.9032 77.3904 84.3344C77.7693 84.7525 78.2071 85.0596 78.7036 85.2556C79.2001 85.4516 79.7163 85.5496 80.252 85.5496ZM93.3886 87.196C92.6961 87.196 92.0493 87.0653 91.4482 86.804C90.8602 86.5427 90.3441 86.1637 89.8998 85.6672C89.4686 85.1576 89.1223 84.5369 88.861 83.8052C88.6127 83.0735 88.4886 82.2437 88.4886 81.316V80.924C88.4886 79.748 88.5735 78.7027 88.7434 77.788C88.9133 76.8603 89.2007 76.0763 89.6058 75.436C90.0239 74.7827 90.5662 74.2731 91.2326 73.9072C91.9121 73.5413 92.7614 73.3323 93.7806 73.28C94.6038 73.2408 95.3225 73.2081 95.9366 73.182C96.5507 73.1428 97.0734 73.0121 97.5046 72.79V74.456C97.2955 74.5736 96.9101 74.6651 96.3482 74.7304C95.7994 74.7957 95.0415 74.8415 94.0746 74.8676C93.4474 74.8807 92.8921 74.9591 92.4086 75.1028C91.9382 75.2465 91.5331 75.4752 91.1934 75.7888C90.8667 76.1024 90.6054 76.514 90.4094 77.0236C90.2265 77.5201 90.1089 78.1343 90.0566 78.866C90.3702 78.1735 90.8537 77.6247 91.507 77.2196C92.1603 76.8145 92.9182 76.612 93.7806 76.612C94.447 76.612 95.0546 76.7296 95.6034 76.9648C96.1522 77.1869 96.6226 77.5071 97.0146 77.9252C97.4197 78.3433 97.7333 78.8595 97.9554 79.4736C98.1775 80.0747 98.2886 80.7541 98.2886 81.512V81.904C98.2886 82.7141 98.1645 83.4459 97.9162 84.0992C97.6679 84.7395 97.3282 85.2948 96.897 85.7652C96.4658 86.2225 95.9497 86.5753 95.3486 86.8236C94.7475 87.0719 94.0942 87.196 93.3886 87.196ZM93.3886 85.628C94.3033 85.628 95.0546 85.3144 95.6426 84.6872C96.2306 84.0469 96.5246 83.1192 96.5246 81.904V81.512C96.5246 81.0024 96.4462 80.5451 96.2894 80.14C96.1326 79.7349 95.917 79.3887 95.6426 79.1012C95.3682 78.8007 95.035 78.572 94.643 78.4152C94.2641 78.2584 93.8459 78.18 93.3886 78.18C92.9313 78.18 92.5066 78.2584 92.1146 78.4152C91.7357 78.572 91.409 78.8007 91.1346 79.1012C90.8602 79.3887 90.6446 79.7349 90.4878 80.14C90.331 80.5451 90.2526 81.0024 90.2526 81.512V81.904C90.2526 82.4789 90.331 83.0016 90.4878 83.472C90.6577 83.9293 90.8863 84.3213 91.1738 84.648C91.4613 84.9616 91.7945 85.2033 92.1734 85.3732C92.5523 85.5431 92.9574 85.628 93.3886 85.628ZM100.733 76.612H102.34V78.572C102.693 77.8795 103.183 77.3503 103.81 76.9844C104.451 76.6055 105.189 76.416 106.025 76.416C107.332 76.416 108.377 76.8472 109.161 77.7096C109.945 78.5589 110.337 79.8264 110.337 81.512V81.904C110.337 82.7925 110.233 83.57 110.024 84.2364C109.815 84.8897 109.521 85.4385 109.142 85.8828C108.763 86.314 108.305 86.6407 107.77 86.8628C107.247 87.0849 106.666 87.196 106.025 87.196C105.137 87.196 104.392 87 103.791 86.608C103.203 86.216 102.759 85.726 102.458 85.138V90.92H100.733V76.612ZM105.633 85.6672C106.051 85.6672 106.443 85.5888 106.809 85.432C107.175 85.2621 107.489 85.0204 107.75 84.7068C108.024 84.3932 108.234 84.0012 108.377 83.5308C108.534 83.0604 108.612 82.5181 108.612 81.904V81.512C108.612 80.9501 108.534 80.4471 108.377 80.0028C108.234 79.5585 108.024 79.1861 107.75 78.8856C107.489 78.572 107.175 78.3368 106.809 78.18C106.443 78.0232 106.051 77.9448 105.633 77.9448C105.163 77.9448 104.732 78.0232 104.34 78.18C103.948 78.3237 103.614 78.5328 103.34 78.8072C103.066 79.0685 102.85 79.3821 102.693 79.748C102.536 80.1139 102.458 80.5059 102.458 80.924V82.492C102.458 82.9624 102.536 83.3936 102.693 83.7856C102.85 84.1776 103.066 84.5108 103.34 84.7852C103.614 85.0596 103.948 85.2752 104.34 85.432C104.732 85.5888 105.163 85.6672 105.633 85.6672ZM115.751 87.196C115.176 87.196 114.667 87.1176 114.223 86.9608C113.791 86.7909 113.426 86.5623 113.125 86.2748C112.824 85.9873 112.596 85.6476 112.439 85.2556C112.282 84.8636 112.204 84.4324 112.204 83.962C112.204 82.9297 112.504 82.1849 113.105 81.7276C113.72 81.2703 114.595 81.0416 115.732 81.0416H119.103V80.336C119.103 79.4475 118.9 78.8333 118.495 78.4936C118.103 78.1539 117.509 77.984 116.712 77.984C115.967 77.984 115.425 78.1277 115.085 78.4152C114.745 78.6896 114.556 79.0032 114.517 79.356H112.792C112.818 78.9379 112.929 78.5524 113.125 78.1996C113.334 77.8337 113.608 77.5201 113.948 77.2588C114.301 76.9975 114.719 76.7949 115.203 76.6512C115.686 76.4944 116.222 76.416 116.81 76.416C118.038 76.416 119.012 76.71 119.73 77.298C120.462 77.8729 120.828 78.8203 120.828 80.14V84.354C120.828 84.9028 120.828 85.3863 120.828 85.8044C120.841 86.2095 120.874 86.608 120.926 87H119.417C119.377 86.6995 119.351 86.4185 119.338 86.1572C119.325 85.8828 119.319 85.5757 119.319 85.236C119.044 85.7848 118.6 86.2487 117.986 86.6276C117.372 87.0065 116.627 87.196 115.751 87.196ZM116.124 85.628C116.529 85.628 116.908 85.5757 117.261 85.4712C117.626 85.3536 117.947 85.1903 118.221 84.9812C118.495 84.7591 118.711 84.4912 118.868 84.1776C119.025 83.864 119.103 83.4981 119.103 83.08V82.3744H116.026C115.386 82.3744 114.882 82.5051 114.517 82.7664C114.151 83.0147 113.968 83.4132 113.968 83.962C113.968 84.4455 114.138 84.844 114.477 85.1576C114.83 85.4712 115.379 85.628 116.124 85.628ZM127.402 87.196C126.096 87.196 125.07 86.9216 124.325 86.3728C123.58 85.824 123.169 85.0531 123.09 84.06H124.815C124.907 84.5696 125.174 84.9616 125.619 85.236C126.076 85.4973 126.671 85.628 127.402 85.628C128.304 85.628 128.957 85.4777 129.362 85.1772C129.78 84.8636 129.989 84.4912 129.989 84.06C129.989 83.5504 129.82 83.1519 129.48 82.8644C129.14 82.5639 128.552 82.4136 127.716 82.4136H125.932V81.0024H127.598C128.317 81.0024 128.827 80.8652 129.127 80.5908C129.441 80.3164 129.597 79.9309 129.597 79.4344C129.597 79.0424 129.415 78.7027 129.049 78.4152C128.683 78.1277 128.134 77.984 127.402 77.984C126.605 77.984 126.024 78.1147 125.658 78.376C125.305 78.6243 125.089 78.9836 125.011 79.454H123.286C123.325 79.0228 123.443 78.6243 123.639 78.2584C123.848 77.8795 124.129 77.5528 124.482 77.2784C124.835 77.004 125.253 76.7949 125.736 76.6512C126.233 76.4944 126.788 76.416 127.402 76.416C128.069 76.416 128.644 76.4944 129.127 76.6512C129.624 76.7949 130.035 77.004 130.362 77.2784C130.689 77.5397 130.93 77.8533 131.087 78.2192C131.244 78.5851 131.322 78.9901 131.322 79.4344C131.322 79.9309 131.198 80.3687 130.95 80.7476C130.702 81.1135 130.303 81.4009 129.754 81.61C130.486 81.806 130.996 82.1196 131.283 82.5508C131.571 82.982 131.714 83.4851 131.714 84.06C131.714 84.4912 131.623 84.8963 131.44 85.2752C131.257 85.6541 130.983 85.9873 130.617 86.2748C130.264 86.5492 129.813 86.7713 129.264 86.9412C128.729 87.1111 128.108 87.196 127.402 87.196ZM138.484 87.196C137.818 87.196 137.184 87.0915 136.583 86.8824C135.982 86.6603 135.452 86.3336 134.995 85.9024C134.538 85.4581 134.172 84.9028 133.898 84.2364C133.623 83.57 133.486 82.7925 133.486 81.904V81.512C133.486 80.6757 133.623 79.9375 133.898 79.2972C134.172 78.6569 134.538 78.1277 134.995 77.7096C135.452 77.2784 135.982 76.9583 136.583 76.7492C137.184 76.5271 137.818 76.416 138.484 76.416C139.15 76.416 139.784 76.5271 140.385 76.7492C140.986 76.9583 141.515 77.2784 141.973 77.7096C142.43 78.1277 142.796 78.6569 143.07 79.2972C143.345 79.9375 143.482 80.6757 143.482 81.512V81.904C143.482 82.7925 143.345 83.57 143.07 84.2364C142.796 84.9028 142.43 85.4581 141.973 85.9024C141.515 86.3336 140.986 86.6603 140.385 86.8824C139.784 87.0915 139.15 87.196 138.484 87.196ZM138.484 85.628C138.876 85.628 139.268 85.5627 139.66 85.432C140.052 85.2883 140.398 85.0727 140.699 84.7852C140.999 84.4847 141.241 84.0992 141.424 83.6288C141.62 83.1584 141.718 82.5835 141.718 81.904V81.512C141.718 80.8848 141.62 80.3491 141.424 79.9048C141.241 79.4605 140.999 79.0947 140.699 78.8072C140.398 78.5197 140.052 78.3107 139.66 78.18C139.268 78.0493 138.876 77.984 138.484 77.984C138.092 77.984 137.7 78.0493 137.308 78.18C136.916 78.3107 136.57 78.5197 136.269 78.8072C135.969 79.0947 135.72 79.4605 135.524 79.9048C135.341 80.3491 135.25 80.8848 135.25 81.512V81.904C135.25 82.5835 135.341 83.1584 135.524 83.6288C135.72 84.0992 135.969 84.4847 136.269 84.7852C136.57 85.0727 136.916 85.2883 137.308 85.432C137.7 85.5627 138.092 85.628 138.484 85.628ZM145.924 76.612H150.432C151.713 76.612 152.654 76.8799 153.255 77.4156C153.856 77.9383 154.156 78.6177 154.156 79.454C154.156 79.6761 154.117 79.9048 154.039 80.14C153.96 80.3621 153.849 80.5712 153.705 80.7672C153.575 80.9632 153.411 81.1331 153.215 81.2768C153.033 81.4205 152.823 81.5316 152.588 81.61C153.229 81.7668 153.712 82.0673 154.039 82.5116C154.378 82.9428 154.548 83.4524 154.548 84.0404C154.548 84.942 154.248 85.6607 153.647 86.1964C153.046 86.7321 152.105 87 150.824 87H145.924V76.612ZM150.824 85.4712C151.556 85.4712 152.072 85.3405 152.373 85.0792C152.673 84.8179 152.823 84.4455 152.823 83.962C152.823 83.4655 152.673 83.0865 152.373 82.8252C152.072 82.5508 151.556 82.4136 150.824 82.4136H147.649V85.4712H150.824ZM150.432 81.0024C151.177 81.0024 151.693 80.8717 151.981 80.6104C152.281 80.3491 152.431 79.9897 152.431 79.5324C152.431 79.1012 152.281 78.7615 151.981 78.5132C151.693 78.2649 151.177 78.1408 150.432 78.1408H147.649V81.0024H150.432ZM159.966 87.196C159.391 87.196 158.882 87.1176 158.437 86.9608C158.006 86.7909 157.64 86.5623 157.34 86.2748C157.039 85.9873 156.811 85.6476 156.654 85.2556C156.497 84.8636 156.419 84.4324 156.419 83.962C156.419 82.9297 156.719 82.1849 157.32 81.7276C157.934 81.2703 158.81 81.0416 159.947 81.0416H163.318V80.336C163.318 79.4475 163.115 78.8333 162.71 78.4936C162.318 78.1539 161.724 77.984 160.927 77.984C160.182 77.984 159.64 78.1277 159.3 78.4152C158.96 78.6896 158.771 79.0032 158.731 79.356H157.007C157.033 78.9379 157.144 78.5524 157.34 78.1996C157.549 77.8337 157.823 77.5201 158.163 77.2588C158.516 76.9975 158.934 76.7949 159.417 76.6512C159.901 76.4944 160.437 76.416 161.025 76.416C162.253 76.416 163.226 76.71 163.945 77.298C164.677 77.8729 165.043 78.8203 165.043 80.14V84.354C165.043 84.9028 165.043 85.3863 165.043 85.8044C165.056 86.2095 165.088 86.608 165.141 87H163.631C163.592 86.6995 163.566 86.4185 163.553 86.1572C163.54 85.8828 163.533 85.5757 163.533 85.236C163.259 85.7848 162.815 86.2487 162.201 86.6276C161.587 87.0065 160.842 87.196 159.966 87.196ZM160.339 85.628C160.744 85.628 161.123 85.5757 161.475 85.4712C161.841 85.3536 162.161 85.1903 162.436 84.9812C162.71 84.7591 162.926 84.4912 163.083 84.1776C163.239 83.864 163.318 83.4981 163.318 83.08V82.3744H160.241C159.6 82.3744 159.097 82.5051 158.731 82.7664C158.366 83.0147 158.183 83.4132 158.183 83.962C158.183 84.4455 158.353 84.844 158.692 85.1576C159.045 85.4712 159.594 85.628 160.339 85.628ZM170.269 78.1408H166.722V76.612H175.542V78.1408H171.994V87H170.269V78.1408ZM181.627 87.196C180.96 87.196 180.327 87.0915 179.726 86.8824C179.125 86.6733 178.595 86.3532 178.138 85.922C177.681 85.4777 177.315 84.9224 177.04 84.256C176.766 83.5896 176.629 82.8056 176.629 81.904V81.512C176.629 80.6496 176.76 79.9048 177.021 79.2776C177.282 78.6373 177.628 78.1081 178.06 77.69C178.504 77.2588 179.014 76.9387 179.588 76.7296C180.176 76.5205 180.791 76.416 181.431 76.416C182.96 76.416 184.142 76.8341 184.978 77.6704C185.815 78.5067 186.233 79.6892 186.233 81.218V82.3156H178.354C178.354 82.9297 178.452 83.4459 178.648 83.864C178.844 84.2821 179.098 84.6219 179.412 84.8832C179.726 85.1445 180.072 85.334 180.451 85.4516C180.843 85.5692 181.235 85.628 181.627 85.628C182.411 85.628 183.012 85.4973 183.43 85.236C183.861 84.9747 184.168 84.6153 184.351 84.158H186.037C185.932 84.6545 185.743 85.0923 185.468 85.4712C185.207 85.8501 184.88 86.1703 184.488 86.4316C184.11 86.6799 183.672 86.8693 183.175 87C182.692 87.1307 182.176 87.196 181.627 87.196ZM181.529 77.984C181.124 77.984 180.732 78.0428 180.353 78.1604C179.974 78.2649 179.634 78.4413 179.334 78.6896C179.046 78.9248 178.811 79.2253 178.628 79.5912C178.445 79.9571 178.354 80.3948 178.354 80.9044H184.606C184.593 80.3687 184.502 79.9179 184.332 79.552C184.175 79.1731 183.959 78.8725 183.685 78.6504C183.41 78.4152 183.084 78.2453 182.705 78.1408C182.339 78.0363 181.947 77.984 181.529 77.984ZM188.003 87.196C187.807 87.196 187.611 87.1764 187.415 87.1372V85.4124C187.48 85.4255 187.578 85.432 187.709 85.432C187.996 85.432 188.245 85.3405 188.454 85.1576C188.676 84.9747 188.852 84.6545 188.983 84.1972C189.114 83.7399 189.212 83.1192 189.277 82.3352C189.342 81.5512 189.375 80.5581 189.375 79.356V76.612H196.823V87H195.098V78.1408H191.1V79.748C191.1 81.1984 191.034 82.4005 190.904 83.3544C190.773 84.3083 190.577 85.0727 190.316 85.6476C190.068 86.2095 189.747 86.608 189.355 86.8432C188.963 87.0784 188.513 87.196 188.003 87.196ZM199.958 76.612H201.683V80.532H204.172C205.479 80.532 206.439 80.8195 207.053 81.3944C207.681 81.9693 207.994 82.7664 207.994 83.7856C207.994 84.7787 207.681 85.5627 207.053 86.1376C206.439 86.7125 205.479 87 204.172 87H199.958V76.612ZM204.074 85.4712C204.884 85.4712 205.453 85.3275 205.779 85.04C206.106 84.7525 206.269 84.3279 206.269 83.766C206.269 83.2041 206.106 82.7795 205.779 82.492C205.453 82.2045 204.884 82.0608 204.074 82.0608H201.683V85.4712H204.074ZM210.256 76.612H211.981V80.9436H217.351V76.612H219.076V87H217.351V82.4724H211.981V87H210.256V76.612ZM222.219 76.612H223.944V80.532H226.041C227.347 80.532 228.308 80.8195 228.922 81.3944C229.549 81.9693 229.863 82.7664 229.863 83.7856C229.863 84.7787 229.549 85.5627 228.922 86.1376C228.308 86.7125 227.347 87 226.041 87H222.219V76.612ZM225.943 85.4712C226.753 85.4712 227.321 85.3275 227.648 85.04C227.975 84.7525 228.138 84.3279 228.138 83.766C228.138 83.2041 227.975 82.7795 227.648 82.492C227.321 82.2045 226.753 82.0608 225.943 82.0608H223.944V85.4712H225.943ZM231.47 76.612H233.195V87H231.47V76.612ZM236.325 76.612H238.05V84.452L243.421 76.612H245.145V87H243.421V79.16L238.05 87H236.325V76.612ZM240.735 75.338C239.716 75.338 238.971 75.1224 238.501 74.6912C238.031 74.2469 237.795 73.6132 237.795 72.79H239.481C239.481 73.6785 239.899 74.1228 240.735 74.1228C241.598 74.1228 242.029 73.6785 242.029 72.79H243.675C243.675 73.6132 243.44 74.2469 242.97 74.6912C242.499 75.1224 241.755 75.338 240.735 75.338ZM261.636 87H253.188V76.612H254.913V85.4712H259.892V76.612H261.616V85.4712H263.282V89.45H261.636V87ZM269.655 87.196C268.988 87.196 268.354 87.0915 267.753 86.8824C267.152 86.6733 266.623 86.3532 266.166 85.922C265.708 85.4777 265.343 84.9224 265.068 84.256C264.794 83.5896 264.657 82.8056 264.657 81.904V81.512C264.657 80.6496 264.787 79.9048 265.049 79.2776C265.31 78.6373 265.656 78.1081 266.087 77.69C266.532 77.2588 267.041 76.9387 267.616 76.7296C268.204 76.5205 268.818 76.416 269.459 76.416C270.987 76.416 272.17 76.8341 273.006 77.6704C273.842 78.5067 274.261 79.6892 274.261 81.218V82.3156H266.381C266.381 82.9297 266.479 83.4459 266.675 83.864C266.871 84.2821 267.126 84.6219 267.44 84.8832C267.753 85.1445 268.1 85.334 268.479 85.4516C268.871 85.5692 269.263 85.628 269.655 85.628C270.439 85.628 271.04 85.4973 271.458 85.236C271.889 84.9747 272.196 84.6153 272.379 84.158H274.065C273.96 84.6545 273.771 85.0923 273.496 85.4712C273.235 85.8501 272.908 86.1703 272.516 86.4316C272.137 86.6799 271.7 86.8693 271.203 87C270.72 87.1307 270.203 87.196 269.655 87.196ZM269.557 77.984C269.152 77.984 268.76 78.0428 268.381 78.1604C268.002 78.2649 267.662 78.4413 267.361 78.6896C267.074 78.9248 266.839 79.2253 266.656 79.5912C266.473 79.9571 266.381 80.3948 266.381 80.9044H272.634C272.621 80.3687 272.529 79.9179 272.359 79.552C272.203 79.1731 271.987 78.8725 271.713 78.6504C271.438 78.4152 271.112 78.2453 270.733 78.1408C270.367 78.0363 269.975 77.984 269.557 77.984ZM276.712 76.612H278.437V80.9436H283.807V76.612H285.532V87H283.807V82.4724H278.437V87H276.712V76.612ZM291.047 78.1408H287.499V76.612H296.319V78.1408H292.771V87H291.047V78.1408ZM298.284 76.612H299.891V78.572C300.244 77.8795 300.734 77.3503 301.361 76.9844C302.001 76.6055 302.739 76.416 303.576 76.416C304.882 76.416 305.928 76.8472 306.712 77.7096C307.496 78.5589 307.888 79.8264 307.888 81.512V81.904C307.888 82.7925 307.783 83.57 307.574 84.2364C307.365 84.8897 307.071 85.4385 306.692 85.8828C306.313 86.314 305.856 86.6407 305.32 86.8628C304.797 87.0849 304.216 87.196 303.576 87.196C302.687 87.196 301.942 87 301.341 86.608C300.753 86.216 300.309 85.726 300.008 85.138V90.92H298.284V76.612ZM303.184 85.6672C303.602 85.6672 303.994 85.5888 304.36 85.432C304.725 85.2621 305.039 85.0204 305.3 84.7068C305.575 84.3932 305.784 84.0012 305.928 83.5308C306.084 83.0604 306.163 82.5181 306.163 81.904V81.512C306.163 80.9501 306.084 80.4471 305.928 80.0028C305.784 79.5585 305.575 79.1861 305.3 78.8856C305.039 78.572 304.725 78.3368 304.36 78.18C303.994 78.0232 303.602 77.9448 303.184 77.9448C302.713 77.9448 302.282 78.0232 301.89 78.18C301.498 78.3237 301.165 78.5328 300.89 78.8072C300.616 79.0685 300.4 79.3821 300.244 79.748C300.087 80.1139 300.008 80.5059 300.008 80.924V82.492C300.008 82.9624 300.087 83.3936 300.244 83.7856C300.4 84.1776 300.616 84.5108 300.89 84.7852C301.165 85.0596 301.498 85.2752 301.89 85.432C302.282 85.5888 302.713 85.6672 303.184 85.6672Z" fill="#FCCD49"/>
<g clip-path="url(#clip0_82_8)">
<path d="M73.1599 59.66V31.9H93.8201V36.3401H78.04V43.92H92.04V48.36H78.04V59.66H73.1599Z" fill="white"/>
<path d="M98.8899 59.66V30.66H103.69V59.66H98.8899Z" fill="white"/>
<path d="M117.17 60.09C116.155 60.1458 115.139 59.9796 114.195 59.6031C113.25 59.2266 112.399 58.6489 111.7 57.91C110.31 56.2836 109.594 54.187 109.7 52.05V38.72H114.5V50.6199C114.411 51.9841 114.827 53.3334 115.67 54.41C116.091 54.8598 116.606 55.2112 117.178 55.4394C117.75 55.6675 118.365 55.7668 118.98 55.73C119.614 55.7532 120.245 55.6422 120.833 55.4044C121.42 55.1665 121.951 54.8073 122.39 54.35C123.305 53.2987 123.775 51.932 123.7 50.54V38.72H128.49V59.66H123.74V56.41C123.06 57.542 122.096 58.4769 120.944 59.1223C119.791 59.7676 118.491 60.1012 117.17 60.09Z" fill="white"/>
<path d="M134.62 35.51V30.95H139.74V35.51H134.62ZM134.82 59.66V38.7201H139.62V59.66H134.82Z" fill="white"/>
<path d="M154.52 60.0901C153.237 60.0908 151.968 59.8243 150.794 59.3078C149.62 58.7913 148.566 58.0361 147.7 57.0901C145.839 54.855 144.82 52.0384 144.82 49.13C144.82 46.2215 145.839 43.4051 147.7 41.17C148.575 40.2342 149.634 39.4905 150.812 38.9861C151.99 38.4817 153.259 38.2275 154.54 38.24C155.938 38.2344 157.317 38.566 158.56 39.2066C159.803 39.8472 160.873 40.778 161.68 41.92V30.66H166.48V59.66H161.68V56.17C160.918 57.3783 159.861 58.3723 158.608 59.0582C157.355 59.7441 155.948 60.0993 154.52 60.0901ZM151.41 54.0901C151.953 54.6826 152.614 55.1558 153.35 55.4795C154.086 55.8031 154.881 55.9703 155.685 55.9703C156.489 55.9703 157.284 55.8031 158.02 55.4795C158.756 55.1558 159.417 54.6826 159.96 54.0901C161.181 52.7502 161.821 50.9809 161.74 49.17C161.806 47.3913 161.166 45.6587 159.96 44.3501C159.411 43.7636 158.747 43.296 158.01 42.9764C157.273 42.6568 156.478 42.4919 155.675 42.4919C154.872 42.4919 154.077 42.6568 153.34 42.9764C152.603 43.296 151.939 43.7636 151.39 44.3501C150.184 45.7046 149.559 47.4788 149.65 49.29C149.593 51.0515 150.224 52.766 151.41 54.07V54.0901Z" fill="white"/>
<path d="M185.89 60.17C184.016 60.2175 182.153 59.8739 180.419 59.1611C178.685 58.4483 177.119 57.3819 175.82 56.03C173.219 53.2707 171.77 49.622 171.77 45.83C171.77 42.038 173.219 38.3892 175.82 35.6299C177.147 34.2586 178.746 33.1801 180.515 32.4637C182.284 31.7472 184.183 31.4088 186.09 31.47C188.185 31.4125 190.269 31.7905 192.21 32.58C193.963 33.3692 195.566 34.4551 196.95 35.79L193.82 39.4C191.772 37.2911 188.988 36.0551 186.05 35.95C184.815 35.9185 183.588 36.1572 182.455 36.6495C181.322 37.1418 180.31 37.8758 179.49 38.8C177.814 40.7471 176.892 43.2309 176.892 45.8C176.892 48.3691 177.814 50.8529 179.49 52.8C180.307 53.7265 181.316 54.4634 182.448 54.9592C183.579 55.4549 184.805 55.6975 186.04 55.67C187.49 55.7013 188.927 55.3967 190.24 54.78C191.624 54.068 192.894 53.1547 194.01 52.07L197.14 55.2399C195.72 56.7732 194.024 58.0251 192.14 58.93C190.171 59.791 188.038 60.2141 185.89 60.17Z" fill="white"/>
<path d="M211.66 60.17C210.192 60.2114 208.731 59.9514 207.367 59.4062C206.003 58.861 204.765 58.0421 203.73 56.9999C201.69 54.9402 200.546 52.1587 200.546 49.2599C200.546 46.3612 201.69 43.5797 203.73 41.52C205.877 39.4778 208.727 38.3391 211.69 38.3391C214.653 38.3391 217.503 39.4778 219.65 41.52C221.69 43.5797 222.834 46.3612 222.834 49.2599C222.834 52.1587 221.69 54.9402 219.65 56.9999C218.603 58.0428 217.355 58.8617 215.981 59.4067C214.607 59.9517 213.137 60.2114 211.66 60.17ZM211.74 56.0099C212.602 56.0425 213.461 55.8857 214.255 55.5505C215.05 55.2153 215.762 54.71 216.34 54.07C217.507 52.7476 218.132 51.0333 218.09 49.27C218.131 47.4982 217.474 45.7812 216.26 44.4899C215.683 43.8444 214.973 43.3315 214.179 42.9863C213.385 42.641 212.526 42.4717 211.66 42.4899C210.804 42.4606 209.953 42.6191 209.165 42.9543C208.377 43.2895 207.672 43.7931 207.1 44.43C205.936 45.7539 205.315 47.468 205.36 49.23C205.328 50.9925 205.98 52.6986 207.18 53.9899C207.754 54.6267 208.459 55.1329 209.245 55.4744C210.032 55.816 210.883 55.985 211.74 55.97V56.0099Z" fill="white"/>
<path d="M234.98 60.09C233.963 60.1473 232.946 59.9818 231.999 59.6053C231.053 59.2288 230.2 58.6502 229.5 57.91C228.11 56.2836 227.394 54.187 227.5 52.05V38.72H232.3V50.6199C232.211 51.9841 232.627 53.3334 233.47 54.41C233.891 54.8598 234.406 55.2112 234.978 55.4394C235.55 55.6675 236.165 55.7668 236.78 55.73C237.414 55.7545 238.045 55.6441 238.633 55.4062C239.221 55.1683 239.752 54.8083 240.19 54.35C241.105 53.2987 241.575 51.932 241.5 50.54V38.72H246.3V59.66H241.5V56.41C240.824 57.5346 239.868 58.4648 238.725 59.1098C237.583 59.7548 236.292 60.0926 234.98 60.09Z" fill="white"/>
<path d="M252.34 59.66V38.7201H257.14V43.44C258.62 39.8667 261.093 38.1634 264.56 38.33V43.4H264.28C263.312 43.3581 262.346 43.5258 261.448 43.8917C260.551 44.2576 259.743 44.813 259.08 45.52C257.679 47.2587 256.986 49.4624 257.14 51.69V59.69L252.34 59.66Z" fill="white"/>
<path d="M275.9 60.0601C272.666 60.0704 269.529 58.9609 267.02 56.92L269.16 53.67C271.097 55.267 273.511 56.1745 276.02 56.25C276.863 56.3055 277.701 56.0881 278.41 55.63C278.686 55.4387 278.91 55.1809 279.06 54.8802C279.211 54.5796 279.283 54.2459 279.27 53.91C279.283 53.5527 279.178 53.2011 278.97 52.91C278.691 52.5685 278.33 52.3035 277.92 52.14C277.51 51.9346 277.086 51.7607 276.65 51.62L274.95 51.1001L274.59 50.9801C273.85 50.7701 273.22 50.57 272.7 50.37C272.112 50.1326 271.538 49.8622 270.98 49.5601C270.412 49.2599 269.89 48.8793 269.43 48.43C269.004 47.9718 268.665 47.4397 268.43 46.86C268.161 46.1791 268.029 45.4521 268.04 44.7201C268.007 43.8349 268.182 42.9543 268.55 42.1487C268.918 41.343 269.469 40.6346 270.16 40.0801C271.674 38.8856 273.563 38.2688 275.49 38.3401C278.234 38.3448 280.913 39.174 283.18 40.7201L281.28 44.13C279.531 42.9338 277.486 42.2419 275.37 42.13C274.603 42.0855 273.844 42.2966 273.21 42.7301C272.962 42.9102 272.762 43.1484 272.628 43.4239C272.493 43.6995 272.429 44.0038 272.44 44.3101C272.452 44.5545 272.52 44.7929 272.64 45.0063C272.76 45.2198 272.927 45.4025 273.13 45.54C273.549 45.8823 274.018 46.1588 274.52 46.36C274.98 46.53 275.73 46.79 276.76 47.13L276.96 47.2101C277.026 47.2177 277.093 47.2177 277.16 47.2101C277.954 47.4524 278.735 47.7361 279.5 48.0601C280.2 48.3749 280.869 48.7532 281.5 49.1901C282.171 49.6395 282.72 50.2475 283.1 50.9601C283.484 51.7117 283.676 52.5463 283.66 53.39C283.711 54.3182 283.54 55.2453 283.161 56.0941C282.782 56.9429 282.206 57.6888 281.48 58.27C279.879 59.4859 277.91 60.1176 275.9 60.0601Z" fill="white"/>
<path d="M298.14 60.1699C296.725 60.2173 295.315 59.9757 293.996 59.4599C292.677 58.9441 291.477 58.1649 290.47 57.1699C289.445 56.1356 288.643 54.9014 288.115 53.5441C287.587 52.1868 287.343 50.7353 287.4 49.2799C287.324 46.4259 288.36 43.6539 290.29 41.55C291.209 40.5194 292.342 39.7017 293.61 39.1542C294.878 38.6067 296.249 38.3424 297.63 38.3799C299.028 38.3064 300.424 38.5602 301.707 39.1209C302.99 39.6816 304.124 40.5338 305.02 41.6099C306.817 43.8814 307.752 46.7152 307.66 49.6099C307.667 50.0612 307.64 50.5126 307.58 50.96H292.19C292.366 52.4583 293.076 53.8428 294.19 54.8599C295.302 55.8103 296.728 56.3129 298.19 56.2699C299.254 56.2512 300.303 56.0205 301.277 55.5912C302.25 55.1619 303.129 54.5428 303.86 53.7699L306.68 56.2699C305.653 57.5334 304.347 58.5426 302.866 59.219C301.385 59.8955 299.767 60.2209 298.14 60.1699ZM292.14 47.7599H302.88C302.791 46.2856 302.222 44.8808 301.26 43.7599C300.795 43.2481 300.224 42.8442 299.587 42.5764C298.949 42.3087 298.261 42.1836 297.57 42.21C296.888 42.1941 296.211 42.3221 295.582 42.5857C294.953 42.8494 294.387 43.2426 293.92 43.7399C292.914 44.8388 292.296 46.2367 292.16 47.72L292.14 47.7599Z" fill="white"/>
<path d="M60.6499 14.45L50.4199 9.33005L32.0801 0.160004C32.0037 0.11563 31.9329 0.0618457 31.8699 -3.05176e-05H31.74C30.8 0.439969 29.8599 0.890028 28.9199 1.31003L11.9199 9.04001L0.409912 14.25C0.299912 14.3 0.170049 14.32 0.0500488 14.36V14.5H0.119873L6.98999 17.39C7.06487 17.4151 7.12833 17.4663 7.1687 17.5341C7.20907 17.602 7.22364 17.6822 7.20996 17.76C7.20996 20.63 7.20996 23.51 7.20996 26.38C7.19712 26.5319 7.12967 26.6741 7.02002 26.78C6.8263 26.9265 6.66437 27.1109 6.54419 27.322C6.42401 27.5331 6.34817 27.7664 6.32104 28.0078C6.29392 28.2491 6.31615 28.4934 6.38647 28.7259C6.4568 28.9584 6.57362 29.1741 6.72998 29.36C6.80856 29.4775 6.84072 29.6201 6.82007 29.76C6.70007 30.38 6.54992 30.99 6.41992 31.61L5.75 34.61H10.0601C10.0601 34.48 10.06 34.37 10 34.27C9.69 32.86 9.38006 31.45 9.06006 30.04C9.02596 29.9509 9.02316 29.8528 9.05225 29.7619C9.08133 29.6711 9.14047 29.5928 9.21997 29.54C9.4389 29.3589 9.60994 29.1265 9.71777 28.8636C9.82561 28.6007 9.86705 28.3153 9.83838 28.0326C9.80971 27.7498 9.71164 27.4786 9.55322 27.2426C9.39481 27.0067 9.18077 26.8135 8.92993 26.68C8.82014 26.6358 8.72917 26.5547 8.67261 26.4507C8.61605 26.3467 8.59736 26.2262 8.61987 26.11C8.61987 23.5833 8.61987 21.05 8.61987 18.51V18.12L9.11987 18.31C10.4499 18.87 11.7899 19.41 13.1199 20C13.2568 20.0929 13.4251 20.1283 13.5879 20.0984C13.7507 20.0684 13.8951 19.9757 13.99 19.8401C14.1633 19.6522 14.3542 19.4815 14.5601 19.33C18.5819 16.0462 23.483 14.0216 28.6499 13.51C32.1437 13.1328 35.6777 13.5464 38.99 14.7201C42.0643 15.7663 44.8306 17.56 47.04 19.94C47.0919 20.026 47.1758 20.0879 47.2732 20.1123C47.3706 20.1366 47.4738 20.1215 47.5601 20.07L59.3699 15.31L60.99 14.64C60.881 14.5691 60.7674 14.5057 60.6499 14.45Z" fill="white"/>
<path d="M36.7399 60.6199H25.52C25.3813 60.6211 25.245 60.6563 25.123 60.7223C25.001 60.7883 24.8972 60.883 24.8203 60.9984C24.7433 61.1138 24.6958 61.2462 24.6818 61.3842C24.6679 61.5221 24.6877 61.6615 24.7399 61.7899C24.8108 61.9585 24.9331 62.1004 25.0893 62.1956C25.2455 62.2907 25.4277 62.3343 25.6101 62.3199H36.8798C36.9915 62.3108 37.1003 62.2796 37.1999 62.2284C37.2995 62.1772 37.388 62.1069 37.4604 62.0215C37.5328 61.9361 37.5878 61.8372 37.622 61.7306C37.6562 61.6239 37.6691 61.5115 37.6599 61.3999C37.6507 61.2883 37.6198 61.1796 37.5686 61.08C37.5173 60.9804 37.447 60.8918 37.3615 60.8193C37.2761 60.7469 37.1771 60.6921 37.0705 60.6578C36.9639 60.6236 36.8516 60.6107 36.7399 60.6199Z" fill="white"/>
<path d="M35.6799 63.6901H26.59C26.3845 63.6866 26.1843 63.7559 26.0251 63.8859C25.8658 64.0158 25.7577 64.198 25.7199 64.4C25.6829 64.5967 25.7182 64.8002 25.8193 64.9729C25.9203 65.1456 26.0804 65.276 26.2699 65.3401C26.4155 65.3852 26.5676 65.4054 26.7199 65.4H35.86C36.0141 65.383 36.1599 65.3222 36.2804 65.2247C36.401 65.1272 36.4911 64.9972 36.54 64.8501C36.5932 64.7157 36.6113 64.5698 36.5925 64.4265C36.5736 64.2832 36.5184 64.1471 36.4323 64.031C36.3462 63.9149 36.2319 63.8226 36.1003 63.7629C35.9686 63.7033 35.8239 63.6782 35.6799 63.6901Z" fill="white"/>
<path d="M45.41 33.34C45.41 29.58 45.41 25.83 45.41 22.07C45.4163 21.9614 45.395 21.8529 45.3477 21.755C45.3005 21.657 45.2289 21.5727 45.14 21.51C44.1088 20.6492 42.9814 19.911 41.7801 19.31C39.1428 17.9679 36.2693 17.1527 33.3201 16.91C30.1482 16.6155 26.9492 16.9554 23.91 17.91C21.4636 18.6383 19.1957 19.8677 17.2501 21.52C17.1594 21.5902 17.0872 21.6817 17.0401 21.7863C16.993 21.891 16.9724 22.0055 16.9801 22.1199C16.9801 25.8733 16.9801 29.63 16.9801 33.39C16.9755 33.5047 16.9997 33.6187 17.0504 33.7218C17.101 33.8248 17.1765 33.9136 17.2701 33.9801C17.2001 34.3601 17.1402 34.75 17.1002 35.14C16.8309 37.1764 17.1103 39.2478 17.91 41.14C18.43 42.36 19.0102 43.5501 19.6102 44.7301C20.6102 46.6401 21.6101 48.51 22.4701 50.5C23.5291 52.9634 24.0996 55.6091 24.15 58.29C24.15 58.98 24.47 59.29 25.15 59.29H37.15C37.84 59.29 38.15 58.98 38.15 58.29C38.1634 56.665 38.3854 55.0486 38.8101 53.4801C39.4311 51.3359 40.2793 49.2641 41.3402 47.3C42.2702 45.49 43.2102 43.6899 44.0902 41.8599C44.784 40.4837 45.1856 38.9789 45.2701 37.44C45.3232 36.261 45.2393 35.0797 45.0201 33.92C45.1423 33.8835 45.2478 33.8057 45.3189 33.6999C45.3901 33.5941 45.4223 33.4669 45.41 33.34ZM32.9 57.54H29.5101V46.9801H32.9V57.54ZM42.3201 41.79C41.5101 43.43 40.6501 45.04 39.8101 46.66C38.6702 48.7807 37.7775 51.0255 37.15 53.35C36.8221 54.661 36.6213 56.0006 36.5501 57.35C36.5501 57.42 36.5501 57.49 36.5501 57.6H34.8302C34.6802 57.6 34.61 57.55 34.62 57.39C34.6249 57.3234 34.6249 57.2566 34.62 57.19C34.62 52.88 34.62 48.56 34.62 44.19C34.6372 44.0415 34.6181 43.8911 34.564 43.7517C34.51 43.6123 34.4229 43.4881 34.3101 43.39C34.1889 43.2867 34.0405 43.2204 33.8826 43.1992C33.7248 43.1779 33.5642 43.2025 33.42 43.27C33.2661 43.3379 33.1363 43.4506 33.0472 43.5932C32.9581 43.7358 32.9137 43.9019 32.92 44.07C32.92 44.45 32.92 44.8301 32.92 45.2301H29.5001V44.95C29.52 44.587 29.52 44.223 29.5001 43.8599C29.4656 43.6583 29.3552 43.4776 29.1915 43.3548C29.0278 43.2321 28.8232 43.1766 28.62 43.2C28.4163 43.2123 28.2247 43.3 28.0824 43.4461C27.94 43.5922 27.8573 43.7861 27.8502 43.9899C27.8502 44.0999 27.8502 44.2 27.8502 44.31C27.8502 48.6167 27.8502 52.9234 27.8502 57.2301C27.8502 57.4701 27.8501 57.56 27.5401 57.55C27.0101 57.55 26.48 57.55 25.92 57.55L25.8302 56.46C25.5855 54.045 24.9646 51.6832 23.9901 49.46C23.1701 47.53 22.15 45.7101 21.19 43.85C20.65 42.85 20.14 41.75 19.66 40.69C18.8747 38.9208 18.6043 36.9659 18.88 35.05C19.0542 33.6232 19.4526 32.2328 20.0601 30.93C20.419 30.7455 20.7897 30.5852 21.17 30.45C23.2493 29.7828 25.4085 29.396 27.5902 29.3C28.7102 29.22 29.8501 29.2 30.5101 29.17C33.62 29.1112 36.7248 29.4472 39.7501 30.17C40.5358 30.3947 41.3045 30.6754 42.0501 31.01C42.2366 31.0995 42.4141 31.2067 42.5802 31.33C43.1044 32.5559 43.4576 33.8479 43.63 35.17C43.8909 37.4591 43.4333 39.7728 42.3201 41.79Z" fill="white"/>
</g>
<defs>
<clipPath id="clip0_82_8">
<rect width="307.66" height="65.4" fill="white"/>
</clipPath>
</defs>
</svg>
